# MagicaVoxel @ Ephtracy

# group
o 

# material
mtllib balanar-4.mtl
usemtl palette

# normals
vn -1 0 0
vn 1 0 0
vn 0 0 1
vn 0 0 -1
vn 0 -1 0
vn 0 1 0

# texcoords
vt 0.00195313 0.5
vt 0.107422 0.5
vt 0.123047 0.5
vt 0.146484 0.5

# verts
v -1 1.2 1.7
v -1 1.2 1.5
v -1 1.2 1.3
v -1 1.2 0.8
v -1 1.3 1.5
v -1 1.3 1.4
v -1 1.3 1.3
v -1 1.3 1.2
v -1 1.4 1.4
v -1 1.4 1.2
v -1 1.4 0.8
v -1 1.4 0.5
v -1 1.7 1.7
v -1 1.7 0.5
v -0.5 1.7 1.2
v -0.5 1.7 1.1
v -0.5 1.7 1
v -0.5 1.7 0.9
v -0.5 1.7 0.8
v -0.5 1.7 0.7
v -0.5 1.7 0.6
v -0.5 1.7 0.5
v -0.5 1.8 1.2
v -0.5 1.8 1.1
v -0.5 1.8 1
v -0.5 1.8 0.9
v -0.5 1.8 0.8
v -0.5 1.8 0.7
v -0.5 1.8 0.6
v -0.5 1.8 0.5
v -0.6 1.2 1.7
v -0.6 1.2 0.8
v -0.6 1.3 1.3
v -0.6 1.3 0.8
v -0.6 1.6 1.3
v -0.6 1.7 1.7
v -0.6 1.7 1.3
v -0.5 1.3 1.3
v -0.5 1.3 0.8
v -0.5 1.4 1.2
v -0.5 1.4 0.8
v -0.5 1.6 1.3
v -0.5 1.6 1.2
v -0.5 1.7 1.3
v -0.5 1.7 1.2
v -0.4 1.4 1.2
v -0.4 1.4 0.5
v -0.4 1.7 1.2
v -0.4 1.7 1.1
v -0.4 1.7 1
v -0.4 1.7 0.9
v -0.4 1.7 0.8
v -0.4 1.7 0.7
v -0.4 1.7 0.6
v -0.4 1.7 0.5
v -0.4 1.8 1.2
v -0.4 1.8 1.1
v -0.4 1.8 1
v -0.4 1.8 0.9
v -0.4 1.8 0.8
v -0.4 1.8 0.7
v -0.4 1.8 0.6
v -0.4 1.8 0.5
v -1 1.2 1.7
v -1 1.7 1.7
v -0.6 1.2 1.7
v -0.6 1.7 1.7
v -0.6 1.3 1.3
v -0.6 1.6 1.3
v -0.6 1.7 1.3
v -0.5 1.3 1.3
v -0.5 1.6 1.3
v -0.5 1.7 1.3
v -0.5 1.4 1.2
v -0.5 1.6 1.2
v -0.5 1.7 1.2
v -0.5 1.8 1.2
v -0.4 1.4 1.2
v -0.4 1.7 1.2
v -0.4 1.8 1.2
v -1 1.2 0.8
v -1 1.4 0.8
v -0.6 1.2 0.8
v -0.6 1.3 0.8
v -0.5 1.3 0.8
v -0.5 1.4 0.8
v -1 1.4 0.5
v -1 1.7 0.5
v -0.9 1.6 0.5
v -0.9 1.7 0.5
v -0.8 1.5 0.5
v -0.8 1.6 0.5
v -0.6 1.5 0.5
v -0.6 1.6 0.5
v -0.5 1.6 0.5
v -0.5 1.7 0.5
v -0.5 1.8 0.5
v -0.4 1.4 0.5
v -0.4 1.7 0.5
v -0.4 1.8 0.5
v -1 1.2 1.7
v -0.6 1.2 1.7
v -1 1.2 1.5
v -0.7 1.2 1.5
v -1 1.2 1.3
v -0.7 1.2 1.3
v -1 1.2 0.8
v -0.6 1.2 0.8
v -0.6 1.3 1.3
v -0.5 1.3 1.3
v -0.6 1.3 0.8
v -0.5 1.3 0.8
v -0.5 1.4 1.2
v -0.4 1.4 1.2
v -1 1.4 0.8
v -0.5 1.4 0.8
v -1 1.4 0.5
v -0.4 1.4 0.5
v -1 1.7 1.7
v -0.6 1.7 1.7
v -0.6 1.7 1.3
v -0.5 1.7 1.3
v -0.5 1.7 1.2
v -0.5 1.7 1.1
v -0.5 1.7 1
v -0.5 1.7 0.9
v -0.7 1.7 0.8
v -0.6 1.7 0.8
v -0.5 1.7 0.8
v -0.5 1.7 0.7
v -0.9 1.7 0.6
v -0.7 1.7 0.6
v -0.5 1.7 0.6
v -1 1.7 0.5
v -0.9 1.7 0.5
v -0.5 1.7 0.5
v -0.5 1.8 1.2
v -0.4 1.8 1.2
v -0.5 1.8 1.1
v -0.4 1.8 1.1
v -0.5 1.8 1
v -0.4 1.8 1
v -0.5 1.8 0.9
v -0.4 1.8 0.9
v -0.5 1.8 0.8
v -0.4 1.8 0.8
v -0.5 1.8 0.7
v -0.4 1.8 0.7
v -0.5 1.8 0.6
v -0.4 1.8 0.6
v -0.5 1.8 0.5
v -0.4 1.8 0.5

# faces
f 5/3/1 2/3/1 1/3/1
f 5/1/1 3/1/1 2/1/1
f 6/1/1 3/1/1 5/1/1
f 7/3/1 4/3/1 3/3/1
f 7/1/1 3/1/1 6/1/1
f 8/3/1 4/3/1 7/3/1
f 9/3/1 6/3/1 5/3/1
f 9/1/1 7/1/1 6/1/1
f 9/1/1 8/1/1 7/1/1
f 10/3/1 4/3/1 8/3/1
f 10/1/1 8/1/1 9/1/1
f 11/3/1 4/3/1 10/3/1
f 13/3/1 9/3/1 5/3/1
f 13/3/1 12/3/1 11/3/1
f 13/3/1 11/3/1 10/3/1
f 13/3/1 10/3/1 9/3/1
f 13/3/1 5/3/1 1/3/1
f 14/3/1 12/3/1 13/3/1
f 23/4/1 16/4/1 15/4/1
f 24/1/1 17/1/1 16/1/1
f 24/4/1 16/4/1 23/4/1
f 25/4/1 18/4/1 17/4/1
f 25/1/1 17/1/1 24/1/1
f 26/1/1 19/1/1 18/1/1
f 26/4/1 18/4/1 25/4/1
f 27/4/1 20/4/1 19/4/1
f 27/1/1 19/1/1 26/1/1
f 28/1/1 21/1/1 20/1/1
f 28/4/1 20/4/1 27/4/1
f 29/4/1 22/4/1 21/4/1
f 29/1/1 21/1/1 28/1/1
f 30/4/1 22/4/1 29/4/1
f 31/3/2 32/3/2 33/3/2
f 33/3/2 32/3/2 34/3/2
f 31/3/2 33/3/2 35/3/2
f 31/3/2 35/3/2 36/3/2
f 36/3/2 35/3/2 37/3/2
f 38/3/2 39/3/2 40/3/2
f 40/3/2 39/3/2 41/3/2
f 38/3/2 40/3/2 42/3/2
f 42/3/2 40/3/2 43/3/2
f 42/2/2 43/2/2 44/2/2
f 44/2/2 43/2/2 45/2/2
f 46/3/2 47/3/2 48/3/2
f 48/3/2 47/3/2 49/3/2
f 49/3/2 47/3/2 50/3/2
f 50/3/2 47/3/2 51/3/2
f 51/3/2 47/3/2 52/3/2
f 52/3/2 47/3/2 53/3/2
f 53/3/2 47/3/2 54/3/2
f 54/3/2 47/3/2 55/3/2
f 48/4/2 49/4/2 56/4/2
f 49/1/2 50/1/2 57/1/2
f 56/4/2 49/4/2 57/4/2
f 50/4/2 51/4/2 58/4/2
f 57/1/2 50/1/2 58/1/2
f 51/1/2 52/1/2 59/1/2
f 58/4/2 51/4/2 59/4/2
f 52/4/2 53/4/2 60/4/2
f 59/1/2 52/1/2 60/1/2
f 53/1/2 54/1/2 61/1/2
f 60/4/2 53/4/2 61/4/2
f 54/4/2 55/4/2 62/4/2
f 61/1/2 54/1/2 62/1/2
f 62/4/2 55/4/2 63/4/2
f 66/3/3 65/3/3 64/3/3
f 67/3/3 65/3/3 66/3/3
f 71/3/3 69/3/3 68/3/3
f 72/2/3 70/2/3 69/2/3
f 72/3/3 69/3/3 71/3/3
f 73/2/3 70/2/3 72/2/3
f 78/3/3 75/3/3 74/3/3
f 78/3/3 76/3/3 75/3/3
f 79/4/3 77/4/3 76/4/3
f 79/3/3 76/3/3 78/3/3
f 80/4/3 77/4/3 79/4/3
f 81/3/4 82/3/4 83/3/4
f 83/3/4 82/3/4 84/3/4
f 84/3/4 82/3/4 85/3/4
f 85/3/4 82/3/4 86/3/4
f 87/3/4 88/3/4 89/3/4
f 89/3/4 88/3/4 90/3/4
f 87/3/4 89/3/4 91/3/4
f 89/2/4 90/2/4 92/2/4
f 91/3/4 89/3/4 92/3/4
f 87/3/4 91/3/4 93/3/4
f 91/2/4 92/2/4 93/2/4
f 92/2/4 90/2/4 94/2/4
f 93/2/4 92/2/4 94/2/4
f 93/3/4 94/3/4 95/3/4
f 94/2/4 90/2/4 95/2/4
f 95/2/4 90/2/4 96/2/4
f 95/3/4 96/3/4 98/3/4
f 87/3/4 93/3/4 98/3/4
f 93/3/4 95/3/4 98/3/4
f 96/4/4 97/4/4 99/4/4
f 98/3/4 96/3/4 99/3/4
f 99/4/4 97/4/4 100/4/4
f 103/3/5 102/3/5 101/3/5
f 104/3/5 102/3/5 103/3/5
f 105/1/5 104/1/5 103/1/5
f 106/3/5 102/3/5 104/3/5
f 106/1/5 104/1/5 105/1/5
f 107/3/5 106/3/5 105/3/5
f 108/3/5 102/3/5 106/3/5
f 108/3/5 106/3/5 107/3/5
f 111/3/5 110/3/5 109/3/5
f 112/3/5 110/3/5 111/3/5
f 116/3/5 114/3/5 113/3/5
f 117/3/5 116/3/5 115/3/5
f 118/3/5 114/3/5 116/3/5
f 118/3/5 116/3/5 117/3/5
f 119/3/6 120/3/6 121/3/6
f 121/2/6 122/2/6 123/2/6
f 121/2/6 123/2/6 124/2/6
f 121/2/6 124/2/6 125/2/6
f 121/2/6 125/2/6 126/2/6
f 119/3/6 121/3/6 127/3/6
f 121/2/6 126/2/6 128/2/6
f 127/3/6 121/3/6 128/3/6
f 128/2/6 126/2/6 129/2/6
f 127/2/6 128/2/6 130/2/6
f 128/2/6 129/2/6 130/2/6
f 119/3/6 127/3/6 131/3/6
f 127/2/6 130/2/6 132/2/6
f 131/3/6 127/3/6 132/3/6
f 132/2/6 130/2/6 133/2/6
f 119/3/6 131/3/6 134/3/6
f 131/2/6 132/2/6 135/2/6
f 134/3/6 131/3/6 135/3/6
f 132/2/6 133/2/6 135/2/6
f 135/2/6 133/2/6 136/2/6
f 137/4/6 138/4/6 139/4/6
f 139/4/6 138/4/6 140/4/6
f 139/1/6 140/1/6 141/1/6
f 141/1/6 140/1/6 142/1/6
f 141/4/6 142/4/6 143/4/6
f 143/4/6 142/4/6 144/4/6
f 143/1/6 144/1/6 145/1/6
f 145/1/6 144/1/6 146/1/6
f 145/4/6 146/4/6 147/4/6
f 147/4/6 146/4/6 148/4/6
f 147/1/6 148/1/6 149/1/6
f 149/1/6 148/1/6 150/1/6
f 149/4/6 150/4/6 151/4/6
f 151/4/6 150/4/6 152/4/6
