# MagicaVoxel @ Ephtracy

# group
o 

# material
mtllib demon-5.mtl
usemtl palette

# normals
vn -1 0 0
vn 1 0 0
vn 0 0 1
vn 0 0 -1
vn 0 -1 0
vn 0 1 0

# texcoords
vt 0.216797 0.5
vt 0.419922 0.5
vt 0.525391 0.5

# verts
v 0.3 2.4 0.4
v 0.3 2.4 -0.5
v 0.3 2.5 0
v 0.3 2.5 -0.3
v 0.3 2.5 -0.4
v 0.3 2.5 -0.5
v 0.3 2.5 -0.6
v 0.3 2.6 0.3
v 0.3 2.6 0
v 0.3 2.6 -0.3
v 0.3 2.6 -0.4
v 0.3 2.7 0.5
v 0.3 2.7 0.4
v 0.3 2.7 -0.5
v 0.3 2.7 -0.6
v 0.3 2.7 -0.7
v 0.3 2.8 0.4
v 0.3 2.8 0.3
v 0.3 2.9 -0.6
v 0.3 2.9 -0.7
v 0.3 2.9 -0.8
v 0.3 3 0.6
v 0.3 3 0.5
v 0.3 3.1 0.7
v 0.3 3.1 0.6
v 0.3 3.1 -0.7
v 0.3 3.1 -0.8
v 0.3 3.1 -0.9
v 0.3 3.2 0.8
v 0.3 3.2 0.7
v 0.3 3.3 -0.9
v 0.3 3.3 -1
v 0.3 3.4 -0.8
v 0.3 3.4 -1
v 0.3 3.7 0.8
v 0.3 3.7 0.7
v 0.3 3.7 -1
v 0.3 3.7 -1.1
v 0.3 3.8 0.7
v 0.3 3.8 -1.1
v 0.4 2.2 0.3
v 0.4 2.2 -0.4
v 0.4 2.3 0.4
v 0.4 2.3 0.3
v 0.4 2.4 0.4
v 0.4 2.4 0.3
v 0.4 2.4 -0.4
v 0.5 2 0
v 0.5 2 -0.3
v 0.5 2.1 -0.3
v 0.5 2.1 -0.4
v 0.5 2.2 0
v 0.5 2.2 -0.3
v 0.5 2.2 -0.4
v 0.5 2.4 0.5
v 0.5 2.4 0.4
v 0.5 2.7 0.5
v 0.5 2.7 0.4
v 0.6 1.8 0
v 0.6 1.8 -0.2
v 0.6 1.9 -0.2
v 0.6 1.9 -0.3
v 0.6 2 0
v 0.6 2 -0.3
v 0.6 2.2 0.4
v 0.6 2.2 0.3
v 0.6 2.3 0.4
v 0.6 2.3 0.3
v 0.6 2.6 0.6
v 0.6 2.6 0.5
v 0.6 3 0.6
v 0.6 3 0.5
v 0.7 1.6 0
v 0.7 1.6 -0.2
v 0.7 1.8 0
v 0.7 1.8 -0.2
v 0.7 2.2 0.5
v 0.7 2.2 0.4
v 0.7 2.4 0.5
v 0.7 2.4 0.4
v 0.8 1.5 0
v 0.8 1.5 -0.1
v 0.8 1.6 0
v 0.8 1.6 -0.1
v 0.4 3.1 -0.8
v 0.4 3.1 -0.9
v 0.4 3.3 -0.8
v 0.4 3.3 -0.9
v 0.4 3.3 -1
v 0.4 3.4 -0.9
v 0.4 3.4 -1
v 0.4 3.6 -0.9
v 0.4 3.6 -1
v 0.5 3.2 0.8
v 0.5 3.2 0.7
v 0.5 3.7 0.8
v 0.5 3.7 0.7
v 0.5 3.7 -1
v 0.5 3.7 -1.1
v 0.5 3.8 -1
v 0.5 3.8 -1.1
v 0.6 3.6 -0.9
v 0.6 3.6 -1
v 0.6 3.8 -0.9
v 0.6 3.8 -1
v 0.7 2.9 -0.7
v 0.7 2.9 -0.8
v 0.7 3.1 0.7
v 0.7 3.1 0.6
v 0.7 3.2 -0.7
v 0.7 3.2 -0.8
v 0.7 3.3 0.6
v 0.7 3.3 -0.8
v 0.7 3.3 -0.9
v 0.7 3.4 0.7
v 0.7 3.4 0.6
v 0.7 3.7 0.7
v 0.7 3.7 0.6
v 0.7 3.7 0.5
v 0.7 3.8 0.7
v 0.7 3.8 0.5
v 0.7 3.8 -0.8
v 0.7 3.8 -0.9
v 0.8 2.5 -0.5
v 0.8 2.5 -0.6
v 0.8 2.7 -0.5
v 0.8 2.7 -0.6
v 0.8 2.7 -0.7
v 0.8 3 -0.6
v 0.8 3 -0.7
v 0.9 3 -0.6
v 0.9 3 -0.7
v 0.9 3.1 0.6
v 0.9 3.1 0.5
v 0.9 3.2 -0.6
v 0.9 3.2 -0.7
v 0.9 3.2 -0.8
v 0.9 3.4 0.6
v 0.9 3.4 0.5
v 0.9 3.7 0.6
v 0.9 3.7 0.5
v 0.9 3.7 0.4
v 0.9 3.8 0.5
v 0.9 3.8 0.4
v 0.9 3.8 -0.7
v 0.9 3.8 -0.8
v 1 2.6 0.6
v 1 2.6 0.5
v 1 2.7 -0.5
v 1 2.7 -0.6
v 1 2.8 0.6
v 1 2.8 0.5
v 1 3.1 0.6
v 1 3.1 0.5
v 1 3.2 -0.6
v 1 3.2 -0.7
v 1 3.7 0.4
v 1 3.7 0
v 1 3.8 0.4
v 1 3.8 0
v 1 3.8 -0.5
v 1 3.8 -0.7
v 1.1 2.1 -0.3
v 1.1 2.1 -0.4
v 1.1 2.4 -0.3
v 1.1 2.4 -0.4
v 1.1 2.4 -0.5
v 1.1 3.1 0.5
v 1.1 3.1 0.4
v 1.1 3.3 -0.2
v 1.1 3.3 -0.4
v 1.1 3.5 -0.2
v 1.1 3.5 -0.4
v 1.1 3.6 0.4
v 1.1 3.6 0
v 1.1 3.6 -0.2
v 1.1 3.7 0.5
v 1.1 3.7 0
v 1.1 3.8 0
v 1.1 3.8 -0.4
v 1.1 3.8 -0.5
v 1.2 1.6 -0.1
v 1.2 1.6 -0.2
v 1.2 1.8 -0.1
v 1.2 1.8 -0.2
v 1.2 1.9 -0.2
v 1.2 1.9 -0.3
v 1.2 2.2 0.5
v 1.2 2.2 0.4
v 1.2 2.2 -0.2
v 1.2 2.2 -0.3
v 1.2 2.4 -0.3
v 1.2 2.4 -0.4
v 1.2 3.1 0.5
v 1.2 3.1 0.4
v 1.2 3.1 -0.3
v 1.2 3.3 -0.2
v 1.2 3.3 -0.4
v 1.2 3.5 0
v 1.2 3.5 -0.2
v 1.2 3.6 0.4
v 1.2 3.6 0
v 1.2 3.6 -0.2
v 1.3 1.5 0
v 1.3 1.5 -0.1
v 1.3 1.7 0
v 1.3 1.7 -0.1
v 1.3 1.8 -0.1
v 1.3 1.8 -0.2
v 1.3 2.2 0.4
v 1.3 2.2 0.3
v 1.3 2.2 -0.2
v 1.3 2.2 -0.3
v 1.3 2.5 -0.1
v 1.3 2.5 -0.2
v 1.3 2.7 -0.1
v 1.3 2.7 -0.2
v 1.3 2.9 0.3
v 1.3 2.9 -0.1
v 1.3 3.1 0.4
v 1.3 3.1 -0.3
v 1.4 1.7 0
v 1.4 1.7 -0.1
v 1.4 2.2 0.3
v 1.4 2.2 0
v 1.4 2.5 0
v 1.4 2.5 -0.1
v 1.4 2.7 0
v 1.4 2.7 -0.1
v 1.4 2.9 0.3
v 1.4 2.9 -0.1
v 0.3 3.2 0.8
v 0.3 3.7 0.8
v 0.5 3.2 0.8
v 0.5 3.7 0.8
v 0.3 3.1 0.7
v 0.3 3.2 0.7
v 0.3 3.7 0.7
v 0.3 3.8 0.7
v 0.5 3.2 0.7
v 0.5 3.7 0.7
v 0.6 3.4 0.7
v 0.6 3.7 0.7
v 0.7 3.1 0.7
v 0.7 3.4 0.7
v 0.7 3.7 0.7
v 0.7 3.8 0.7
v 0.3 3 0.6
v 0.3 3.1 0.6
v 0.6 2.6 0.6
v 0.6 3 0.6
v 0.7 3.1 0.6
v 0.7 3.3 0.6
v 0.7 3.4 0.6
v 0.7 3.7 0.6
v 0.8 3.3 0.6
v 0.8 3.4 0.6
v 0.9 2.6 0.6
v 0.9 2.8 0.6
v 0.9 3.1 0.6
v 0.9 3.4 0.6
v 0.9 3.7 0.6
v 1 2.6 0.6
v 1 2.8 0.6
v 1 3.1 0.6
v 0.3 2.7 0.5
v 0.3 3 0.5
v 0.5 2.4 0.5
v 0.5 2.7 0.5
v 0.6 2.6 0.5
v 0.6 3 0.5
v 0.7 2.2 0.5
v 0.7 2.4 0.5
v 0.7 3.7 0.5
v 0.7 3.8 0.5
v 0.9 2.6 0.5
v 0.9 3.1 0.5
v 0.9 3.4 0.5
v 0.9 3.7 0.5
v 0.9 3.8 0.5
v 1 2.6 0.5
v 1 2.8 0.5
v 1 3.1 0.5
v 1.1 2.6 0.5
v 1.1 2.8 0.5
v 1.1 3.1 0.5
v 1.1 3.7 0.5
v 1.2 2.2 0.5
v 1.2 3.1 0.5
v 0.3 2.4 0.4
v 0.3 2.7 0.4
v 0.4 2.3 0.4
v 0.4 2.4 0.4
v 0.4 2.7 0.4
v 0.5 2.4 0.4
v 0.5 2.7 0.4
v 0.6 2.2 0.4
v 0.6 2.3 0.4
v 0.7 2.2 0.4
v 0.7 2.4 0.4
v 0.9 3.7 0.4
v 0.9 3.8 0.4
v 1 3.7 0.4
v 1 3.8 0.4
v 1.1 3.1 0.4
v 1.1 3.6 0.4
v 1.2 2.2 0.4
v 1.2 3.1 0.4
v 1.2 3.6 0.4
v 1.3 2.2 0.4
v 1.3 3.1 0.4
v 0.4 2.2 0.3
v 0.4 2.3 0.3
v 0.5 2.2 0.3
v 0.5 2.3 0.3
v 0.6 2.2 0.3
v 0.6 2.3 0.3
v 1.3 2.2 0.3
v 1.3 2.9 0.3
v 1.4 2.2 0.3
v 1.4 2.9 0.3
v 0.5 2 0
v 0.5 2.2 0
v 0.6 1.8 0
v 0.6 2 0
v 0.7 1.6 0
v 0.7 1.8 0
v 0.8 1.5 0
v 0.8 1.6 0
v 1 3.7 0
v 1 3.8 0
v 1.1 3.7 0
v 1.1 3.8 0
v 1.3 1.5 0
v 1.3 1.7 0
v 1.4 1.7 0
v 1.4 2.2 0
v 0.8 1.5 -0.1
v 0.8 1.6 -0.1
v 1.2 1.6 -0.1
v 1.2 1.8 -0.1
v 1.3 1.5 -0.1
v 1.3 1.7 -0.1
v 1.3 1.8 -0.1
v 1.3 2.5 -0.1
v 1.3 2.7 -0.1
v 1.3 2.9 -0.1
v 1.4 1.7 -0.1
v 1.4 2.5 -0.1
v 1.4 2.7 -0.1
v 1.4 2.9 -0.1
v 0.6 1.8 -0.2
v 0.6 1.9 -0.2
v 0.7 1.6 -0.2
v 0.7 1.8 -0.2
v 1.1 3.3 -0.2
v 1.1 3.5 -0.2
v 1.1 3.6 -0.2
v 1.2 1.6 -0.2
v 1.2 1.8 -0.2
v 1.2 1.9 -0.2
v 1.2 2.2 -0.2
v 1.2 3.3 -0.2
v 1.2 3.5 -0.2
v 1.2 3.6 -0.2
v 1.3 1.8 -0.2
v 1.3 2.2 -0.2
v 0.5 2 -0.3
v 0.5 2.1 -0.3
v 0.6 1.9 -0.3
v 0.6 2 -0.3
v 0.6 2.1 -0.3
v 1.1 2.1 -0.3
v 1.1 2.4 -0.3
v 1.2 1.9 -0.3
v 1.2 2.2 -0.3
v 1.2 2.4 -0.3
v 1.2 3.1 -0.3
v 1.3 2.2 -0.3
v 1.3 3.1 -0.3
v 0.4 2.2 -0.4
v 0.4 2.4 -0.4
v 0.5 2.1 -0.4
v 0.5 2.2 -0.4
v 0.6 2.1 -0.4
v 0.6 2.4 -0.4
v 1.1 2.1 -0.4
v 1.1 2.4 -0.4
v 1.1 3.3 -0.4
v 1.2 2.4 -0.4
v 1.2 3.3 -0.4
v 0.3 2.4 -0.5
v 0.3 2.5 -0.5
v 0.6 2.4 -0.5
v 0.6 2.5 -0.5
v 0.8 2.5 -0.5
v 0.8 2.7 -0.5
v 1 2.7 -0.5
v 1 3.8 -0.5
v 1.1 2.4 -0.5
v 1.1 3.8 -0.5
v 0.3 2.5 -0.6
v 0.3 2.7 -0.6
v 0.5 2.6 -0.6
v 0.5 2.7 -0.6
v 0.6 2.5 -0.6
v 0.6 2.6 -0.6
v 0.8 2.5 -0.6
v 0.8 2.7 -0.6
v 0.8 3 -0.6
v 0.9 3 -0.6
v 0.9 3.2 -0.6
v 1 2.7 -0.6
v 1 3.2 -0.6
v 0.3 2.7 -0.7
v 0.3 2.9 -0.7
v 0.4 2.9 -0.7
v 0.5 2.7 -0.7
v 0.5 2.9 -0.7
v 0.7 2.9 -0.7
v 0.7 3.2 -0.7
v 0.8 2.7 -0.7
v 0.8 3 -0.7
v 0.9 3 -0.7
v 0.9 3.2 -0.7
v 0.9 3.8 -0.7
v 1 3.2 -0.7
v 1 3.8 -0.7
v 0.3 2.9 -0.8
v 0.3 3.1 -0.8
v 0.4 2.9 -0.8
v 0.4 3.1 -0.8
v 0.4 3.3 -0.8
v 0.7 2.9 -0.8
v 0.7 3.2 -0.8
v 0.7 3.3 -0.8
v 0.7 3.8 -0.8
v 0.9 3.2 -0.8
v 0.9 3.8 -0.8
v 0.3 3.1 -0.9
v 0.3 3.3 -0.9
v 0.4 3.1 -0.9
v 0.4 3.3 -0.9
v 0.4 3.4 -0.9
v 0.4 3.6 -0.9
v 0.6 3.6 -0.9
v 0.6 3.8 -0.9
v 0.7 3.3 -0.9
v 0.7 3.8 -0.9
v 0.3 3.3 -1
v 0.3 3.4 -1
v 0.3 3.7 -1
v 0.4 3.3 -1
v 0.4 3.4 -1
v 0.4 3.6 -1
v 0.5 3.7 -1
v 0.5 3.8 -1
v 0.6 3.6 -1
v 0.6 3.8 -1
v 0.3 3.7 -1.1
v 0.3 3.8 -1.1
v 0.5 3.7 -1.1
v 0.5 3.8 -1.1
v 0.8 1.5 0
v 1.3 1.5 0
v 0.8 1.5 -0.1
v 1.3 1.5 -0.1
v 0.7 1.6 0
v 0.8 1.6 0
v 0.8 1.6 -0.1
v 1.2 1.6 -0.1
v 0.7 1.6 -0.2
v 1.2 1.6 -0.2
v 1.3 1.7 0
v 1.4 1.7 0
v 1.3 1.7 -0.1
v 1.4 1.7 -0.1
v 0.6 1.8 0
v 0.7 1.8 0
v 1.2 1.8 -0.1
v 1.3 1.8 -0.1
v 0.6 1.8 -0.2
v 0.7 1.8 -0.2
v 1.2 1.8 -0.2
v 1.3 1.8 -0.2
v 0.6 1.9 -0.2
v 1.2 1.9 -0.2
v 0.6 1.9 -0.3
v 1.2 1.9 -0.3
v 0.5 2 0
v 0.6 2 0
v 0.5 2 -0.3
v 0.6 2 -0.3
v 0.5 2.1 -0.3
v 0.6 2.1 -0.3
v 1.1 2.1 -0.3
v 0.5 2.1 -0.4
v 0.6 2.1 -0.4
v 1.1 2.1 -0.4
v 0.7 2.2 0.5
v 1.2 2.2 0.5
v 0.6 2.2 0.4
v 0.7 2.2 0.4
v 1.2 2.2 0.4
v 1.3 2.2 0.4
v 0.4 2.2 0.3
v 0.5 2.2 0.3
v 0.6 2.2 0.3
v 1.3 2.2 0.3
v 1.4 2.2 0.3
v 0.5 2.2 0
v 1.4 2.2 0
v 1.2 2.2 -0.2
v 1.3 2.2 -0.2
v 0.5 2.2 -0.3
v 1.2 2.2 -0.3
v 1.3 2.2 -0.3
v 0.4 2.2 -0.4
v 0.5 2.2 -0.4
v 0.4 2.3 0.4
v 0.6 2.3 0.4
v 0.4 2.3 0.3
v 0.5 2.3 0.3
v 0.6 2.3 0.3
v 0.5 2.4 0.5
v 0.7 2.4 0.5
v 0.3 2.4 0.4
v 0.4 2.4 0.4
v 0.5 2.4 0.4
v 0.7 2.4 0.4
v 0.4 2.4 0.3
v 1.1 2.4 -0.3
v 1.2 2.4 -0.3
v 0.4 2.4 -0.4
v 0.6 2.4 -0.4
v 1.1 2.4 -0.4
v 1.2 2.4 -0.4
v 0.3 2.4 -0.5
v 0.6 2.4 -0.5
v 1.1 2.4 -0.5
v 0.3 2.5 -0.5
v 0.6 2.5 -0.5
v 0.8 2.5 -0.5
v 0.3 2.5 -0.6
v 0.6 2.5 -0.6
v 0.8 2.5 -0.6
v 0.6 2.6 0.6
v 0.9 2.6 0.6
v 1 2.6 0.6
v 0.6 2.6 0.5
v 0.9 2.6 0.5
v 1 2.6 0.5
v 0.3 2.7 0.5
v 0.5 2.7 0.5
v 0.3 2.7 0.4
v 0.4 2.7 0.4
v 0.5 2.7 0.4
v 0.8 2.7 -0.5
v 1 2.7 -0.5
v 0.3 2.7 -0.6
v 0.5 2.7 -0.6
v 0.8 2.7 -0.6
v 1 2.7 -0.6
v 0.3 2.7 -0.7
v 0.5 2.7 -0.7
v 0.8 2.7 -0.7
v 0.3 2.9 -0.7
v 0.4 2.9 -0.7
v 0.5 2.9 -0.7
v 0.7 2.9 -0.7
v 0.3 2.9 -0.8
v 0.4 2.9 -0.8
v 0.7 2.9 -0.8
v 0.3 3 0.6
v 0.6 3 0.6
v 0.3 3 0.5
v 0.6 3 0.5
v 0.8 3 -0.6
v 0.9 3 -0.6
v 0.8 3 -0.7
v 0.9 3 -0.7
v 0.3 3.1 0.7
v 0.7 3.1 0.7
v 0.3 3.1 0.6
v 0.7 3.1 0.6
v 0.3 3.1 -0.8
v 0.4 3.1 -0.8
v 0.3 3.1 -0.9
v 0.4 3.1 -0.9
v 0.3 3.2 0.8
v 0.5 3.2 0.8
v 0.3 3.2 0.7
v 0.5 3.2 0.7
v 0.9 3.2 -0.6
v 1 3.2 -0.6
v 0.7 3.2 -0.7
v 0.9 3.2 -0.7
v 1 3.2 -0.7
v 0.7 3.2 -0.8
v 0.9 3.2 -0.8
v 0.4 3.3 -0.8
v 0.7 3.3 -0.8
v 0.3 3.3 -0.9
v 0.4 3.3 -0.9
v 0.7 3.3 -0.9
v 0.3 3.3 -1
v 0.4 3.3 -1
v 0.4 3.6 -0.9
v 0.6 3.6 -0.9
v 0.4 3.6 -1
v 0.6 3.6 -1
v 0.3 3.7 -1
v 0.5 3.7 -1
v 0.3 3.7 -1.1
v 0.5 3.7 -1.1
v 1.3 2.9 0.3
v 1.4 2.9 0.3
v 1.3 2.9 -0.1
v 1.4 2.9 -0.1
v 0.9 3.1 0.6
v 1 3.1 0.6
v 0.9 3.1 0.5
v 1 3.1 0.5
v 1.1 3.1 0.5
v 1.2 3.1 0.5
v 1.1 3.1 0.4
v 1.2 3.1 0.4
v 1.3 3.1 0.4
v 1.2 3.1 -0.3
v 1.3 3.1 -0.3
v 1.1 3.3 -0.2
v 1.2 3.3 -0.2
v 1.1 3.3 -0.4
v 1.2 3.3 -0.4
v 1.1 3.6 0.4
v 1.2 3.6 0.4
v 1.1 3.6 0
v 1.2 3.6 0
v 1.1 3.6 -0.2
v 1.2 3.6 -0.2
v 0.3 3.7 0.8
v 0.5 3.7 0.8
v 0.3 3.7 0.7
v 0.5 3.7 0.7
v 0.7 3.7 0.6
v 0.9 3.7 0.6
v 0.7 3.7 0.5
v 0.9 3.7 0.5
v 1.1 3.7 0.5
v 0.9 3.7 0.4
v 1 3.7 0.4
v 1 3.7 0
v 1.1 3.7 0
v 0.3 3.8 0.7
v 0.7 3.8 0.7
v 0.7 3.8 0.5
v 0.9 3.8 0.5
v 0.9 3.8 0.4
v 1 3.8 0.4
v 1 3.8 0
v 1.1 3.8 0
v 1 3.8 -0.4
v 1.1 3.8 -0.4
v 1 3.8 -0.5
v 1.1 3.8 -0.5
v 0.9 3.8 -0.7
v 1 3.8 -0.7
v 0.7 3.8 -0.8
v 0.9 3.8 -0.8
v 0.6 3.8 -0.9
v 0.7 3.8 -0.9
v 0.5 3.8 -1
v 0.6 3.8 -1
v 0.3 3.8 -1.1
v 0.5 3.8 -1.1

# faces
f 3/3/1 2/3/1 1/3/1
f 4/3/1 2/3/1 3/3/1
f 5/3/1 2/3/1 4/3/1
f 6/3/1 2/3/1 5/3/1
f 8/3/1 3/3/1 1/3/1
f 9/2/1 4/2/1 3/2/1
f 9/3/1 3/3/1 8/3/1
f 10/3/1 5/3/1 4/3/1
f 10/2/1 4/2/1 9/2/1
f 11/2/1 6/2/1 5/2/1
f 11/3/1 5/3/1 10/3/1
f 13/3/1 8/3/1 1/3/1
f 14/3/1 7/3/1 6/3/1
f 14/2/1 6/2/1 11/2/1
f 14/2/1 9/2/1 8/2/1
f 14/2/1 10/2/1 9/2/1
f 14/2/1 11/2/1 10/2/1
f 15/3/1 7/3/1 14/3/1
f 17/2/1 13/2/1 12/2/1
f 17/3/1 8/3/1 13/3/1
f 18/2/1 15/2/1 14/2/1
f 18/3/1 8/3/1 17/3/1
f 18/2/1 14/2/1 8/2/1
f 19/3/1 16/3/1 15/3/1
f 19/2/1 15/2/1 18/2/1
f 19/2/1 18/2/1 17/2/1
f 20/3/1 16/3/1 19/3/1
f 23/2/1 17/2/1 12/2/1
f 23/2/1 19/2/1 17/2/1
f 23/2/1 20/2/1 19/2/1
f 25/2/1 23/2/1 22/2/1
f 26/3/1 21/3/1 20/3/1
f 26/2/1 20/2/1 23/2/1
f 26/2/1 23/2/1 25/2/1
f 27/3/1 21/3/1 26/3/1
f 30/2/1 25/2/1 24/2/1
f 30/2/1 26/2/1 25/2/1
f 30/2/1 27/2/1 26/2/1
f 31/3/1 28/3/1 27/3/1
f 33/2/1 30/2/1 29/2/1
f 33/3/1 32/3/1 31/3/1
f 33/3/1 31/3/1 27/3/1
f 33/2/1 27/2/1 30/2/1
f 34/3/1 32/3/1 33/3/1
f 35/2/1 33/2/1 29/2/1
f 35/2/1 34/2/1 33/2/1
f 36/2/1 34/2/1 35/2/1
f 37/2/1 34/2/1 36/2/1
f 39/2/1 37/2/1 36/2/1
f 39/2/1 38/2/1 37/2/1
f 40/2/1 38/2/1 39/2/1
f 44/3/1 42/3/1 41/3/1
f 45/2/1 44/2/1 43/2/1
f 46/3/1 42/3/1 44/3/1
f 46/2/1 44/2/1 45/2/1
f 47/3/1 42/3/1 46/3/1
f 50/2/1 49/2/1 48/2/1
f 52/2/1 50/2/1 48/2/1
f 53/3/1 51/3/1 50/3/1
f 53/2/1 50/2/1 52/2/1
f 54/3/1 51/3/1 53/3/1
f 57/2/1 56/2/1 55/2/1
f 58/2/1 56/2/1 57/2/1
f 61/2/1 60/2/1 59/2/1
f 63/2/1 61/2/1 59/2/1
f 63/2/1 62/2/1 61/2/1
f 64/2/1 62/2/1 63/2/1
f 67/2/1 66/2/1 65/2/1
f 68/2/1 66/2/1 67/2/1
f 71/2/1 70/2/1 69/2/1
f 72/2/1 70/2/1 71/2/1
f 75/2/1 74/2/1 73/2/1
f 76/2/1 74/2/1 75/2/1
f 79/2/1 78/2/1 77/2/1
f 80/2/1 78/2/1 79/2/1
f 83/2/1 82/2/1 81/2/1
f 84/2/1 82/2/1 83/2/1
f 85/3/2 86/3/2 87/3/2
f 87/3/2 86/3/2 88/3/2
f 88/3/2 89/3/2 90/3/2
f 90/3/2 89/3/2 91/3/2
f 90/2/2 91/2/2 92/2/2
f 92/2/2 91/2/2 93/2/2
f 94/2/2 95/2/2 96/2/2
f 96/2/2 95/2/2 97/2/2
f 98/2/2 99/2/2 100/2/2
f 100/2/2 99/2/2 101/2/2
f 102/2/2 103/2/2 104/2/2
f 104/2/2 103/2/2 105/2/2
f 106/2/2 107/2/2 110/2/2
f 110/2/2 107/2/2 111/2/2
f 108/2/2 109/2/2 112/2/2
f 108/2/2 112/2/2 115/2/2
f 115/2/2 112/2/2 116/2/2
f 115/1/2 116/1/2 117/1/2
f 117/1/2 116/1/2 118/1/2
f 117/2/2 118/2/2 120/2/2
f 118/2/2 119/2/2 120/2/2
f 120/2/2 119/2/2 121/2/2
f 113/2/2 114/2/2 122/2/2
f 122/2/2 114/2/2 123/2/2
f 124/2/2 125/2/2 126/2/2
f 126/2/2 125/2/2 127/2/2
f 127/2/2 128/2/2 129/2/2
f 129/2/2 128/2/2 130/2/2
f 131/2/2 132/2/2 135/2/2
f 135/2/2 132/2/2 136/2/2
f 133/2/2 134/2/2 138/2/2
f 138/2/2 134/2/2 139/2/2
f 138/1/2 139/1/2 140/1/2
f 140/1/2 139/1/2 141/1/2
f 141/2/2 142/2/2 143/2/2
f 143/2/2 142/2/2 144/2/2
f 136/2/2 137/2/2 145/2/2
f 145/2/2 137/2/2 146/2/2
f 147/1/2 148/1/2 151/1/2
f 151/1/2 148/1/2 152/1/2
f 151/2/2 152/2/2 153/2/2
f 153/2/2 152/2/2 154/2/2
f 149/2/2 150/2/2 155/2/2
f 157/2/2 158/2/2 159/2/2
f 159/2/2 158/2/2 160/2/2
f 149/2/2 155/2/2 161/2/2
f 155/2/2 156/2/2 161/2/2
f 161/2/2 156/2/2 162/2/2
f 163/2/2 164/2/2 165/2/2
f 165/2/2 164/2/2 166/2/2
f 166/2/2 167/2/2 171/2/2
f 170/2/2 171/2/2 172/2/2
f 171/2/2 167/2/2 173/2/2
f 172/2/2 171/2/2 173/2/2
f 168/2/2 169/2/2 174/2/2
f 172/1/2 173/1/2 176/1/2
f 174/2/2 175/2/2 177/2/2
f 168/2/2 174/2/2 177/2/2
f 175/1/2 176/1/2 178/1/2
f 177/2/2 175/2/2 178/2/2
f 178/1/2 176/1/2 179/1/2
f 173/2/2 167/2/2 180/2/2
f 179/1/2 176/1/2 180/1/2
f 176/1/2 173/1/2 180/1/2
f 180/2/2 167/2/2 181/2/2
f 182/2/2 183/2/2 184/2/2
f 184/2/2 183/2/2 185/2/2
f 186/2/2 187/2/2 190/2/2
f 190/2/2 187/2/2 191/2/2
f 188/2/2 189/2/2 194/2/2
f 194/2/2 189/2/2 195/2/2
f 192/2/2 193/2/2 196/2/2
f 195/2/2 196/2/2 197/2/2
f 196/2/2 193/2/2 198/2/2
f 197/2/2 196/2/2 198/2/2
f 195/2/2 197/2/2 199/2/2
f 199/2/2 197/2/2 200/2/2
f 195/2/2 199/2/2 201/2/2
f 199/1/2 200/1/2 202/1/2
f 201/2/2 199/2/2 202/2/2
f 202/1/2 200/1/2 203/1/2
f 204/2/2 205/2/2 206/2/2
f 206/2/2 205/2/2 207/2/2
f 208/2/2 209/2/2 212/2/2
f 208/2/2 212/2/2 214/2/2
f 212/2/2 213/2/2 214/2/2
f 214/2/2 213/2/2 215/2/2
f 214/1/2 215/1/2 216/1/2
f 215/2/2 213/2/2 217/2/2
f 216/1/2 215/1/2 217/1/2
f 210/2/2 211/2/2 218/2/2
f 216/2/2 217/2/2 219/2/2
f 210/2/2 218/2/2 220/2/2
f 218/2/2 219/2/2 220/2/2
f 217/2/2 213/2/2 221/2/2
f 220/2/2 219/2/2 221/2/2
f 219/2/2 217/2/2 221/2/2
f 222/2/2 223/2/2 225/2/2
f 225/2/2 223/2/2 226/2/2
f 224/2/2 225/2/2 226/2/2
f 226/2/2 223/2/2 227/2/2
f 224/2/2 226/2/2 228/2/2
f 226/1/2 227/1/2 228/1/2
f 228/1/2 227/1/2 229/1/2
f 224/2/2 228/2/2 230/2/2
f 228/2/2 229/2/2 230/2/2
f 230/2/2 229/2/2 231/2/2
f 234/2/3 233/2/3 232/2/3
f 235/2/3 233/2/3 234/2/3
f 240/2/3 237/2/3 236/2/3
f 241/2/3 239/2/3 238/2/3
f 242/2/3 241/2/3 240/2/3
f 243/2/3 239/2/3 241/2/3
f 243/2/3 241/2/3 242/2/3
f 244/2/3 240/2/3 236/2/3
f 244/2/3 242/2/3 240/2/3
f 245/1/3 243/1/3 242/1/3
f 245/2/3 242/2/3 244/2/3
f 246/2/3 239/2/3 243/2/3
f 246/1/3 243/1/3 245/1/3
f 247/2/3 239/2/3 246/2/3
f 251/2/3 249/2/3 248/2/3
f 252/2/3 249/2/3 251/2/3
f 252/2/3 251/2/3 250/2/3
f 256/2/3 253/2/3 252/2/3
f 256/1/3 255/1/3 254/1/3
f 256/1/3 254/1/3 253/1/3
f 257/1/3 255/1/3 256/1/3
f 258/2/3 252/2/3 250/2/3
f 258/2/3 256/2/3 252/2/3
f 258/2/3 257/2/3 256/2/3
f 259/2/3 257/2/3 258/2/3
f 260/2/3 257/2/3 259/2/3
f 261/1/3 255/1/3 257/1/3
f 261/2/3 257/2/3 260/2/3
f 262/1/3 255/1/3 261/1/3
f 263/1/3 259/1/3 258/1/3
f 264/2/3 260/2/3 259/2/3
f 264/1/3 259/1/3 263/1/3
f 265/2/3 260/2/3 264/2/3
f 269/2/3 267/2/3 266/2/3
f 270/2/3 269/2/3 268/2/3
f 271/2/3 267/2/3 269/2/3
f 271/2/3 269/2/3 270/2/3
f 273/2/3 270/2/3 268/2/3
f 276/2/3 273/2/3 272/2/3
f 276/2/3 270/2/3 273/2/3
f 279/2/3 275/2/3 274/2/3
f 280/2/3 275/2/3 279/2/3
f 281/2/3 276/2/3 272/2/3
f 283/2/3 278/2/3 277/2/3
f 283/2/3 279/2/3 278/2/3
f 284/1/3 282/1/3 281/1/3
f 284/2/3 281/2/3 272/2/3
f 285/2/3 283/2/3 282/2/3
f 285/1/3 282/1/3 284/1/3
f 286/2/3 279/2/3 283/2/3
f 286/2/3 283/2/3 285/2/3
f 287/2/3 279/2/3 286/2/3
f 288/2/3 284/2/3 272/2/3
f 288/2/3 285/2/3 284/2/3
f 288/2/3 286/2/3 285/2/3
f 289/2/3 286/2/3 288/2/3
f 293/3/3 291/3/3 290/3/3
f 294/3/3 291/3/3 293/3/3
f 295/2/3 293/2/3 292/2/3
f 295/2/3 294/2/3 293/2/3
f 296/2/3 294/2/3 295/2/3
f 298/2/3 295/2/3 292/2/3
f 299/2/3 298/2/3 297/2/3
f 300/2/3 295/2/3 298/2/3
f 300/2/3 298/2/3 299/2/3
f 303/2/3 302/2/3 301/2/3
f 304/2/3 302/2/3 303/2/3
f 308/2/3 306/2/3 305/2/3
f 309/2/3 306/2/3 308/2/3
f 310/2/3 308/2/3 307/2/3
f 311/2/3 308/2/3 310/2/3
f 314/3/3 313/3/3 312/3/3
f 315/3/3 313/3/3 314/3/3
f 316/2/3 315/2/3 314/2/3
f 317/2/3 315/2/3 316/2/3
f 320/2/3 319/2/3 318/2/3
f 321/2/3 319/2/3 320/2/3
f 325/2/3 323/2/3 322/2/3
f 327/2/3 325/2/3 324/2/3
f 329/2/3 327/2/3 326/2/3
f 332/1/3 331/1/3 330/1/3
f 333/1/3 331/1/3 332/1/3
f 334/2/3 329/2/3 328/2/3
f 335/2/3 327/2/3 329/2/3
f 335/2/3 329/2/3 334/2/3
f 336/2/3 327/2/3 335/2/3
f 337/2/3 323/2/3 325/2/3
f 337/2/3 327/2/3 336/2/3
f 337/2/3 325/2/3 327/2/3
f 338/2/4 339/2/4 340/2/4
f 338/2/4 340/2/4 342/2/4
f 340/2/4 341/2/4 342/2/4
f 342/2/4 341/2/4 343/2/4
f 343/2/4 341/2/4 344/2/4
f 343/2/4 344/2/4 348/2/4
f 344/2/4 345/2/4 348/2/4
f 345/1/4 346/1/4 349/1/4
f 348/2/4 345/2/4 349/2/4
f 346/2/4 347/2/4 350/2/4
f 349/1/4 346/1/4 350/1/4
f 350/2/4 347/2/4 351/2/4
f 352/2/4 353/2/4 355/2/4
f 354/2/4 355/2/4 359/2/4
f 355/2/4 353/2/4 360/2/4
f 359/2/4 355/2/4 360/2/4
f 360/2/4 353/2/4 361/2/4
f 356/2/4 357/2/4 363/2/4
f 357/1/4 358/1/4 364/1/4
f 363/2/4 357/2/4 364/2/4
f 364/1/4 358/1/4 365/1/4
f 361/2/4 362/2/4 366/2/4
f 360/2/4 361/2/4 366/2/4
f 366/2/4 362/2/4 367/2/4
f 368/2/4 369/2/4 371/2/4
f 371/2/4 369/2/4 372/2/4
f 370/2/4 371/2/4 373/2/4
f 371/2/4 372/2/4 373/2/4
f 370/2/4 373/2/4 375/2/4
f 373/2/4 374/2/4 375/2/4
f 375/2/4 374/2/4 376/2/4
f 376/2/4 374/2/4 377/2/4
f 377/2/4 378/2/4 379/2/4
f 376/2/4 377/2/4 379/2/4
f 379/2/4 378/2/4 380/2/4
f 381/3/4 382/3/4 384/3/4
f 383/3/4 384/3/4 385/3/4
f 384/3/4 382/3/4 386/3/4
f 385/3/4 384/3/4 386/3/4
f 385/2/4 386/2/4 387/2/4
f 387/2/4 386/2/4 388/2/4
f 388/2/4 389/2/4 390/2/4
f 390/2/4 389/2/4 391/2/4
f 392/3/4 393/3/4 394/3/4
f 394/3/4 393/3/4 395/3/4
f 394/2/4 395/2/4 396/2/4
f 396/2/4 397/2/4 398/2/4
f 394/2/4 396/2/4 400/2/4
f 398/2/4 399/2/4 400/2/4
f 396/2/4 398/2/4 400/2/4
f 400/2/4 399/2/4 401/2/4
f 402/3/4 403/3/4 404/3/4
f 404/3/4 403/3/4 405/3/4
f 402/3/4 404/3/4 406/3/4
f 404/2/4 405/2/4 407/2/4
f 406/3/4 404/3/4 407/3/4
f 406/2/4 407/2/4 408/2/4
f 407/2/4 405/2/4 409/2/4
f 408/2/4 407/2/4 409/2/4
f 409/2/4 410/2/4 411/2/4
f 409/2/4 411/2/4 413/2/4
f 411/2/4 412/2/4 413/2/4
f 413/2/4 412/2/4 414/2/4
f 415/3/4 416/3/4 417/3/4
f 415/3/4 417/3/4 418/3/4
f 418/3/4 417/3/4 419/3/4
f 418/2/4 419/2/4 420/2/4
f 418/2/4 420/2/4 422/2/4
f 420/2/4 421/2/4 422/2/4
f 422/2/4 421/2/4 423/2/4
f 423/2/4 421/2/4 424/2/4
f 424/2/4 421/2/4 425/2/4
f 425/2/4 426/2/4 427/2/4
f 427/2/4 426/2/4 428/2/4
f 429/3/4 430/3/4 431/3/4
f 431/3/4 430/3/4 432/3/4
f 431/2/4 432/2/4 434/2/4
f 432/2/4 433/2/4 434/2/4
f 434/2/4 433/2/4 435/2/4
f 435/2/4 433/2/4 436/2/4
f 436/2/4 437/2/4 438/2/4
f 435/2/4 436/2/4 438/2/4
f 438/2/4 437/2/4 439/2/4
f 440/3/4 441/3/4 442/3/4
f 442/3/4 441/3/4 443/3/4
f 444/2/4 445/2/4 446/2/4
f 443/2/4 444/2/4 446/2/4
f 443/2/4 446/2/4 448/2/4
f 446/2/4 447/2/4 448/2/4
f 448/2/4 447/2/4 449/2/4
f 450/3/4 451/3/4 453/3/4
f 451/2/4 452/2/4 454/2/4
f 453/3/4 451/3/4 454/3/4
f 454/2/4 452/2/4 455/2/4
f 455/2/4 452/2/4 456/2/4
f 455/2/4 456/2/4 458/2/4
f 456/2/4 457/2/4 458/2/4
f 458/2/4 457/2/4 459/2/4
f 460/2/4 461/2/4 462/2/4
f 462/2/4 461/2/4 463/2/4
f 466/2/5 465/2/5 464/2/5
f 467/2/5 465/2/5 466/2/5
f 470/2/5 469/2/5 468/2/5
f 472/2/5 470/2/5 468/2/5
f 472/2/5 471/2/5 470/2/5
f 473/2/5 471/2/5 472/2/5
f 476/2/5 475/2/5 474/2/5
f 477/2/5 475/2/5 476/2/5
f 482/2/5 479/2/5 478/2/5
f 483/2/5 479/2/5 482/2/5
f 484/2/5 481/2/5 480/2/5
f 485/2/5 481/2/5 484/2/5
f 488/2/5 487/2/5 486/2/5
f 489/2/5 487/2/5 488/2/5
f 492/2/5 491/2/5 490/2/5
f 493/2/5 491/2/5 492/2/5
f 497/3/5 495/3/5 494/3/5
f 498/2/5 496/2/5 495/2/5
f 498/3/5 495/3/5 497/3/5
f 499/2/5 496/2/5 498/2/5
f 503/2/5 501/2/5 500/2/5
f 504/2/5 501/2/5 503/2/5
f 508/2/5 503/2/5 502/2/5
f 508/2/5 504/2/5 503/2/5
f 508/2/5 505/2/5 504/2/5
f 509/2/5 505/2/5 508/2/5
f 511/3/5 507/3/5 506/3/5
f 511/2/5 510/2/5 509/2/5
f 511/2/5 509/2/5 508/2/5
f 511/2/5 508/2/5 507/2/5
f 512/2/5 510/2/5 511/2/5
f 515/3/5 511/3/5 506/3/5
f 516/2/5 514/2/5 513/2/5
f 517/2/5 514/2/5 516/2/5
f 518/3/5 515/3/5 506/3/5
f 519/3/5 515/3/5 518/3/5
f 522/2/5 521/2/5 520/2/5
f 523/2/5 521/2/5 522/2/5
f 524/2/5 521/2/5 523/2/5
f 529/2/5 526/2/5 525/2/5
f 530/2/5 526/2/5 529/2/5
f 531/3/5 528/3/5 527/3/5
f 534/3/5 531/3/5 527/3/5
f 536/2/5 533/2/5 532/2/5
f 537/2/5 533/2/5 536/2/5
f 538/3/5 535/3/5 534/3/5
f 538/3/5 534/3/5 527/3/5
f 539/2/5 536/2/5 535/2/5
f 539/3/5 535/3/5 538/3/5
f 540/2/5 536/2/5 539/2/5
f 544/3/5 542/3/5 541/3/5
f 545/2/5 543/2/5 542/2/5
f 545/3/5 542/3/5 544/3/5
f 546/2/5 543/2/5 545/2/5
f 550/2/5 548/2/5 547/2/5
f 551/1/5 549/1/5 548/1/5
f 551/2/5 548/2/5 550/2/5
f 552/1/5 549/1/5 551/1/5
f 555/2/5 554/2/5 553/2/5
f 556/2/5 554/2/5 555/2/5
f 557/2/5 554/2/5 556/2/5
f 562/2/5 559/2/5 558/2/5
f 563/2/5 559/2/5 562/2/5
f 564/3/5 561/3/5 560/3/5
f 565/2/5 562/2/5 561/2/5
f 565/3/5 561/3/5 564/3/5
f 566/2/5 562/2/5 565/2/5
f 571/3/5 568/3/5 567/3/5
f 572/2/5 570/2/5 569/2/5
f 572/3/5 568/3/5 571/3/5
f 572/2/5 569/2/5 568/2/5
f 573/2/5 570/2/5 572/2/5
f 576/2/5 575/2/5 574/2/5
f 577/2/5 575/2/5 576/2/5
f 580/2/5 579/2/5 578/2/5
f 581/2/5 579/2/5 580/2/5
f 584/2/5 583/2/5 582/2/5
f 585/2/5 583/2/5 584/2/5
f 588/3/5 587/3/5 586/3/5
f 589/3/5 587/3/5 588/3/5
f 592/2/5 591/2/5 590/2/5
f 593/2/5 591/2/5 592/2/5
f 597/2/5 595/2/5 594/2/5
f 598/2/5 595/2/5 597/2/5
f 599/2/5 597/2/5 596/2/5
f 600/2/5 597/2/5 599/2/5
f 604/2/5 602/2/5 601/2/5
f 605/2/5 602/2/5 604/2/5
f 606/3/5 604/3/5 603/3/5
f 607/3/5 604/3/5 606/3/5
f 610/2/5 609/2/5 608/2/5
f 611/2/5 609/2/5 610/2/5
f 614/2/5 613/2/5 612/2/5
f 615/2/5 613/2/5 614/2/5
f 616/2/6 617/2/6 618/2/6
f 618/2/6 617/2/6 619/2/6
f 620/2/6 621/2/6 622/2/6
f 622/2/6 621/2/6 623/2/6
f 624/2/6 625/2/6 626/2/6
f 626/2/6 625/2/6 627/2/6
f 627/2/6 628/2/6 629/2/6
f 629/2/6 628/2/6 630/2/6
f 631/2/6 632/2/6 633/2/6
f 633/2/6 632/2/6 634/2/6
f 635/2/6 636/2/6 637/2/6
f 637/2/6 636/2/6 638/2/6
f 637/1/6 638/1/6 639/1/6
f 639/1/6 638/1/6 640/1/6
f 641/2/6 642/2/6 643/2/6
f 643/2/6 642/2/6 644/2/6
f 645/1/6 646/1/6 647/1/6
f 647/1/6 646/1/6 648/1/6
f 648/2/6 649/2/6 650/2/6
f 650/2/6 649/2/6 651/2/6
f 651/2/6 649/2/6 652/2/6
f 652/2/6 649/2/6 653/2/6
f 654/2/6 655/2/6 656/2/6
f 656/2/6 657/2/6 658/2/6
f 658/2/6 659/2/6 660/2/6
f 658/2/6 660/2/6 662/2/6
f 660/1/6 661/1/6 662/1/6
f 662/1/6 661/1/6 663/1/6
f 658/2/6 662/2/6 664/2/6
f 662/2/6 663/2/6 664/2/6
f 664/2/6 663/2/6 665/2/6
f 656/2/6 658/2/6 666/2/6
f 658/2/6 664/2/6 666/2/6
f 666/2/6 664/2/6 667/2/6
f 654/2/6 656/2/6 668/2/6
f 656/2/6 666/2/6 668/2/6
f 668/2/6 666/2/6 669/2/6
f 654/2/6 668/2/6 670/2/6
f 670/2/6 668/2/6 671/2/6
f 654/2/6 670/2/6 672/2/6
f 672/2/6 670/2/6 673/2/6
f 654/2/6 672/2/6 674/2/6
f 674/2/6 672/2/6 675/2/6
