# MagicaVoxel @ Ephtracy

# group
o 

# material
mtllib demon-3.mtl
usemtl palette

# normals
vn -1 0 0
vn 1 0 0
vn 0 0 1
vn 0 0 -1
vn 0 -1 0
vn 0 1 0

# texcoords
vt 0.205078 0.5
vt 0.267578 0.5
vt 0.419922 0.5

# verts
v 0.3 0.2 1.3
v 0.3 0.2 1.1
v 0.3 0.2 0.8
v 0.3 0.4 1.3
v 0.3 0.4 1.1
v 0.3 0.4 0.8
v 0.4 0 1.4
v 0.4 0 1
v 0.4 0 0.6
v 0.4 0.1 1.4
v 0.4 0.1 1.3
v 0.4 0.2 1.6
v 0.4 0.2 1.4
v 0.4 0.2 1.3
v 0.4 0.2 1.1
v 0.4 0.2 1
v 0.4 0.2 0.8
v 0.4 0.3 0.8
v 0.4 0.3 0.7
v 0.4 0.3 0.6
v 0.4 0.4 1.3
v 0.4 0.4 1.1
v 0.4 0.4 1
v 0.4 0.4 0.8
v 0.4 0.4 0.7
v 0.4 0.5 1.3
v 0.4 0.5 1
v 0.4 0.6 1.6
v 0.4 0.6 1.3
v 0.5 0 0.6
v 0.5 0 0.4
v 0.5 0.2 0.5
v 0.5 0.2 0.4
v 0.5 0.3 1.7
v 0.5 0.3 1.6
v 0.5 0.3 0.6
v 0.5 0.3 0.5
v 0.5 0.4 1
v 0.5 0.4 0.8
v 0.5 0.5 1.3
v 0.5 0.5 1.1
v 0.5 0.5 1
v 0.5 0.5 0.8
v 0.5 0.6 1.6
v 0.5 0.6 1.3
v 0.5 0.6 1.1
v 0.5 0.7 1.4
v 0.5 0.7 1.3
v 0.5 0.8 1.7
v 0.5 0.8 1.4
v 0.6 0 1.5
v 0.6 0 1.4
v 0.6 0.1 1.6
v 0.6 0.1 1.5
v 0.6 0.1 1.4
v 0.6 0.2 1.6
v 0.6 0.2 1.4
v 0.6 0.3 0.7
v 0.6 0.3 0.6
v 0.6 0.4 1.8
v 0.6 0.4 1.7
v 0.6 0.4 0.7
v 0.6 0.4 0.6
v 0.6 0.5 1.8
v 0.6 0.5 1.7
v 0.6 0.8 1.7
v 0.6 0.8 1.4
v 0.6 1 1.5
v 0.6 1 1.4
v 0.6 1.2 1.8
v 0.6 1.2 1.5
v 0.7 0.2 1.8
v 0.7 0.2 1.7
v 0.7 0.2 1.6
v 0.7 0.3 1.7
v 0.7 0.3 1.6
v 0.7 0.4 1.8
v 0.7 0.4 1.7
v 0.7 0.9 1.9
v 0.7 0.9 1.8
v 0.7 1.2 2
v 0.7 1.2 1.9
v 0.7 1.2 1.8
v 0.7 1.2 1.6
v 0.7 1.4 1.7
v 0.7 1.4 1.6
v 0.7 1.6 2.1
v 0.7 1.6 2
v 0.7 1.8 1.7
v 0.7 1.8 1.6
v 0.7 2 1.9
v 0.7 2 1.6
v 0.7 2.1 2.1
v 0.7 2.1 1.9
v 0.8 0 0.5
v 0.8 0 0.4
v 0.8 0.2 0.5
v 0.8 0.2 0.4
v 0.8 1.2 1.6
v 0.8 1.2 1.5
v 0.8 1.4 2.1
v 0.8 1.4 2
v 0.8 1.4 1.7
v 0.8 1.4 1.6
v 0.8 1.4 1.5
v 0.8 1.6 2.2
v 0.8 1.6 2.1
v 0.8 1.6 2
v 0.8 1.7 1.6
v 0.8 1.7 1.5
v 0.8 1.8 1.7
v 0.8 1.8 1.6
v 0.8 2 1.9
v 0.8 2 1.6
v 0.8 2 1.5
v 0.8 2.1 2.1
v 0.8 2.1 1.9
v 0.8 2.1 1.6
v 0.8 2.2 2.2
v 0.8 2.2 1.9
v 0.9 1.6 1.6
v 0.9 1.6 1.5
v 0.9 1.7 1.6
v 0.9 1.7 1.5
v 0.9 2 1.6
v 0.9 2 1.5
v 0.9 2.1 1.9
v 0.9 2.1 1.6
v 0.9 2.2 1.9
v 0.9 2.2 1.5
v 0.7 0 0.5
v 0.7 0 0.4
v 0.7 0.2 0.5
v 0.7 0.2 0.4
v 0.9 0.2 1.8
v 0.9 0.2 1.7
v 0.9 0.3 0.7
v 0.9 0.3 0.6
v 0.9 0.4 1.8
v 0.9 0.4 1.7
v 0.9 0.4 0.7
v 0.9 0.4 0.6
v 1 0 0.5
v 1 0 0.4
v 1 0.2 0.5
v 1 0.2 0.4
v 1 0.4 1.8
v 1 0.4 1.7
v 1 0.4 1.1
v 1 0.4 0.9
v 1 0.4 0.8
v 1 0.5 1.8
v 1 0.5 1.7
v 1 0.5 1.3
v 1 0.5 1.1
v 1 0.5 0.8
v 1 0.6 1.3
v 1 0.6 1.1
v 1.1 0 0.7
v 1.1 0 0.5
v 1.1 0.3 1.1
v 1.1 0.3 0.9
v 1.1 0.3 0.7
v 1.1 0.3 0.5
v 1.1 0.4 1.1
v 1.1 0.4 0.9
v 1.1 0.4 0.7
v 1.1 0.5 1.4
v 1.1 0.5 1.3
v 1.1 0.7 1.5
v 1.1 0.7 1.4
v 1.1 0.7 1.3
v 1.1 1 1.5
v 1.1 1 1.4
v 1.1 1.1 1.6
v 1.1 1.1 1.5
v 1.1 1.4 1.6
v 1.1 1.4 1.5
v 1.1 2.1 2.2
v 1.1 2.1 1.5
v 1.1 2.2 2.2
v 1.1 2.2 1.5
v 1.2 0 1.5
v 1.2 0 1.4
v 1.2 0 0.9
v 1.2 0 0.7
v 1.2 0.1 1.5
v 1.2 0.1 1.4
v 1.2 0.1 1.2
v 1.2 0.2 1.7
v 1.2 0.2 1.6
v 1.2 0.2 1.2
v 1.2 0.2 1.1
v 1.2 0.3 1.1
v 1.2 0.3 0.9
v 1.2 0.3 0.7
v 1.2 0.4 1.4
v 1.2 0.4 1.2
v 1.2 0.5 1.8
v 1.2 0.5 1.7
v 1.2 0.5 1.6
v 1.2 0.5 1.4
v 1.2 0.5 1.1
v 1.2 0.7 1.5
v 1.2 0.7 1.4
v 1.2 0.9 1.8
v 1.2 0.9 1.7
v 1.2 1.1 1.6
v 1.2 1.1 1.5
v 1.2 1.2 2
v 1.2 1.2 1.9
v 1.2 1.3 1.9
v 1.2 1.3 1.7
v 1.2 1.4 2.1
v 1.2 1.4 2
v 1.2 1.6 2.2
v 1.2 1.6 2.1
v 1.2 1.6 1.6
v 1.2 1.6 1.5
v 1.2 1.7 2
v 1.2 1.7 1.7
v 1.2 1.8 1.7
v 1.2 1.8 1.5
v 1.2 2 2
v 1.2 2 1.5
v 1.2 2.1 2.2
v 1.2 2.1 1.5
v 1.3 0.1 1.6
v 1.3 0.1 1.2
v 1.3 0.4 1.4
v 1.3 0.4 1.2
v 1.3 0.5 1.6
v 1.3 0.5 1.4
v 1.3 0.9 1.9
v 1.3 0.9 1.7
v 1.3 1.3 1.9
v 1.3 1.3 1.7
v 1.3 1.7 2
v 1.3 1.7 1.7
v 1.3 1.8 1.7
v 1.3 1.8 1.5
v 1.3 2 2
v 1.3 2 1.5
v 0.8 1.6 2.2
v 0.8 2.2 2.2
v 1.1 2.1 2.2
v 1.1 2.2 2.2
v 1.2 1.6 2.2
v 1.2 2.1 2.2
v 0.7 1.6 2.1
v 0.7 2.1 2.1
v 0.8 1.4 2.1
v 0.8 1.6 2.1
v 0.8 2.1 2.1
v 1.2 1.4 2.1
v 1.2 1.6 2.1
v 0.7 1.2 2
v 0.7 1.6 2
v 0.8 1.4 2
v 0.8 1.6 2
v 1.2 1.2 2
v 1.2 1.4 2
v 1.2 1.7 2
v 1.2 2 2
v 1.3 1.7 2
v 1.3 2 2
v 0.7 0.9 1.9
v 0.7 1.2 1.9
v 1.2 1.2 1.9
v 1.2 1.3 1.9
v 1.3 0.9 1.9
v 1.3 1.3 1.9
v 0.6 0.4 1.8
v 0.6 0.5 1.8
v 0.6 1.2 1.8
v 0.7 0.2 1.8
v 0.7 0.4 1.8
v 0.7 0.9 1.8
v 0.7 1.2 1.8
v 0.9 0.2 1.8
v 0.9 0.4 1.8
v 1 0.4 1.8
v 1 0.5 1.8
v 1.2 0.5 1.8
v 1.2 0.9 1.8
v 0.5 0.3 1.7
v 0.5 0.8 1.7
v 0.6 0.3 1.7
v 0.6 0.4 1.7
v 0.6 0.5 1.7
v 0.6 0.8 1.7
v 0.7 0.3 1.7
v 0.7 0.4 1.7
v 0.9 0.2 1.7
v 0.9 0.4 1.7
v 1 0.2 1.7
v 1 0.4 1.7
v 1 0.5 1.7
v 1.2 0.2 1.7
v 1.2 0.5 1.7
v 0.4 0.2 1.6
v 0.4 0.6 1.6
v 0.5 0.3 1.6
v 0.5 0.6 1.6
v 0.6 0.1 1.6
v 0.6 0.2 1.6
v 0.6 0.3 1.6
v 0.7 0.2 1.6
v 0.7 0.3 1.6
v 0.9 0.2 1.6
v 1 0.2 1.6
v 1.2 0.2 1.6
v 1.2 0.5 1.6
v 1.3 0.1 1.6
v 1.3 0.5 1.6
v 0.6 0 1.5
v 0.6 0.1 1.5
v 1.2 0 1.5
v 1.2 0.1 1.5
v 0.4 0 1.4
v 0.4 0.1 1.4
v 0.4 0.2 1.4
v 0.6 0 1.4
v 0.6 0.1 1.4
v 0.6 0.2 1.4
v 0.3 0.2 1.3
v 0.3 0.4 1.3
v 0.4 0.2 1.3
v 0.4 0.4 1.3
v 0.7 2 1.9
v 0.7 2.1 1.9
v 0.8 2 1.9
v 0.8 2.1 1.9
v 0.8 2.2 1.9
v 0.9 2.1 1.9
v 0.9 2.2 1.9
v 0.7 1.4 1.7
v 0.7 1.8 1.7
v 0.8 1.4 1.7
v 0.8 1.8 1.7
v 1.2 0.9 1.7
v 1.2 1.3 1.7
v 1.2 1.7 1.7
v 1.2 1.8 1.7
v 1.3 0.9 1.7
v 1.3 1.3 1.7
v 1.3 1.7 1.7
v 1.3 1.8 1.7
v 0.7 1.2 1.6
v 0.7 1.4 1.6
v 0.7 1.8 1.6
v 0.7 2 1.6
v 0.8 1.2 1.6
v 0.8 1.4 1.6
v 0.8 1.7 1.6
v 0.8 1.8 1.6
v 0.8 2 1.6
v 0.8 2.1 1.6
v 0.9 1.6 1.6
v 0.9 1.7 1.6
v 0.9 2 1.6
v 0.9 2.1 1.6
v 1.1 1.1 1.6
v 1.1 1.4 1.6
v 1.2 1.1 1.6
v 1.2 1.6 1.6
v 0.6 1 1.5
v 0.6 1.2 1.5
v 0.8 1.2 1.5
v 0.8 1.4 1.5
v 0.8 1.7 1.5
v 0.8 2 1.5
v 0.9 1.6 1.5
v 0.9 1.7 1.5
v 0.9 2 1.5
v 0.9 2.2 1.5
v 1.1 0.7 1.5
v 1.1 1 1.5
v 1.1 1.1 1.5
v 1.1 1.4 1.5
v 1.1 2.1 1.5
v 1.1 2.2 1.5
v 1.2 0.7 1.5
v 1.2 1.1 1.5
v 1.2 1.6 1.5
v 1.2 1.8 1.5
v 1.2 2 1.5
v 1.2 2.1 1.5
v 1.3 1.8 1.5
v 1.3 2 1.5
v 0.5 0.7 1.4
v 0.5 0.8 1.4
v 0.6 0.8 1.4
v 0.6 1 1.4
v 1.1 0.5 1.4
v 1.1 0.7 1.4
v 1.1 1 1.4
v 1.2 0.4 1.4
v 1.2 0.5 1.4
v 1.2 0.7 1.4
v 1.3 0.4 1.4
v 1.3 0.5 1.4
v 0.4 0.5 1.3
v 0.4 0.6 1.3
v 0.5 0.5 1.3
v 0.5 0.6 1.3
v 0.5 0.7 1.3
v 1 0.5 1.3
v 1 0.6 1.3
v 1.1 0.5 1.3
v 1.1 0.7 1.3
v 1.2 0.1 1.2
v 1.2 0.2 1.2
v 1.2 0.4 1.2
v 1.3 0.1 1.2
v 1.3 0.4 1.2
v 0.5 0.5 1.1
v 0.5 0.6 1.1
v 1 0.4 1.1
v 1 0.5 1.1
v 1 0.6 1.1
v 1.1 0.3 1.1
v 1.1 0.4 1.1
v 1.2 0.3 1.1
v 1.2 0.5 1.1
v 0.4 0.4 1
v 0.4 0.5 1
v 0.5 0.4 1
v 0.5 0.5 1
v 0.3 0.2 0.8
v 0.3 0.4 0.8
v 0.4 0.2 0.8
v 0.4 0.3 0.8
v 0.4 0.4 0.8
v 0.5 0.4 0.8
v 0.5 0.5 0.8
v 0.6 0.4 0.8
v 0.7 0.4 0.8
v 1 0.4 0.8
v 1 0.5 0.8
v 0.4 0.3 0.7
v 0.4 0.4 0.7
v 0.6 0.3 0.7
v 0.6 0.4 0.7
v 0.9 0.3 0.7
v 0.9 0.4 0.7
v 1.1 0 0.7
v 1.1 0.3 0.7
v 1.1 0.4 0.7
v 1.2 0 0.7
v 1.2 0.3 0.7
v 0.4 0 0.6
v 0.4 0.3 0.6
v 0.5 0 0.6
v 0.5 0.3 0.6
v 0.6 0.3 0.6
v 0.6 0.4 0.6
v 0.7 0.3 0.6
v 0.8 0.3 0.6
v 0.9 0.3 0.6
v 0.9 0.4 0.6
v 0.5 0.2 0.5
v 0.5 0.3 0.5
v 0.7 0 0.5
v 0.7 0.2 0.5
v 0.7 0.3 0.5
v 0.8 0 0.5
v 0.8 0.2 0.5
v 0.8 0.3 0.5
v 1 0 0.5
v 1 0.2 0.5
v 1.1 0 0.5
v 1.1 0.3 0.5
v 0.5 0 0.4
v 0.5 0.2 0.4
v 0.7 0 0.4
v 0.7 0.2 0.4
v 0.8 0 0.4
v 0.8 0.2 0.4
v 1 0 0.4
v 1 0.2 0.4
v 0.6 0 1.5
v 1.2 0 1.5
v 0.4 0 1.4
v 0.6 0 1.4
v 1.2 0 1.4
v 0.4 0 1
v 0.5 0 1
v 1.1 0 0.9
v 1.2 0 0.9
v 1 0 0.7
v 1.1 0 0.7
v 1.2 0 0.7
v 0.4 0 0.6
v 0.5 0 0.6
v 0.6 0 0.6
v 0.9 0 0.6
v 1 0 0.6
v 0.6 0 0.5
v 0.7 0 0.5
v 0.8 0 0.5
v 0.9 0 0.5
v 1 0 0.5
v 1.1 0 0.5
v 0.5 0 0.4
v 0.7 0 0.4
v 0.8 0 0.4
v 1 0 0.4
v 0.6 0.1 1.6
v 1.3 0.1 1.6
v 0.6 0.1 1.5
v 1.2 0.1 1.5
v 1.2 0.1 1.4
v 1.2 0.1 1.2
v 1.3 0.1 1.2
v 0.7 0.2 1.8
v 0.9 0.2 1.8
v 0.7 0.2 1.7
v 0.9 0.2 1.7
v 1 0.2 1.7
v 1.2 0.2 1.7
v 0.4 0.2 1.6
v 0.6 0.2 1.6
v 0.7 0.2 1.6
v 0.9 0.2 1.6
v 1 0.2 1.6
v 1.2 0.2 1.6
v 0.4 0.2 1.4
v 0.6 0.2 1.4
v 0.3 0.2 1.3
v 0.4 0.2 1.3
v 0.3 0.2 1.1
v 0.4 0.2 1.1
v 0.4 0.2 1
v 0.3 0.2 0.8
v 0.4 0.2 0.8
v 0.5 0.3 1.7
v 0.6 0.3 1.7
v 0.7 0.3 1.7
v 0.5 0.3 1.6
v 0.6 0.3 1.6
v 0.7 0.3 1.6
v 0.6 0.4 1.8
v 0.7 0.4 1.8
v 0.9 0.4 1.8
v 1 0.4 1.8
v 0.6 0.4 1.7
v 0.7 0.4 1.7
v 0.9 0.4 1.7
v 1 0.4 1.7
v 1 0.5 1.8
v 1.2 0.5 1.8
v 1 0.5 1.7
v 1.2 0.5 1.7
v 0.7 0.9 1.9
v 1.3 0.9 1.9
v 0.7 0.9 1.8
v 1.2 0.9 1.8
v 1.2 0.9 1.7
v 1.3 0.9 1.7
v 0.7 1.2 2
v 1.2 1.2 2
v 0.7 1.2 1.9
v 1.2 1.2 1.9
v 0.8 1.4 2.1
v 1.2 1.4 2.1
v 0.8 1.4 2
v 1.2 1.4 2
v 0.8 1.6 2.2
v 1.2 1.6 2.2
v 0.7 1.6 2.1
v 0.8 1.6 2.1
v 1.2 1.6 2.1
v 0.7 1.6 2
v 0.8 1.6 2
v 0.9 1.6 1.6
v 1.2 1.6 1.6
v 0.9 1.6 1.5
v 1.2 1.6 1.5
v 1.2 1.7 2
v 1.3 1.7 2
v 1.2 1.7 1.7
v 1.3 1.7 1.7
v 0.8 1.7 1.6
v 0.9 1.7 1.6
v 0.8 1.7 1.5
v 0.9 1.7 1.5
v 0.7 1.8 1.7
v 0.8 1.8 1.7
v 1.2 1.8 1.7
v 1.3 1.8 1.7
v 0.7 1.8 1.6
v 0.8 1.8 1.6
v 1.2 1.8 1.5
v 1.3 1.8 1.5
v 0.5 0.2 0.5
v 0.7 0.2 0.5
v 0.8 0.2 0.5
v 1 0.2 0.5
v 0.5 0.2 0.4
v 0.7 0.2 0.4
v 0.8 0.2 0.4
v 1 0.2 0.4
v 1.1 0.3 1.1
v 1.2 0.3 1.1
v 1.1 0.3 0.9
v 1.2 0.3 0.9
v 0.4 0.3 0.7
v 0.6 0.3 0.7
v 0.9 0.3 0.7
v 1.1 0.3 0.7
v 1.2 0.3 0.7
v 0.4 0.3 0.6
v 0.5 0.3 0.6
v 0.6 0.3 0.6
v 0.7 0.3 0.6
v 0.8 0.3 0.6
v 0.9 0.3 0.6
v 0.5 0.3 0.5
v 0.7 0.3 0.5
v 0.8 0.3 0.5
v 1.1 0.3 0.5
v 1.2 0.4 1.4
v 1.3 0.4 1.4
v 0.3 0.4 1.3
v 0.4 0.4 1.3
v 1.2 0.4 1.2
v 1.3 0.4 1.2
v 0.3 0.4 1.1
v 0.4 0.4 1.1
v 1 0.4 1.1
v 1.1 0.4 1.1
v 0.4 0.4 1
v 0.5 0.4 1
v 1 0.4 0.9
v 1.1 0.4 0.9
v 0.3 0.4 0.8
v 0.4 0.4 0.8
v 0.5 0.4 0.8
v 0.6 0.4 0.8
v 0.7 0.4 0.8
v 1 0.4 0.8
v 0.4 0.4 0.7
v 0.6 0.4 0.7
v 0.7 0.4 0.7
v 0.9 0.4 0.7
v 1.1 0.4 0.7
v 0.6 0.4 0.6
v 0.9 0.4 0.6
v 1.2 0.5 1.6
v 1.3 0.5 1.6
v 1.1 0.5 1.4
v 1.2 0.5 1.4
v 1.3 0.5 1.4
v 0.4 0.5 1.3
v 0.5 0.5 1.3
v 1 0.5 1.3
v 1.1 0.5 1.3
v 0.5 0.5 1.1
v 1 0.5 1.1
v 1.2 0.5 1.1
v 0.4 0.5 1
v 0.5 0.5 1
v 0.5 0.5 0.8
v 1 0.5 0.8
v 0.4 0.6 1.6
v 0.5 0.6 1.6
v 0.4 0.6 1.3
v 0.5 0.6 1.3
v 1 0.6 1.3
v 0.5 0.6 1.1
v 1 0.6 1.1
v 1.1 0.7 1.5
v 1.2 0.7 1.5
v 0.5 0.7 1.4
v 1.1 0.7 1.4
v 1.2 0.7 1.4
v 0.5 0.7 1.3
v 1.1 0.7 1.3
v 0.5 0.8 1.7
v 0.6 0.8 1.7
v 0.5 0.8 1.4
v 0.6 0.8 1.4
v 0.6 1 1.5
v 1.1 1 1.5
v 0.6 1 1.4
v 1.1 1 1.4
v 1.1 1.1 1.6
v 1.2 1.1 1.6
v 1.1 1.1 1.5
v 1.2 1.1 1.5
v 0.6 1.2 1.8
v 0.7 1.2 1.8
v 0.7 1.2 1.6
v 0.8 1.2 1.6
v 0.6 1.2 1.5
v 0.8 1.2 1.5
v 1.2 1.3 1.9
v 1.3 1.3 1.9
v 1.2 1.3 1.7
v 1.3 1.3 1.7
v 0.7 1.4 1.7
v 0.8 1.4 1.7
v 0.7 1.4 1.6
v 0.8 1.4 1.6
v 1.1 1.4 1.6
v 0.8 1.4 1.5
v 1.1 1.4 1.5
v 1.2 2 2
v 1.3 2 2
v 0.7 2 1.9
v 0.8 2 1.9
v 0.7 2 1.6
v 0.8 2 1.6
v 0.9 2 1.6
v 0.8 2 1.5
v 0.9 2 1.5
v 1.2 2 1.5
v 1.3 2 1.5
v 1.1 2.1 2.2
v 1.2 2.1 2.2
v 0.7 2.1 2.1
v 0.8 2.1 2.1
v 0.7 2.1 1.9
v 0.8 2.1 1.9
v 0.9 2.1 1.9
v 0.8 2.1 1.6
v 0.9 2.1 1.6
v 1.1 2.1 1.5
v 1.2 2.1 1.5
v 0.8 2.2 2.2
v 1.1 2.2 2.2
v 0.8 2.2 1.9
v 0.9 2.2 1.9
v 0.9 2.2 1.5
v 1.1 2.2 1.5

# faces
f 4/3/1 2/3/1 1/3/1
f 5/2/1 3/2/1 2/2/1
f 5/3/1 2/3/1 4/3/1
f 6/2/1 3/2/1 5/2/1
f 10/2/1 8/2/1 7/2/1
f 11/2/1 8/2/1 10/2/1
f 13/3/1 11/3/1 10/3/1
f 14/2/1 8/2/1 11/2/1
f 14/3/1 11/3/1 13/3/1
f 15/2/1 8/2/1 14/2/1
f 16/1/1 9/1/1 8/1/1
f 16/2/1 8/2/1 15/2/1
f 17/1/1 9/1/1 16/1/1
f 18/1/1 9/1/1 17/1/1
f 19/1/1 9/1/1 18/1/1
f 20/1/1 9/1/1 19/1/1
f 21/3/1 14/3/1 13/3/1
f 21/3/1 13/3/1 12/3/1
f 24/2/1 19/2/1 18/2/1
f 25/2/1 19/2/1 24/2/1
f 26/3/1 23/3/1 22/3/1
f 26/3/1 21/3/1 12/3/1
f 26/3/1 22/3/1 21/3/1
f 27/3/1 23/3/1 26/3/1
f 28/3/1 26/3/1 12/3/1
f 29/3/1 26/3/1 28/3/1
f 32/1/1 31/1/1 30/1/1
f 33/1/1 31/1/1 32/1/1
f 36/1/1 32/1/1 30/1/1
f 37/1/1 32/1/1 36/1/1
f 42/3/1 39/3/1 38/3/1
f 43/3/1 39/3/1 42/3/1
f 44/3/1 35/3/1 34/3/1
f 45/3/1 41/3/1 40/3/1
f 46/3/1 41/3/1 45/3/1
f 47/3/1 45/3/1 44/3/1
f 48/3/1 45/3/1 47/3/1
f 49/3/1 44/3/1 34/3/1
f 49/3/1 47/3/1 44/3/1
f 50/3/1 47/3/1 49/3/1
f 54/3/1 52/3/1 51/3/1
f 55/3/1 52/3/1 54/3/1
f 56/3/1 54/3/1 53/3/1
f 56/3/1 55/3/1 54/3/1
f 57/3/1 55/3/1 56/3/1
f 62/2/1 59/2/1 58/2/1
f 63/2/1 59/2/1 62/2/1
f 64/2/1 61/2/1 60/2/1
f 65/2/1 61/2/1 64/2/1
f 66/3/1 65/3/1 64/3/1
f 68/3/1 67/3/1 66/3/1
f 69/3/1 67/3/1 68/3/1
f 70/3/1 66/3/1 64/3/1
f 70/3/1 68/3/1 66/3/1
f 71/3/1 68/3/1 70/3/1
f 75/1/1 73/1/1 72/1/1
f 75/3/1 74/3/1 73/3/1
f 76/3/1 74/3/1 75/3/1
f 77/1/1 75/1/1 72/1/1
f 78/1/1 75/1/1 77/1/1
f 82/3/1 80/3/1 79/3/1
f 83/3/1 80/3/1 82/3/1
f 85/3/1 83/3/1 82/3/1
f 85/3/1 84/3/1 83/3/1
f 85/3/1 82/3/1 81/3/1
f 86/3/1 84/3/1 85/3/1
f 88/3/1 85/3/1 81/3/1
f 89/3/1 85/3/1 88/3/1
f 89/3/1 88/3/1 87/3/1
f 91/3/1 89/3/1 87/3/1
f 91/3/1 90/3/1 89/3/1
f 92/3/1 90/3/1 91/3/1
f 93/3/1 91/3/1 87/3/1
f 94/3/1 91/3/1 93/3/1
f 97/1/1 96/1/1 95/1/1
f 98/1/1 96/1/1 97/1/1
f 104/3/1 100/3/1 99/3/1
f 105/3/1 100/3/1 104/3/1
f 107/3/1 102/3/1 101/3/1
f 108/3/1 102/3/1 107/3/1
f 109/3/1 104/3/1 103/3/1
f 111/3/1 109/3/1 103/3/1
f 111/3/1 110/3/1 109/3/1
f 112/3/1 110/3/1 111/3/1
f 114/3/1 110/3/1 112/3/1
f 115/3/1 110/3/1 114/3/1
f 116/3/1 107/3/1 106/3/1
f 117/3/1 114/3/1 113/3/1
f 118/3/1 114/3/1 117/3/1
f 119/3/1 116/3/1 106/3/1
f 119/3/1 117/3/1 116/3/1
f 120/3/1 117/3/1 119/3/1
f 123/3/1 122/3/1 121/3/1
f 124/3/1 122/3/1 123/3/1
f 128/3/1 126/3/1 125/3/1
f 129/3/1 128/3/1 127/3/1
f 130/3/1 126/3/1 128/3/1
f 130/3/1 128/3/1 129/3/1
f 131/1/2 132/1/2 133/1/2
f 133/1/2 132/1/2 134/1/2
f 135/1/2 136/1/2 139/1/2
f 139/1/2 136/1/2 140/1/2
f 137/2/2 138/2/2 141/2/2
f 141/2/2 138/2/2 142/2/2
f 143/1/2 144/1/2 145/1/2
f 145/1/2 144/1/2 146/1/2
f 147/2/2 148/2/2 152/2/2
f 152/2/2 148/2/2 153/2/2
f 150/3/2 151/3/2 155/3/2
f 149/3/2 150/3/2 155/3/2
f 155/3/2 151/3/2 156/3/2
f 154/3/2 155/3/2 157/3/2
f 157/3/2 155/3/2 158/3/2
f 159/1/2 160/1/2 163/1/2
f 163/1/2 160/1/2 164/1/2
f 161/3/2 162/3/2 165/3/2
f 162/2/2 163/2/2 166/2/2
f 165/3/2 162/3/2 166/3/2
f 166/2/2 163/2/2 167/2/2
f 168/3/2 169/3/2 171/3/2
f 171/3/2 169/3/2 172/3/2
f 170/3/2 171/3/2 173/3/2
f 173/3/2 171/3/2 174/3/2
f 175/3/2 176/3/2 177/3/2
f 177/3/2 176/3/2 178/3/2
f 179/3/2 180/3/2 181/3/2
f 181/3/2 180/3/2 182/3/2
f 183/3/2 184/3/2 187/3/2
f 184/2/2 185/2/2 188/2/2
f 187/3/2 184/3/2 188/3/2
f 188/2/2 185/2/2 189/2/2
f 189/2/2 185/2/2 192/2/2
f 192/2/2 185/2/2 193/2/2
f 192/3/2 193/3/2 194/3/2
f 193/2/2 185/2/2 194/2/2
f 185/1/2 186/1/2 195/1/2
f 194/2/2 185/2/2 195/2/2
f 195/1/2 186/1/2 196/1/2
f 192/3/2 194/3/2 198/3/2
f 190/3/2 191/3/2 200/3/2
f 200/3/2 191/3/2 201/3/2
f 197/3/2 198/3/2 202/3/2
f 198/3/2 194/3/2 203/3/2
f 202/3/2 198/3/2 203/3/2
f 200/3/2 201/3/2 204/3/2
f 201/3/2 202/3/2 204/3/2
f 199/3/2 200/3/2 204/3/2
f 204/3/2 202/3/2 205/3/2
f 199/3/2 204/3/2 206/3/2
f 206/3/2 204/3/2 207/3/2
f 207/3/2 204/3/2 208/3/2
f 208/3/2 204/3/2 209/3/2
f 210/3/2 211/3/2 212/3/2
f 207/3/2 208/3/2 213/3/2
f 210/3/2 212/3/2 215/3/2
f 212/3/2 213/3/2 215/3/2
f 214/3/2 215/3/2 217/3/2
f 213/3/2 208/3/2 218/3/2
f 215/3/2 213/3/2 218/3/2
f 217/3/2 215/3/2 218/3/2
f 216/3/2 217/3/2 220/3/2
f 218/3/2 219/3/2 220/3/2
f 217/3/2 218/3/2 220/3/2
f 220/3/2 219/3/2 221/3/2
f 221/3/2 219/3/2 222/3/2
f 222/3/2 219/3/2 223/3/2
f 216/3/2 220/3/2 224/3/2
f 216/3/2 224/3/2 226/3/2
f 224/3/2 225/3/2 226/3/2
f 226/3/2 225/3/2 227/3/2
f 228/3/2 229/3/2 230/3/2
f 230/3/2 229/3/2 231/3/2
f 228/3/2 230/3/2 232/3/2
f 232/3/2 230/3/2 233/3/2
f 234/3/2 235/3/2 236/3/2
f 236/3/2 235/3/2 237/3/2
f 238/3/2 239/3/2 240/3/2
f 238/3/2 240/3/2 242/3/2
f 240/3/2 241/3/2 242/3/2
f 242/3/2 241/3/2 243/3/2
f 246/3/3 245/3/3 244/3/3
f 247/3/3 245/3/3 246/3/3
f 248/3/3 246/3/3 244/3/3
f 249/3/3 246/3/3 248/3/3
f 253/3/3 251/3/3 250/3/3
f 254/3/3 251/3/3 253/3/3
f 255/3/3 253/3/3 252/3/3
f 256/3/3 253/3/3 255/3/3
f 259/3/3 258/3/3 257/3/3
f 260/3/3 258/3/3 259/3/3
f 261/3/3 259/3/3 257/3/3
f 262/3/3 259/3/3 261/3/3
f 265/3/3 264/3/3 263/3/3
f 266/3/3 264/3/3 265/3/3
f 269/3/3 268/3/3 267/3/3
f 271/3/3 269/3/3 267/3/3
f 271/3/3 270/3/3 269/3/3
f 272/3/3 270/3/3 271/3/3
f 277/2/3 274/2/3 273/2/3
f 278/3/3 275/3/3 274/3/3
f 279/3/3 275/3/3 278/3/3
f 280/1/3 277/1/3 276/1/3
f 281/2/3 274/2/3 277/2/3
f 281/1/3 277/1/3 280/1/3
f 282/2/3 274/2/3 281/2/3
f 283/3/3 278/3/3 274/3/3
f 283/2/3 274/2/3 282/2/3
f 284/3/3 278/3/3 283/3/3
f 285/3/3 278/3/3 284/3/3
f 288/3/3 287/3/3 286/3/3
f 289/3/3 287/3/3 288/3/3
f 290/3/3 287/3/3 289/3/3
f 291/3/3 287/3/3 290/3/3
f 292/2/3 289/2/3 288/2/3
f 293/2/3 289/2/3 292/2/3
f 296/2/3 295/2/3 294/2/3
f 297/2/3 295/2/3 296/2/3
f 299/3/3 297/3/3 296/3/3
f 299/3/3 298/3/3 297/3/3
f 300/3/3 298/3/3 299/3/3
f 303/3/3 302/3/3 301/3/3
f 304/3/3 302/3/3 303/3/3
f 306/3/3 303/3/3 301/3/3
f 307/3/3 303/3/3 306/3/3
f 308/3/3 306/3/3 305/3/3
f 308/2/3 307/2/3 306/2/3
f 309/2/3 307/2/3 308/2/3
f 310/3/3 308/3/3 305/3/3
f 311/3/3 310/3/3 305/3/3
f 312/3/3 311/3/3 305/3/3
f 314/3/3 312/3/3 305/3/3
f 314/3/3 313/3/3 312/3/3
f 315/3/3 313/3/3 314/3/3
f 318/3/3 317/3/3 316/3/3
f 319/3/3 317/3/3 318/3/3
f 323/2/3 321/2/3 320/2/3
f 324/3/3 322/3/3 321/3/3
f 324/2/3 321/2/3 323/2/3
f 325/3/3 322/3/3 324/3/3
f 328/3/3 327/3/3 326/3/3
f 329/3/3 327/3/3 328/3/3
f 330/3/4 331/3/4 332/3/4
f 332/3/4 331/3/4 333/3/4
f 333/3/4 334/3/4 335/3/4
f 335/3/4 334/3/4 336/3/4
f 337/3/4 338/3/4 339/3/4
f 339/3/4 338/3/4 340/3/4
f 341/3/4 342/3/4 345/3/4
f 345/3/4 342/3/4 346/3/4
f 343/3/4 344/3/4 347/3/4
f 347/3/4 344/3/4 348/3/4
f 349/3/4 350/3/4 353/3/4
f 353/3/4 350/3/4 354/3/4
f 351/3/4 352/3/4 356/3/4
f 356/3/4 352/3/4 357/3/4
f 354/3/4 355/3/4 359/3/4
f 359/3/4 355/3/4 360/3/4
f 357/3/4 358/3/4 361/3/4
f 361/3/4 358/3/4 362/3/4
f 354/3/4 359/3/4 364/3/4
f 363/3/4 364/3/4 365/3/4
f 364/3/4 359/3/4 366/3/4
f 365/3/4 364/3/4 366/3/4
f 367/3/4 368/3/4 369/3/4
f 371/3/4 372/3/4 374/3/4
f 374/3/4 372/3/4 375/3/4
f 367/3/4 369/3/4 378/3/4
f 369/3/4 370/3/4 378/3/4
f 378/3/4 370/3/4 379/3/4
f 379/3/4 370/3/4 380/3/4
f 375/3/4 376/3/4 381/3/4
f 374/3/4 375/3/4 381/3/4
f 373/3/4 374/3/4 381/3/4
f 381/3/4 376/3/4 382/3/4
f 378/3/4 379/3/4 383/3/4
f 377/3/4 378/3/4 383/3/4
f 383/3/4 379/3/4 384/3/4
f 373/3/4 381/3/4 385/3/4
f 385/3/4 381/3/4 386/3/4
f 386/3/4 381/3/4 387/3/4
f 387/3/4 381/3/4 388/3/4
f 386/3/4 387/3/4 389/3/4
f 389/3/4 387/3/4 390/3/4
f 391/3/4 392/3/4 393/3/4
f 391/3/4 393/3/4 396/3/4
f 393/3/4 394/3/4 396/3/4
f 396/3/4 394/3/4 397/3/4
f 395/3/4 396/3/4 399/3/4
f 399/3/4 396/3/4 400/3/4
f 398/3/4 399/3/4 401/3/4
f 401/3/4 399/3/4 402/3/4
f 403/3/4 404/3/4 405/3/4
f 405/3/4 404/3/4 406/3/4
f 406/3/4 407/3/4 409/3/4
f 408/3/4 409/3/4 410/3/4
f 409/3/4 407/3/4 411/3/4
f 410/3/4 409/3/4 411/3/4
f 412/3/4 413/3/4 415/3/4
f 413/3/4 414/3/4 415/3/4
f 415/3/4 414/3/4 416/3/4
f 417/3/4 418/3/4 420/3/4
f 420/3/4 418/3/4 421/3/4
f 419/3/4 420/3/4 423/3/4
f 422/3/4 423/3/4 424/3/4
f 423/3/4 420/3/4 425/3/4
f 424/3/4 423/3/4 425/3/4
f 426/3/4 427/3/4 428/3/4
f 428/3/4 427/3/4 429/3/4
f 430/2/4 431/2/4 432/2/4
f 432/2/4 431/2/4 433/2/4
f 433/2/4 431/2/4 434/2/4
f 435/3/4 436/3/4 437/3/4
f 437/3/4 436/3/4 438/3/4
f 438/3/4 436/3/4 439/3/4
f 439/3/4 436/3/4 440/3/4
f 441/2/4 442/2/4 443/2/4
f 443/2/4 442/2/4 444/2/4
f 445/2/4 446/2/4 448/2/4
f 448/2/4 446/2/4 449/2/4
f 447/1/4 448/1/4 450/1/4
f 450/1/4 448/1/4 451/1/4
f 452/1/4 453/1/4 454/1/4
f 454/1/4 453/1/4 455/1/4
f 456/2/4 457/2/4 458/2/4
f 458/2/4 457/2/4 459/2/4
f 459/2/4 457/2/4 460/2/4
f 460/2/4 457/2/4 461/2/4
f 462/1/4 463/1/4 465/1/4
f 465/1/4 463/1/4 466/1/4
f 464/2/4 465/2/4 467/2/4
f 465/2/4 466/2/4 467/2/4
f 467/2/4 466/2/4 468/2/4
f 468/2/4 466/2/4 469/2/4
f 468/1/4 469/1/4 471/1/4
f 470/1/4 471/1/4 472/1/4
f 471/1/4 469/1/4 473/1/4
f 472/1/4 471/1/4 473/1/4
f 474/1/4 475/1/4 476/1/4
f 476/1/4 475/1/4 477/1/4
f 478/1/4 479/1/4 480/1/4
f 480/1/4 479/1/4 481/1/4
f 485/3/5 483/3/5 482/3/5
f 486/3/5 483/3/5 485/3/5
f 487/2/5 485/2/5 484/2/5
f 487/2/5 486/2/5 485/2/5
f 488/2/5 486/2/5 487/2/5
f 489/2/5 486/2/5 488/2/5
f 490/2/5 486/2/5 489/2/5
f 491/2/5 489/2/5 488/2/5
f 492/1/5 490/1/5 489/1/5
f 492/2/5 489/2/5 491/2/5
f 493/1/5 490/1/5 492/1/5
f 494/1/5 488/1/5 487/1/5
f 495/2/5 491/2/5 488/2/5
f 495/1/5 488/1/5 494/1/5
f 496/2/5 491/2/5 495/2/5
f 497/2/5 491/2/5 496/2/5
f 498/1/5 492/1/5 491/1/5
f 498/2/5 491/2/5 497/2/5
f 499/2/5 497/2/5 496/2/5
f 499/1/5 496/1/5 495/1/5
f 500/2/5 497/2/5 499/2/5
f 501/2/5 497/2/5 500/2/5
f 502/1/5 498/1/5 497/1/5
f 502/2/5 497/2/5 501/2/5
f 503/1/5 492/1/5 498/1/5
f 503/1/5 498/1/5 502/1/5
f 504/1/5 492/1/5 503/1/5
f 505/1/5 499/1/5 495/1/5
f 505/1/5 500/1/5 499/1/5
f 506/1/5 500/1/5 505/1/5
f 507/1/5 502/1/5 501/1/5
f 507/1/5 503/1/5 502/1/5
f 508/1/5 503/1/5 507/1/5
f 511/3/5 510/3/5 509/3/5
f 512/3/5 510/3/5 511/3/5
f 513/3/5 510/3/5 512/3/5
f 514/3/5 510/3/5 513/3/5
f 515/3/5 510/3/5 514/3/5
f 518/1/5 517/1/5 516/1/5
f 519/1/5 517/1/5 518/1/5
f 524/3/5 519/3/5 518/3/5
f 525/2/5 520/2/5 519/2/5
f 525/3/5 519/3/5 524/3/5
f 526/3/5 521/3/5 520/3/5
f 526/2/5 520/2/5 525/2/5
f 527/3/5 521/3/5 526/3/5
f 528/3/5 523/3/5 522/3/5
f 529/3/5 523/3/5 528/3/5
f 532/3/5 531/3/5 530/3/5
f 533/3/5 531/3/5 532/3/5
f 534/2/5 533/2/5 532/2/5
f 535/2/5 534/2/5 532/2/5
f 536/2/5 534/2/5 535/2/5
f 540/3/5 538/3/5 537/3/5
f 541/2/5 539/2/5 538/2/5
f 541/3/5 538/3/5 540/3/5
f 542/2/5 539/2/5 541/2/5
f 547/2/5 544/2/5 543/2/5
f 548/2/5 544/2/5 547/2/5
f 549/2/5 546/2/5 545/2/5
f 550/2/5 546/2/5 549/2/5
f 553/3/5 552/3/5 551/3/5
f 554/3/5 552/3/5 553/3/5
f 557/3/5 556/3/5 555/3/5
f 558/3/5 556/3/5 557/3/5
f 559/3/5 556/3/5 558/3/5
f 560/3/5 556/3/5 559/3/5
f 563/3/5 562/3/5 561/3/5
f 564/3/5 562/3/5 563/3/5
f 567/3/5 566/3/5 565/3/5
f 568/3/5 566/3/5 567/3/5
f 572/3/5 570/3/5 569/3/5
f 573/3/5 570/3/5 572/3/5
f 574/3/5 572/3/5 571/3/5
f 575/3/5 572/3/5 574/3/5
f 578/3/5 577/3/5 576/3/5
f 579/3/5 577/3/5 578/3/5
f 582/3/5 581/3/5 580/3/5
f 583/3/5 581/3/5 582/3/5
f 586/3/5 585/3/5 584/3/5
f 587/3/5 585/3/5 586/3/5
f 592/3/5 589/3/5 588/3/5
f 593/3/5 589/3/5 592/3/5
f 594/3/5 591/3/5 590/3/5
f 595/3/5 591/3/5 594/3/5
f 596/1/6 597/1/6 600/1/6
f 600/1/6 597/1/6 601/1/6
f 598/1/6 599/1/6 602/1/6
f 602/1/6 599/1/6 603/1/6
f 604/2/6 605/2/6 606/2/6
f 606/2/6 605/2/6 607/2/6
f 606/1/6 607/1/6 611/1/6
f 611/1/6 607/1/6 612/1/6
f 608/1/6 609/1/6 613/1/6
f 613/1/6 609/1/6 614/1/6
f 614/1/6 609/1/6 615/1/6
f 610/1/6 611/1/6 618/1/6
f 614/1/6 615/1/6 619/1/6
f 615/1/6 616/1/6 619/1/6
f 616/2/6 617/2/6 620/2/6
f 619/1/6 616/1/6 620/1/6
f 617/1/6 618/1/6 621/1/6
f 620/2/6 617/2/6 621/2/6
f 618/1/6 611/1/6 622/1/6
f 621/1/6 618/1/6 622/1/6
f 623/3/6 624/3/6 627/3/6
f 627/3/6 624/3/6 628/3/6
f 625/3/6 626/3/6 629/3/6
f 629/3/6 626/3/6 630/3/6
f 629/2/6 630/2/6 633/2/6
f 631/3/6 632/3/6 635/3/6
f 635/3/6 632/3/6 636/3/6
f 629/2/6 633/2/6 637/2/6
f 633/3/6 634/3/6 638/3/6
f 637/2/6 633/2/6 638/2/6
f 638/3/6 634/3/6 639/3/6
f 635/2/6 636/2/6 642/2/6
f 638/2/6 639/2/6 643/2/6
f 639/2/6 640/2/6 643/2/6
f 640/3/6 641/3/6 644/3/6
f 643/2/6 640/2/6 644/2/6
f 641/2/6 642/2/6 645/2/6
f 644/3/6 641/3/6 645/3/6
f 645/2/6 642/2/6 646/2/6
f 642/2/6 636/2/6 647/2/6
f 646/2/6 642/2/6 647/2/6
f 645/2/6 646/2/6 648/2/6
f 644/2/6 645/2/6 648/2/6
f 648/2/6 646/2/6 649/2/6
f 650/3/6 651/3/6 653/3/6
f 653/3/6 651/3/6 654/3/6
f 652/3/6 653/3/6 658/3/6
f 655/3/6 656/3/6 659/3/6
f 657/3/6 658/3/6 660/3/6
f 658/3/6 653/3/6 661/3/6
f 660/3/6 658/3/6 661/3/6
f 655/3/6 659/3/6 662/3/6
f 659/3/6 660/3/6 662/3/6
f 662/3/6 660/3/6 663/3/6
f 663/3/6 660/3/6 664/3/6
f 664/3/6 660/3/6 665/3/6
f 666/3/6 667/3/6 668/3/6
f 668/3/6 667/3/6 669/3/6
f 669/3/6 670/3/6 671/3/6
f 671/3/6 670/3/6 672/3/6
f 673/3/6 674/3/6 676/3/6
f 676/3/6 674/3/6 677/3/6
f 675/3/6 676/3/6 678/3/6
f 678/3/6 676/3/6 679/3/6
f 680/3/6 681/3/6 682/3/6
f 682/3/6 681/3/6 683/3/6
f 684/3/6 685/3/6 686/3/6
f 686/3/6 685/3/6 687/3/6
f 688/3/6 689/3/6 690/3/6
f 690/3/6 689/3/6 691/3/6
f 692/3/6 693/3/6 694/3/6
f 692/3/6 694/3/6 696/3/6
f 694/3/6 695/3/6 696/3/6
f 696/3/6 695/3/6 697/3/6
f 698/3/6 699/3/6 700/3/6
f 700/3/6 699/3/6 701/3/6
f 702/3/6 703/3/6 704/3/6
f 704/3/6 703/3/6 705/3/6
f 705/3/6 706/3/6 707/3/6
f 707/3/6 706/3/6 708/3/6
f 711/3/6 712/3/6 713/3/6
f 713/3/6 712/3/6 714/3/6
f 714/3/6 715/3/6 716/3/6
f 716/3/6 715/3/6 717/3/6
f 709/3/6 710/3/6 718/3/6
f 718/3/6 710/3/6 719/3/6
f 722/3/6 723/3/6 724/3/6
f 724/3/6 723/3/6 725/3/6
f 725/3/6 726/3/6 727/3/6
f 727/3/6 726/3/6 728/3/6
f 720/3/6 721/3/6 729/3/6
f 729/3/6 721/3/6 730/3/6
f 731/3/6 732/3/6 733/3/6
f 733/3/6 732/3/6 734/3/6
f 734/3/6 732/3/6 735/3/6
f 735/3/6 732/3/6 736/3/6
