# MagicaVoxel @ Ephtracy

# group
o 

# material
mtllib balanar-7.mtl
usemtl palette

# normals
vn -1 0 0
vn 1 0 0
vn 0 0 1
vn 0 0 -1
vn 0 -1 0
vn 0 1 0

# texcoords
vt 0.00195313 0.5
vt 0.123047 0.5
vt 0.146484 0.5

# verts
v 0 1.9 1.3
v 0 1.9 0.7
v 0 2.1 1.5
v 0 2.1 1.3
v 0 2.4 1.6
v 0 2.4 1.5
v 0 2.5 0.8
v 0 2.5 0.7
v 0 2.7 1.6
v 0 2.7 1.5
v 0 2.7 0.9
v 0 2.7 0.8
v 0 2.8 1.6
v 0 2.8 1.5
v 0 2.8 0.9
v 0 2.8 0.8
v 0.1 1.8 1.2
v 0.1 1.8 0.6
v 0.1 1.9 1.2
v 0.1 1.9 0.7
v 0.1 2.2 0.7
v 0.1 2.2 0.6
v 0.2 1.8 0.6
v 0.2 1.8 0.5
v 0.2 2 0.6
v 0.2 2 0.5
v 0.3 1.7 1.2
v 0.3 1.7 0.5
v 0.3 1.8 1.2
v 0.3 1.8 0.5
v 0.2 2.5 1.6
v 0.2 2.5 0.8
v 0.2 2.8 1.6
v 0.2 2.8 0.8
v 0.5 1.9 1.3
v 0.5 1.9 1.2
v 0.5 2.1 1.5
v 0.5 2.1 1.3
v 0.5 2.1 1.2
v 0.5 2.4 1.6
v 0.5 2.4 1.5
v 0.5 2.5 1.6
v 0.5 2.5 1.3
v 0.6 2.1 1.3
v 0.6 2.1 1.2
v 0.6 2.3 0.9
v 0.6 2.3 0.7
v 0.6 2.4 1
v 0.6 2.4 0.9
v 0.6 2.5 1.3
v 0.6 2.5 1.2
v 0.6 2.5 1
v 0.6 2.5 0.7
v 0.7 2 0.7
v 0.7 2 0.6
v 0.7 2.1 1.2
v 0.7 2.1 0.7
v 0.7 2.2 0.7
v 0.7 2.2 0.6
v 0.7 2.3 0.9
v 0.7 2.3 0.7
v 0.7 2.4 1
v 0.7 2.4 0.9
v 0.7 2.5 1.2
v 0.7 2.5 1
v 0.8 1.7 1.2
v 0.8 1.7 1.1
v 0.8 1.7 1
v 0.8 1.7 0.9
v 0.8 1.7 0.8
v 0.8 1.7 0.7
v 0.8 1.7 0.6
v 0.8 1.7 0.5
v 0.8 1.8 1.1
v 0.8 1.8 1
v 0.8 1.8 0.9
v 0.8 1.8 0.8
v 0.8 1.8 0.7
v 0.8 1.8 0.6
v 0.8 2 0.7
v 0.8 2 0.5
v 0.8 2.1 1.2
v 0.8 2.1 0.7
v 0 2.4 1.6
v 0 2.7 1.6
v 0 2.8 1.6
v 0.1 2.7 1.6
v 0.1 2.8 1.6
v 0.2 2.5 1.6
v 0.2 2.8 1.6
v 0.5 2.4 1.6
v 0.5 2.5 1.6
v 0 2.1 1.5
v 0 2.4 1.5
v 0.5 2.1 1.5
v 0.5 2.4 1.5
v 0 1.9 1.3
v 0 2.1 1.3
v 0.5 1.9 1.3
v 0.5 2.1 1.3
v 0.5 2.5 1.3
v 0.6 2.1 1.3
v 0.6 2.5 1.3
v 0.1 1.8 1.2
v 0.1 1.9 1.2
v 0.3 1.7 1.2
v 0.3 1.8 1.2
v 0.4 1.7 1.2
v 0.4 1.8 1.2
v 0.5 1.7 1.2
v 0.5 1.8 1.2
v 0.5 1.9 1.2
v 0.5 2.1 1.2
v 0.6 1.7 1.2
v 0.6 1.8 1.2
v 0.6 2.1 1.2
v 0.6 2.5 1.2
v 0.7 1.7 1.2
v 0.7 1.8 1.2
v 0.7 2.1 1.2
v 0.7 2.5 1.2
v 0.8 1.7 1.2
v 0.8 2.1 1.2
v 0.6 2.4 1
v 0.6 2.5 1
v 0.7 2.4 1
v 0.7 2.5 1
v 0.6 2.3 0.9
v 0.6 2.4 0.9
v 0.7 2.3 0.9
v 0.7 2.4 0.9
v 0 2.5 0.8
v 0 2.7 0.8
v 0 2.8 0.8
v 0.1 2.7 0.8
v 0.1 2.8 0.8
v 0.2 2.5 0.8
v 0.2 2.8 0.8
v 0 1.9 0.7
v 0 2.5 0.7
v 0.1 1.9 0.7
v 0.1 2.2 0.7
v 0.6 2.3 0.7
v 0.6 2.5 0.7
v 0.7 2 0.7
v 0.7 2.1 0.7
v 0.7 2.2 0.7
v 0.7 2.3 0.7
v 0.8 2 0.7
v 0.8 2.1 0.7
v 0.1 1.8 0.6
v 0.1 2.2 0.6
v 0.2 1.8 0.6
v 0.2 2 0.6
v 0.7 2 0.6
v 0.7 2.2 0.6
v 0.2 1.8 0.5
v 0.2 2 0.5
v 0.3 1.7 0.5
v 0.3 1.8 0.5
v 0.4 1.7 0.5
v 0.4 1.8 0.5
v 0.5 1.7 0.5
v 0.5 1.8 0.5
v 0.6 1.7 0.5
v 0.6 1.8 0.5
v 0.7 1.7 0.5
v 0.7 1.8 0.5
v 0.8 1.7 0.5
v 0.8 2 0.5
v 0.3 1.7 1.2
v 0.4 1.7 1.2
v 0.5 1.7 1.2
v 0.6 1.7 1.2
v 0.7 1.7 1.2
v 0.8 1.7 1.2
v 0.4 1.7 1.1
v 0.5 1.7 1.1
v 0.6 1.7 1.1
v 0.7 1.7 1.1
v 0.8 1.7 1.1
v 0.4 1.7 1
v 0.5 1.7 1
v 0.7 1.7 1
v 0.8 1.7 1
v 0.6 1.7 0.9
v 0.7 1.7 0.9
v 0.8 1.7 0.9
v 0.7 1.7 0.8
v 0.8 1.7 0.8
v 0.7 1.7 0.7
v 0.8 1.7 0.7
v 0.4 1.7 0.6
v 0.5 1.7 0.6
v 0.6 1.7 0.6
v 0.7 1.7 0.6
v 0.8 1.7 0.6
v 0.3 1.7 0.5
v 0.4 1.7 0.5
v 0.5 1.7 0.5
v 0.6 1.7 0.5
v 0.7 1.7 0.5
v 0.8 1.7 0.5
v 0.1 1.8 1.2
v 0.3 1.8 1.2
v 0.1 1.8 0.6
v 0.2 1.8 0.6
v 0.2 1.8 0.5
v 0.3 1.8 0.5
v 0 1.9 1.3
v 0.5 1.9 1.3
v 0.1 1.9 1.2
v 0.5 1.9 1.2
v 0 1.9 0.7
v 0.1 1.9 0.7
v 0 2.1 1.5
v 0.5 2.1 1.5
v 0 2.1 1.3
v 0.5 2.1 1.3
v 0.6 2.1 1.3
v 0.5 2.1 1.2
v 0.6 2.1 1.2
v 0 2.4 1.6
v 0.5 2.4 1.6
v 0 2.4 1.5
v 0.5 2.4 1.5
v 0.7 2 0.7
v 0.8 2 0.7
v 0.2 2 0.6
v 0.7 2 0.6
v 0.2 2 0.5
v 0.8 2 0.5
v 0.7 2.1 1.2
v 0.8 2.1 1.2
v 0.7 2.1 0.7
v 0.8 2.1 0.7
v 0.1 2.2 0.7
v 0.7 2.2 0.7
v 0.1 2.2 0.6
v 0.7 2.2 0.6
v 0.6 2.3 0.9
v 0.7 2.3 0.9
v 0.6 2.3 0.7
v 0.7 2.3 0.7
v 0.6 2.4 1
v 0.7 2.4 1
v 0.6 2.4 0.9
v 0.7 2.4 0.9
v 0.2 2.5 1.6
v 0.5 2.5 1.6
v 0.5 2.5 1.3
v 0.6 2.5 1.3
v 0.6 2.5 1.2
v 0.7 2.5 1.2
v 0.6 2.5 1
v 0.7 2.5 1
v 0 2.5 0.8
v 0.2 2.5 0.8
v 0 2.5 0.7
v 0.6 2.5 0.7
v 0 2.8 1.6
v 0.1 2.8 1.6
v 0.2 2.8 1.6
v 0 2.8 1.5
v 0.1 2.8 1.5
v 0 2.8 0.9
v 0.1 2.8 0.9
v 0 2.8 0.8
v 0.1 2.8 0.8
v 0.2 2.8 0.8

# faces
f 4/1/1 2/1/1 1/1/1
f 6/1/1 4/1/1 3/1/1
f 7/1/1 2/1/1 4/1/1
f 7/1/1 6/1/1 5/1/1
f 7/1/1 4/1/1 6/1/1
f 8/1/1 2/1/1 7/1/1
f 9/1/1 7/1/1 5/1/1
f 10/1/1 7/1/1 9/1/1
f 11/1/1 7/1/1 10/1/1
f 12/1/1 7/1/1 11/1/1
f 13/3/1 10/3/1 9/3/1
f 14/1/1 11/1/1 10/1/1
f 14/3/1 10/3/1 13/3/1
f 15/3/1 12/3/1 11/3/1
f 15/1/1 11/1/1 14/1/1
f 16/3/1 12/3/1 15/3/1
f 19/1/1 18/1/1 17/1/1
f 20/1/1 18/1/1 19/1/1
f 21/1/1 18/1/1 20/1/1
f 22/1/1 18/1/1 21/1/1
f 25/1/1 24/1/1 23/1/1
f 26/1/1 24/1/1 25/1/1
f 29/1/1 28/1/1 27/1/1
f 30/1/1 28/1/1 29/1/1
f 31/1/2 32/1/2 33/1/2
f 33/1/2 32/1/2 34/1/2
f 35/1/2 36/1/2 38/1/2
f 38/1/2 36/1/2 39/1/2
f 37/1/2 38/1/2 41/1/2
f 40/1/2 41/1/2 42/1/2
f 41/1/2 38/1/2 43/1/2
f 42/1/2 41/1/2 43/1/2
f 46/1/2 47/1/2 49/1/2
f 44/1/2 45/1/2 50/1/2
f 50/1/2 45/1/2 51/1/2
f 48/1/2 49/1/2 52/1/2
f 49/1/2 47/1/2 53/1/2
f 52/1/2 49/1/2 53/1/2
f 54/1/2 55/1/2 57/1/2
f 57/1/2 55/1/2 58/1/2
f 56/1/2 57/1/2 58/1/2
f 58/1/2 55/1/2 59/1/2
f 56/1/2 58/1/2 60/1/2
f 60/1/2 58/1/2 61/1/2
f 56/1/2 60/1/2 62/1/2
f 62/1/2 60/1/2 63/1/2
f 56/1/2 62/1/2 64/1/2
f 64/1/2 62/1/2 65/1/2
f 66/1/2 67/1/2 74/1/2
f 67/3/2 68/3/2 74/3/2
f 68/1/2 69/1/2 75/1/2
f 74/3/2 68/3/2 75/3/2
f 69/3/2 70/3/2 76/3/2
f 75/1/2 69/1/2 76/1/2
f 70/1/2 71/1/2 77/1/2
f 76/3/2 70/3/2 77/3/2
f 71/3/2 72/3/2 78/3/2
f 77/1/2 71/1/2 78/1/2
f 72/1/2 73/1/2 79/1/2
f 78/3/2 72/3/2 79/3/2
f 77/1/2 78/1/2 80/1/2
f 76/1/2 77/1/2 80/1/2
f 78/1/2 79/1/2 80/1/2
f 75/1/2 76/1/2 80/1/2
f 74/1/2 75/1/2 80/1/2
f 79/1/2 73/1/2 81/1/2
f 80/1/2 79/1/2 81/1/2
f 74/1/2 80/1/2 82/1/2
f 66/1/2 74/1/2 82/1/2
f 82/1/2 80/1/2 83/1/2
f 87/1/3 85/1/3 84/1/3
f 87/3/3 86/3/3 85/3/3
f 88/3/3 86/3/3 87/3/3
f 89/1/3 87/1/3 84/1/3
f 89/1/3 88/1/3 87/1/3
f 90/1/3 88/1/3 89/1/3
f 91/1/3 89/1/3 84/1/3
f 92/1/3 89/1/3 91/1/3
f 95/1/3 94/1/3 93/1/3
f 96/1/3 94/1/3 95/1/3
f 99/1/3 98/1/3 97/1/3
f 100/1/3 98/1/3 99/1/3
f 102/1/3 101/1/3 100/1/3
f 103/1/3 101/1/3 102/1/3
f 107/1/3 105/1/3 104/1/3
f 108/1/3 107/1/3 106/1/3
f 109/1/3 105/1/3 107/1/3
f 109/1/3 107/1/3 108/1/3
f 110/3/3 109/3/3 108/3/3
f 111/1/3 105/1/3 109/1/3
f 111/3/3 109/3/3 110/3/3
f 112/1/3 105/1/3 111/1/3
f 114/1/3 111/1/3 110/1/3
f 114/1/3 113/1/3 112/1/3
f 114/1/3 112/1/3 111/1/3
f 115/1/3 113/1/3 114/1/3
f 116/1/3 113/1/3 115/1/3
f 118/3/3 115/3/3 114/3/3
f 119/1/3 117/1/3 116/1/3
f 119/3/3 115/3/3 118/3/3
f 119/1/3 116/1/3 115/1/3
f 120/1/3 117/1/3 119/1/3
f 121/1/3 117/1/3 120/1/3
f 122/1/3 119/1/3 118/1/3
f 122/1/3 120/1/3 119/1/3
f 123/1/3 120/1/3 122/1/3
f 124/1/4 125/1/4 126/1/4
f 126/1/4 125/1/4 127/1/4
f 128/1/4 129/1/4 130/1/4
f 130/1/4 129/1/4 131/1/4
f 132/1/4 133/1/4 135/1/4
f 133/3/4 134/3/4 135/3/4
f 135/3/4 134/3/4 136/3/4
f 132/1/4 135/1/4 137/1/4
f 135/1/4 136/1/4 137/1/4
f 137/1/4 136/1/4 138/1/4
f 139/1/4 140/1/4 141/1/4
f 141/1/4 140/1/4 142/1/4
f 142/1/4 140/1/4 143/1/4
f 143/1/4 140/1/4 144/1/4
f 142/1/4 143/1/4 147/1/4
f 147/1/4 143/1/4 148/1/4
f 145/1/4 146/1/4 149/1/4
f 149/1/4 146/1/4 150/1/4
f 151/1/4 152/1/4 153/1/4
f 153/1/4 152/1/4 154/1/4
f 154/1/4 152/1/4 155/1/4
f 155/1/4 152/1/4 156/1/4
f 157/1/4 158/1/4 160/1/4
f 159/1/4 160/1/4 161/1/4
f 160/1/4 158/1/4 162/1/4
f 161/1/4 160/1/4 162/1/4
f 161/3/4 162/3/4 163/3/4
f 162/1/4 158/1/4 164/1/4
f 163/3/4 162/3/4 164/3/4
f 163/1/4 164/1/4 165/1/4
f 164/1/4 158/1/4 166/1/4
f 165/1/4 164/1/4 166/1/4
f 165/3/4 166/3/4 167/3/4
f 166/1/4 158/1/4 168/1/4
f 167/3/4 166/3/4 168/3/4
f 167/1/4 168/1/4 169/1/4
f 168/1/4 158/1/4 170/1/4
f 169/1/4 168/1/4 170/1/4
f 177/1/5 172/1/5 171/1/5
f 177/3/5 173/3/5 172/3/5
f 178/1/5 174/1/5 173/1/5
f 178/3/5 173/3/5 177/3/5
f 179/3/5 175/3/5 174/3/5
f 179/1/5 174/1/5 178/1/5
f 180/1/5 176/1/5 175/1/5
f 180/3/5 175/3/5 179/3/5
f 181/1/5 176/1/5 180/1/5
f 182/2/5 178/2/5 177/2/5
f 182/1/5 177/1/5 171/1/5
f 183/1/5 179/1/5 178/1/5
f 183/2/5 178/2/5 182/2/5
f 184/3/5 181/3/5 180/3/5
f 184/2/5 180/2/5 179/2/5
f 185/3/5 181/3/5 184/3/5
f 186/1/5 179/1/5 183/1/5
f 186/1/5 183/1/5 182/1/5
f 186/2/5 184/2/5 179/2/5
f 187/1/5 185/1/5 184/1/5
f 187/2/5 184/2/5 186/2/5
f 188/1/5 185/1/5 187/1/5
f 189/1/5 187/1/5 186/1/5
f 189/3/5 188/3/5 187/3/5
f 190/3/5 188/3/5 189/3/5
f 191/1/5 189/1/5 186/1/5
f 191/1/5 190/1/5 189/1/5
f 192/1/5 190/1/5 191/1/5
f 193/1/5 182/1/5 171/1/5
f 193/1/5 186/1/5 182/1/5
f 193/1/5 191/1/5 186/1/5
f 194/1/5 191/1/5 193/1/5
f 195/1/5 191/1/5 194/1/5
f 196/3/5 192/3/5 191/3/5
f 196/1/5 191/1/5 195/1/5
f 197/3/5 192/3/5 196/3/5
f 198/1/5 193/1/5 171/1/5
f 199/3/5 194/3/5 193/3/5
f 199/1/5 193/1/5 198/1/5
f 200/1/5 195/1/5 194/1/5
f 200/3/5 194/3/5 199/3/5
f 201/3/5 196/3/5 195/3/5
f 201/1/5 195/1/5 200/1/5
f 202/1/5 197/1/5 196/1/5
f 202/3/5 196/3/5 201/3/5
f 203/1/5 197/1/5 202/1/5
f 206/1/5 205/1/5 204/1/5
f 207/1/5 205/1/5 206/1/5
f 208/1/5 205/1/5 207/1/5
f 209/1/5 205/1/5 208/1/5
f 212/1/5 211/1/5 210/1/5
f 213/1/5 211/1/5 212/1/5
f 214/1/5 212/1/5 210/1/5
f 215/1/5 212/1/5 214/1/5
f 218/1/5 217/1/5 216/1/5
f 219/1/5 217/1/5 218/1/5
f 221/1/5 220/1/5 219/1/5
f 222/1/5 220/1/5 221/1/5
f 225/1/5 224/1/5 223/1/5
f 226/1/5 224/1/5 225/1/5
f 227/1/6 228/1/6 230/1/6
f 229/1/6 230/1/6 231/1/6
f 230/1/6 228/1/6 232/1/6
f 231/1/6 230/1/6 232/1/6
f 233/1/6 234/1/6 235/1/6
f 235/1/6 234/1/6 236/1/6
f 237/1/6 238/1/6 239/1/6
f 239/1/6 238/1/6 240/1/6
f 241/1/6 242/1/6 243/1/6
f 243/1/6 242/1/6 244/1/6
f 245/1/6 246/1/6 247/1/6
f 247/1/6 246/1/6 248/1/6
f 249/1/6 250/1/6 251/1/6
f 251/1/6 252/1/6 253/1/6
f 251/1/6 253/1/6 255/1/6
f 253/1/6 254/1/6 255/1/6
f 255/1/6 254/1/6 256/1/6
f 249/1/6 251/1/6 258/1/6
f 251/1/6 255/1/6 258/1/6
f 257/1/6 258/1/6 259/1/6
f 258/1/6 255/1/6 260/1/6
f 259/1/6 258/1/6 260/1/6
f 261/3/6 262/3/6 264/3/6
f 262/1/6 263/1/6 265/1/6
f 264/3/6 262/3/6 265/3/6
f 264/1/6 265/1/6 266/1/6
f 265/1/6 263/1/6 267/1/6
f 266/1/6 265/1/6 267/1/6
f 266/3/6 267/3/6 268/3/6
f 267/1/6 263/1/6 269/1/6
f 268/3/6 267/3/6 269/3/6
f 269/1/6 263/1/6 270/1/6
