# MagicaVoxel @ Ephtracy

# group
o 

# material
mtllib balanar-12.mtl
usemtl palette

# normals
vn -1 0 0
vn 1 0 0
vn 0 0 1
vn 0 0 -1
vn 0 -1 0
vn 0 1 0

# texcoords
vt 0.00195313 0.5
vt 0.123047 0.5
vt 0.623047 0.5

# verts
v 0.7 3.9 1.2
v 0.7 3.9 0.7
v 0.7 4 1.3
v 0.7 4 1.2
v 0.7 4 0.8
v 0.7 4.2 0.9
v 0.7 4.2 0.8
v 0.7 4.3 1.2
v 0.7 4.3 0.9
v 0.7 4.3 0.8
v 0.7 4.3 0.7
v 0.7 4.4 1.3
v 0.7 4.4 0.8
v 0.9 3.7 1.3
v 0.9 3.7 0.6
v 0.9 3.9 1.2
v 0.9 3.9 0.7
v 0.9 4 1.4
v 0.9 4 1.3
v 0.9 4 1.2
v 0.9 4.3 1.4
v 0.9 4.3 1.3
v 0.9 4.3 0.7
v 0.9 4.3 0.6
v 1 3.7 1.4
v 1 3.7 1.3
v 1 4 1.4
v 1 4 1.3
v 1.1 3.4 1.3
v 1.1 3.4 0.8
v 1.1 3.5 1.4
v 1.1 3.5 1.3
v 1.1 3.5 0.8
v 1.1 3.7 1.4
v 1.1 3.7 0.8
v 1.2 3.4 1.4
v 1.2 3.4 1.3
v 1.2 3.5 1.4
v 1.2 3.5 1.3
v 1.1 4.3 1.3
v 1.1 4.3 0.8
v 1.1 4.4 1.3
v 1.1 4.4 0.8
v 1.3 3.7 0.8
v 1.3 3.7 0.6
v 1.3 4.2 1.4
v 1.3 4.2 0.8
v 1.3 4.3 1.4
v 1.3 4.3 0.6
v 1.4 3.4 1.4
v 1.4 3.4 1.3
v 1.4 3.4 1.1
v 1.4 3.4 0.8
v 1.4 3.5 1.4
v 1.4 3.5 1.3
v 1.4 3.5 1.1
v 1.4 3.5 0.8
v 1.4 3.7 1.4
v 1.4 3.7 0.9
v 1.4 3.7 0.8
v 1.4 4 1.4
v 1.4 4 0.9
v 1.4 4.2 1.4
v 1.4 4.2 0.8
v 1.5 3.7 1.4
v 1.5 3.7 0.9
v 1.5 4 1.4
v 1.5 4 0.9
v 0.9 4 1.4
v 0.9 4.3 1.4
v 1 3.7 1.4
v 1 4 1.4
v 1.1 3.5 1.4
v 1.1 3.7 1.4
v 1.2 3.4 1.4
v 1.2 3.5 1.4
v 1.3 4.2 1.4
v 1.3 4.3 1.4
v 1.4 3.4 1.4
v 1.4 3.5 1.4
v 1.4 3.7 1.4
v 1.4 4 1.4
v 1.4 4.2 1.4
v 1.5 3.7 1.4
v 1.5 4 1.4
v 0.7 4 1.3
v 0.7 4.4 1.3
v 0.9 3.7 1.3
v 0.9 4 1.3
v 0.9 4.3 1.3
v 1 3.7 1.3
v 1 4 1.3
v 1.1 3.4 1.3
v 1.1 3.5 1.3
v 1.1 4.3 1.3
v 1.1 4.4 1.3
v 1.2 3.4 1.3
v 1.2 3.5 1.3
v 0.7 3.9 1.2
v 0.7 4 1.2
v 0.9 3.9 1.2
v 0.9 4 1.2
v 1.4 3.7 0.9
v 1.4 4 0.9
v 1.5 3.7 0.9
v 1.5 4 0.9
v 0.7 4.3 0.8
v 0.7 4.4 0.8
v 1.1 3.4 0.8
v 1.1 3.5 0.8
v 1.1 3.7 0.8
v 1.1 4.3 0.8
v 1.1 4.4 0.8
v 1.3 3.7 0.8
v 1.3 4.2 0.8
v 1.4 3.4 0.8
v 1.4 3.5 0.8
v 1.4 3.7 0.8
v 1.4 4.2 0.8
v 0.7 3.9 0.7
v 0.7 4.3 0.7
v 0.9 3.9 0.7
v 0.9 4.3 0.7
v 0.9 3.7 0.6
v 0.9 4.3 0.6
v 1.3 3.7 0.6
v 1.3 4.3 0.6
v 1.2 3.4 1.4
v 1.4 3.4 1.4
v 1.1 3.4 1.3
v 1.2 3.4 1.3
v 1.4 3.4 1.3
v 1.2 3.4 1.2
v 1.3 3.4 1.2
v 1.3 3.4 1.1
v 1.4 3.4 1.1
v 1.1 3.4 0.8
v 1.4 3.4 0.8
v 1.1 3.5 1.4
v 1.2 3.5 1.4
v 1.1 3.5 1.3
v 1.2 3.5 1.3
v 1 3.7 1.4
v 1.1 3.7 1.4
v 1.4 3.7 1.4
v 1.5 3.7 1.4
v 0.9 3.7 1.3
v 1 3.7 1.3
v 1.4 3.7 0.9
v 1.5 3.7 0.9
v 1.1 3.7 0.8
v 1.3 3.7 0.8
v 0.9 3.7 0.6
v 1.3 3.7 0.6
v 0.7 3.9 1.2
v 0.9 3.9 1.2
v 0.7 3.9 0.7
v 0.9 3.9 0.7
v 0.9 4 1.4
v 1 4 1.4
v 0.7 4 1.3
v 0.9 4 1.3
v 1 4 1.3
v 0.7 4 1.2
v 0.9 4 1.2
v 1.4 4 1.4
v 1.5 4 1.4
v 1.4 4 0.9
v 1.5 4 0.9
v 1.3 4.2 1.4
v 1.4 4.2 1.4
v 1.3 4.2 0.8
v 1.4 4.2 0.8
v 0.9 4.3 1.4
v 1.3 4.3 1.4
v 0.9 4.3 1.3
v 1.1 4.3 1.3
v 0.7 4.3 0.8
v 1.1 4.3 0.8
v 0.7 4.3 0.7
v 0.9 4.3 0.7
v 0.9 4.3 0.6
v 1.3 4.3 0.6
v 0.7 4.4 1.3
v 1.1 4.4 1.3
v 0.7 4.4 0.8
v 1.1 4.4 0.8

# faces
f 4/2/1 2/2/1 1/2/1
f 5/2/1 2/2/1 4/2/1
f 6/1/1 5/1/1 4/1/1
f 7/2/1 2/2/1 5/2/1
f 7/1/1 5/1/1 6/1/1
f 8/2/1 4/2/1 3/2/1
f 8/1/1 6/1/1 4/1/1
f 9/2/1 7/2/1 6/2/1
f 9/1/1 6/1/1 8/1/1
f 10/2/1 2/2/1 7/2/1
f 10/2/1 7/2/1 9/2/1
f 11/2/1 2/2/1 10/2/1
f 12/2/1 9/2/1 8/2/1
f 12/2/1 8/2/1 3/2/1
f 12/2/1 10/2/1 9/2/1
f 13/2/1 10/2/1 12/2/1
f 16/2/1 15/2/1 14/2/1
f 17/2/1 15/2/1 16/2/1
f 19/2/1 16/2/1 14/2/1
f 20/2/1 16/2/1 19/2/1
f 21/2/1 19/2/1 18/2/1
f 22/2/1 19/2/1 21/2/1
f 23/2/1 15/2/1 17/2/1
f 24/2/1 15/2/1 23/2/1
f 27/2/1 26/2/1 25/2/1
f 28/2/1 26/2/1 27/2/1
f 32/2/1 30/2/1 29/2/1
f 33/2/1 30/2/1 32/2/1
f 34/3/1 32/3/1 31/3/1
f 34/3/1 33/3/1 32/3/1
f 35/3/1 33/3/1 34/3/1
f 38/2/1 37/2/1 36/2/1
f 39/2/1 37/2/1 38/2/1
f 40/2/2 41/2/2 42/2/2
f 42/2/2 41/2/2 43/2/2
f 44/2/2 45/2/2 47/2/2
f 46/2/2 47/2/2 48/2/2
f 47/2/2 45/2/2 49/2/2
f 48/2/2 47/2/2 49/2/2
f 50/2/2 51/2/2 54/2/2
f 51/1/2 52/1/2 55/1/2
f 54/2/2 51/2/2 55/2/2
f 52/2/2 53/2/2 56/2/2
f 55/1/2 52/1/2 56/1/2
f 56/2/2 53/2/2 57/2/2
f 54/3/2 55/3/2 58/3/2
f 55/3/2 56/3/2 58/3/2
f 56/3/2 57/3/2 58/3/2
f 58/3/2 57/3/2 59/3/2
f 59/3/2 57/3/2 60/3/2
f 59/2/2 60/2/2 62/2/2
f 61/2/2 62/2/2 63/2/2
f 62/2/2 60/2/2 64/2/2
f 63/2/2 62/2/2 64/2/2
f 65/2/2 66/2/2 67/2/2
f 67/2/2 66/2/2 68/2/2
f 72/2/3 70/2/3 69/2/3
f 74/2/3 72/2/3 71/2/3
f 76/3/3 74/3/3 73/3/3
f 77/2/3 70/2/3 72/2/3
f 77/2/3 72/2/3 74/2/3
f 78/2/3 70/2/3 77/2/3
f 79/2/3 76/2/3 75/2/3
f 80/3/3 74/3/3 76/3/3
f 80/2/3 76/2/3 79/2/3
f 81/2/3 77/2/3 74/2/3
f 81/3/3 74/3/3 80/3/3
f 82/2/3 77/2/3 81/2/3
f 83/2/3 77/2/3 82/2/3
f 84/2/3 82/2/3 81/2/3
f 85/2/3 82/2/3 84/2/3
f 89/2/3 87/2/3 86/2/3
f 90/2/3 87/2/3 89/2/3
f 91/2/3 89/2/3 88/2/3
f 92/2/3 89/2/3 91/2/3
f 95/2/3 87/2/3 90/2/3
f 96/2/3 87/2/3 95/2/3
f 97/2/3 94/2/3 93/2/3
f 98/2/3 94/2/3 97/2/3
f 101/2/3 100/2/3 99/2/3
f 102/2/3 100/2/3 101/2/3
f 103/2/4 104/2/4 105/2/4
f 105/2/4 104/2/4 106/2/4
f 107/2/4 108/2/4 112/2/4
f 112/2/4 108/2/4 113/2/4
f 110/3/4 111/3/4 114/3/4
f 109/2/4 110/2/4 116/2/4
f 110/3/4 114/3/4 117/3/4
f 116/2/4 110/2/4 117/2/4
f 114/2/4 115/2/4 118/2/4
f 117/3/4 114/3/4 118/3/4
f 118/2/4 115/2/4 119/2/4
f 120/2/4 121/2/4 122/2/4
f 122/2/4 121/2/4 123/2/4
f 124/2/4 125/2/4 126/2/4
f 126/2/4 125/2/4 127/2/4
f 131/2/5 129/2/5 128/2/5
f 132/2/5 129/2/5 131/2/5
f 133/2/5 131/2/5 130/2/5
f 133/1/5 132/1/5 131/1/5
f 134/1/5 132/1/5 133/1/5
f 135/2/5 134/2/5 133/2/5
f 135/1/5 132/1/5 134/1/5
f 136/1/5 132/1/5 135/1/5
f 137/2/5 133/2/5 130/2/5
f 137/2/5 135/2/5 133/2/5
f 137/2/5 136/2/5 135/2/5
f 138/2/5 136/2/5 137/2/5
f 141/3/5 140/3/5 139/3/5
f 142/3/5 140/3/5 141/3/5
f 148/2/5 144/2/5 143/2/5
f 149/2/5 146/2/5 145/2/5
f 150/2/5 146/2/5 149/2/5
f 151/2/5 148/2/5 147/2/5
f 151/2/5 144/2/5 148/2/5
f 153/2/5 151/2/5 147/2/5
f 153/2/5 152/2/5 151/2/5
f 154/2/5 152/2/5 153/2/5
f 157/2/5 156/2/5 155/2/5
f 158/2/5 156/2/5 157/2/5
f 162/2/5 160/2/5 159/2/5
f 163/2/5 160/2/5 162/2/5
f 164/2/5 162/2/5 161/2/5
f 165/2/5 162/2/5 164/2/5
f 166/2/6 167/2/6 168/2/6
f 168/2/6 167/2/6 169/2/6
f 170/2/6 171/2/6 172/2/6
f 172/2/6 171/2/6 173/2/6
f 174/2/6 175/2/6 176/2/6
f 176/2/6 175/2/6 177/2/6
f 177/2/6 175/2/6 179/2/6
f 178/2/6 179/2/6 180/2/6
f 180/2/6 179/2/6 181/2/6
f 181/2/6 179/2/6 182/2/6
f 179/2/6 175/2/6 183/2/6
f 182/2/6 179/2/6 183/2/6
f 184/2/6 185/2/6 186/2/6
f 186/2/6 185/2/6 187/2/6
