# MagicaVoxel @ Ephtracy

# group
o 

# material
mtllib balanar-15.mtl
usemtl palette

# normals
vn -1 0 0
vn 1 0 0
vn 0 0 1
vn 0 0 -1
vn 0 -1 0
vn 0 1 0

# texcoords
vt 0.00195313 0.5
vt 0.123047 0.5
vt 0.146484 0.5
vt 0.205078 0.5

# verts
v -0.9 3.8 1.4
v -0.9 3.8 0.5
v -0.9 3.9 1.1
v -0.9 3.9 0.7
v -0.9 4 1.3
v -0.9 4 1.1
v -0.9 4.2 0.9
v -0.9 4.2 0.7
v -0.9 4.3 1.3
v -0.9 4.3 0.9
v -0.9 4.3 0.8
v -0.9 4.3 0.5
v -0.9 4.4 1.4
v -0.9 4.4 1.3
v -0.9 4.5 1.3
v -0.9 4.5 0.8
v -0.8 2.5 1.3
v -0.8 2.5 0.8
v -0.8 2.6 1
v -0.8 2.6 0.8
v -0.8 2.7 1.2
v -0.8 2.7 1.1
v -0.8 2.8 1.3
v -0.8 2.8 1.2
v -0.8 2.8 1.1
v -0.8 2.8 1
v -0.8 3.8 1.5
v -0.8 3.8 1.4
v -0.8 4.4 1.5
v -0.8 4.4 1.4
v -0.7 2.5 1.6
v -0.7 2.5 1.3
v -0.7 2.6 1
v -0.7 2.6 0.8
v -0.7 2.7 1.6
v -0.7 2.7 1.5
v -0.7 2.7 1.4
v -0.7 2.7 1.3
v -0.7 2.7 1
v -0.7 2.7 0.9
v -0.7 2.8 1.6
v -0.7 2.8 1.5
v -0.7 2.8 1.4
v -0.7 2.8 1.3
v -0.7 2.8 1.2
v -0.7 2.8 1.1
v -0.7 2.8 1
v -0.7 2.8 0.9
v -0.7 2.8 0.8
v -0.7 3 1.6
v -0.7 3 0.9
v -0.7 3.7 1.5
v -0.7 3.7 0.4
v -0.7 3.8 1.5
v -0.7 3.8 0.5
v -0.7 4.2 0.5
v -0.7 4.2 0.4
v -0.6 2.8 0.9
v -0.6 2.8 0.8
v -0.6 3 1.4
v -0.6 3 0.9
v -0.6 3 0.8
v -0.6 3.3 1.5
v -0.6 3.3 1.4
v -0.6 3.3 0.9
v -0.6 3.3 0.5
v -0.6 3.7 1.5
v -0.6 3.7 0.5
v -0.5 3 1.5
v -0.5 3 1.4
v -0.5 3 0.9
v -0.5 3 0.8
v -0.5 3.3 1.5
v -0.5 3.3 1.4
v -0.5 3.3 0.9
v -0.5 3.3 0.8
v -0.4 3.1 0.8
v -0.4 3.1 0.6
v -0.4 3.3 0.8
v -0.4 3.3 0.6
v -0.3 4.4 0.8
v -0.3 4.4 0.7
v -0.3 4.5 0.8
v -0.3 4.5 0.7
v -0.2 2.3 1.5
v -0.2 2.3 0.9
v -0.2 2.4 1.6
v -0.2 2.4 1.5
v -0.2 2.5 0.9
v -0.2 2.5 0.8
v -0.2 2.8 1.6
v -0.2 2.8 1.5
v -0.2 2.8 0.9
v -0.2 2.8 0.8
v -0.2 4.4 0.7
v -0.2 4.4 0.6
v -0.2 4.5 0.7
v -0.2 4.5 0.6
v 0 3.7 0.5
v 0 3.7 0.4
v 0 4.2 0.5
v 0 4.2 0.4
v 0.1 4.2 0.6
v 0.1 4.2 0.5
v 0.1 4.3 1.5
v 0.1 4.3 1.4
v 0.1 4.3 0.6
v 0.1 4.3 0.5
v 0.1 4.4 1.5
v 0.1 4.4 1.4
v 0.2 2.5 1.6
v 0.2 2.5 0.8
v 0.2 2.7 1.6
v 0.2 2.7 1.5
v 0.2 2.7 0.9
v 0.2 2.7 0.8
v 0.2 2.8 1.6
v 0.2 2.8 1.5
v 0.2 2.8 0.9
v 0.2 2.8 0.8
v -0.4 2.5 1.6
v -0.4 2.5 0.8
v -0.4 2.7 1.6
v -0.4 2.7 1.5
v -0.4 2.7 0.9
v -0.4 2.7 0.8
v -0.4 2.8 1.6
v -0.4 2.8 1.5
v -0.4 2.8 0.9
v -0.4 2.8 0.8
v -0.3 4.2 0.6
v -0.3 4.2 0.5
v -0.3 4.3 1.5
v -0.3 4.3 1.4
v -0.3 4.3 0.6
v -0.3 4.3 0.5
v -0.3 4.4 1.5
v -0.3 4.4 1.4
v -0.2 3.7 0.5
v -0.2 3.7 0.4
v -0.2 4.2 0.5
v -0.2 4.2 0.4
v 0 2.3 1.5
v 0 2.3 0.9
v 0 2.4 1.6
v 0 2.4 1.5
v 0 2.5 0.9
v 0 2.5 0.8
v 0 2.8 1.6
v 0 2.8 1.5
v 0 2.8 0.9
v 0 2.8 0.8
v 0 4.4 0.7
v 0 4.4 0.6
v 0 4.5 0.7
v 0 4.5 0.6
v 0.1 4.4 0.8
v 0.1 4.4 0.7
v 0.1 4.5 0.8
v 0.1 4.5 0.7
v 0.2 3.1 0.8
v 0.2 3.1 0.6
v 0.2 3.3 0.8
v 0.2 3.3 0.6
v 0.3 3 1.5
v 0.3 3 1.4
v 0.3 3 0.9
v 0.3 3 0.8
v 0.3 3.3 1.5
v 0.3 3.3 1.4
v 0.3 3.3 0.9
v 0.3 3.3 0.8
v 0.4 2.8 0.9
v 0.4 2.8 0.8
v 0.4 3 1.4
v 0.4 3 0.9
v 0.4 3 0.8
v 0.4 3.3 1.5
v 0.4 3.3 1.4
v 0.4 3.3 0.9
v 0.4 3.3 0.5
v 0.4 3.7 1.5
v 0.4 3.7 0.5
v 0.5 2.5 1.6
v 0.5 2.5 1.3
v 0.5 2.6 1
v 0.5 2.6 0.8
v 0.5 2.7 1.6
v 0.5 2.7 1.5
v 0.5 2.7 1.4
v 0.5 2.7 1.3
v 0.5 2.7 1
v 0.5 2.7 0.9
v 0.5 2.8 1.6
v 0.5 2.8 1.5
v 0.5 2.8 1.4
v 0.5 2.8 1.3
v 0.5 2.8 1.2
v 0.5 2.8 1.1
v 0.5 2.8 1
v 0.5 2.8 0.9
v 0.5 2.8 0.8
v 0.5 3 1.6
v 0.5 3 0.9
v 0.5 3.7 1.5
v 0.5 3.7 0.4
v 0.5 3.8 1.5
v 0.5 3.8 0.5
v 0.5 4.2 0.5
v 0.5 4.2 0.4
v 0.6 2.5 1.3
v 0.6 2.5 0.8
v 0.6 2.6 1
v 0.6 2.6 0.8
v 0.6 2.7 1.2
v 0.6 2.7 1.1
v 0.6 2.8 1.3
v 0.6 2.8 1.2
v 0.6 2.8 1.1
v 0.6 2.8 1
v 0.6 3.8 1.5
v 0.6 3.8 1.4
v 0.6 4.4 1.5
v 0.6 4.4 1.4
v 0.7 3.8 1.4
v 0.7 3.8 0.5
v 0.7 3.9 1.1
v 0.7 3.9 0.7
v 0.7 4 1.3
v 0.7 4 1.1
v 0.7 4.2 0.9
v 0.7 4.2 0.7
v 0.7 4.3 1.3
v 0.7 4.3 0.9
v 0.7 4.3 0.8
v 0.7 4.3 0.5
v 0.7 4.4 1.4
v 0.7 4.4 1.3
v 0.7 4.5 1.3
v 0.7 4.5 0.8
v -0.7 2.5 1.6
v -0.7 2.7 1.6
v -0.7 2.8 1.6
v -0.7 3 1.6
v -0.6 2.7 1.6
v -0.6 2.8 1.6
v -0.5 2.7 1.6
v -0.5 2.8 1.6
v -0.4 2.5 1.6
v -0.4 2.7 1.6
v -0.4 2.8 1.6
v -0.2 2.4 1.6
v -0.2 2.8 1.6
v 0 2.4 1.6
v 0 2.8 1.6
v 0.2 2.5 1.6
v 0.2 2.7 1.6
v 0.2 2.8 1.6
v 0.3 2.7 1.6
v 0.3 2.8 1.6
v 0.4 2.7 1.6
v 0.4 2.8 1.6
v 0.5 2.5 1.6
v 0.5 2.7 1.6
v 0.5 2.8 1.6
v 0.5 3 1.6
v -0.8 3.8 1.5
v -0.8 4.4 1.5
v -0.7 3.7 1.5
v -0.7 3.8 1.5
v -0.6 3.3 1.5
v -0.6 3.7 1.5
v -0.5 3 1.5
v -0.5 3.3 1.5
v -0.3 4.3 1.5
v -0.3 4.4 1.5
v -0.2 2.3 1.5
v -0.2 2.4 1.5
v 0 2.3 1.5
v 0 2.4 1.5
v 0.1 4.3 1.5
v 0.1 4.4 1.5
v 0.3 3 1.5
v 0.3 3.3 1.5
v 0.4 3.3 1.5
v 0.4 3.7 1.5
v 0.5 3.7 1.5
v 0.5 3.8 1.5
v 0.6 3.8 1.5
v 0.6 4.4 1.5
v -0.9 3.8 1.4
v -0.9 4.4 1.4
v -0.8 3.8 1.4
v -0.8 4.4 1.4
v -0.6 3 1.4
v -0.6 3.3 1.4
v -0.5 3 1.4
v -0.5 3.3 1.4
v -0.3 4.3 1.4
v -0.3 4.4 1.4
v 0.1 4.3 1.4
v 0.1 4.4 1.4
v 0.3 3 1.4
v 0.3 3.3 1.4
v 0.4 3 1.4
v 0.4 3.3 1.4
v 0.6 3.8 1.4
v 0.6 4.4 1.4
v 0.7 3.8 1.4
v 0.7 4.4 1.4
v -0.9 4.4 1.3
v -0.9 4.5 1.3
v -0.8 2.5 1.3
v -0.8 2.8 1.3
v -0.7 2.5 1.3
v -0.7 2.7 1.3
v -0.7 2.8 1.3
v 0.5 2.5 1.3
v 0.5 2.7 1.3
v 0.5 2.8 1.3
v 0.6 2.5 1.3
v 0.6 2.8 1.3
v 0.7 4.4 1.3
v 0.7 4.5 1.3
v -0.8 2.6 1
v -0.8 2.8 1
v -0.7 2.6 1
v -0.7 2.7 1
v -0.7 2.8 1
v 0.5 2.6 1
v 0.5 2.7 1
v 0.5 2.8 1
v 0.6 2.6 1
v 0.6 2.8 1
v -0.7 2.8 0.9
v -0.7 3 0.9
v -0.6 2.8 0.9
v -0.6 3 0.9
v -0.6 3.3 0.9
v -0.5 3 0.9
v -0.5 3.3 0.9
v -0.2 2.3 0.9
v -0.2 2.5 0.9
v 0 2.3 0.9
v 0 2.5 0.9
v 0.3 3 0.9
v 0.3 3.3 0.9
v 0.4 2.8 0.9
v 0.4 3 0.9
v 0.4 3.3 0.9
v 0.5 2.8 0.9
v 0.5 3 0.9
v -0.9 4.3 0.8
v -0.9 4.5 0.8
v -0.8 2.5 0.8
v -0.8 2.6 0.8
v -0.7 2.6 0.8
v -0.7 2.8 0.8
v -0.6 2.8 0.8
v -0.6 3 0.8
v -0.5 2.7 0.8
v -0.5 2.8 0.8
v -0.5 3 0.8
v -0.5 3.3 0.8
v -0.4 2.5 0.8
v -0.4 2.7 0.8
v -0.4 2.8 0.8
v -0.4 3.1 0.8
v -0.4 3.3 0.8
v -0.3 4.4 0.8
v -0.3 4.5 0.8
v -0.2 2.5 0.8
v -0.2 2.8 0.8
v 0 2.5 0.8
v 0 2.8 0.8
v 0.1 4.4 0.8
v 0.1 4.5 0.8
v 0.2 2.5 0.8
v 0.2 2.7 0.8
v 0.2 2.8 0.8
v 0.2 3.1 0.8
v 0.2 3.3 0.8
v 0.3 2.7 0.8
v 0.3 2.8 0.8
v 0.3 3 0.8
v 0.3 3.3 0.8
v 0.4 2.8 0.8
v 0.4 3 0.8
v 0.5 2.6 0.8
v 0.5 2.8 0.8
v 0.6 2.5 0.8
v 0.6 2.6 0.8
v 0.7 4.3 0.8
v 0.7 4.5 0.8
v -0.3 4.4 0.7
v -0.3 4.5 0.7
v -0.2 4.4 0.7
v -0.2 4.5 0.7
v 0 4.4 0.7
v 0 4.5 0.7
v 0.1 4.4 0.7
v 0.1 4.5 0.7
v -0.4 3.1 0.6
v -0.4 3.3 0.6
v -0.3 4.2 0.6
v -0.3 4.3 0.6
v -0.2 4.4 0.6
v -0.2 4.5 0.6
v 0 4.4 0.6
v 0 4.5 0.6
v 0.1 4.2 0.6
v 0.1 4.3 0.6
v 0.2 3.1 0.6
v 0.2 3.3 0.6
v -0.9 3.8 0.5
v -0.9 4.3 0.5
v -0.7 3.8 0.5
v -0.7 4.2 0.5
v -0.6 3.3 0.5
v -0.6 3.7 0.5
v -0.3 4.2 0.5
v -0.3 4.3 0.5
v -0.2 3.7 0.5
v -0.2 4.2 0.5
v 0 3.7 0.5
v 0 4.2 0.5
v 0.1 4.2 0.5
v 0.1 4.3 0.5
v 0.4 3.3 0.5
v 0.4 3.7 0.5
v 0.5 3.8 0.5
v 0.5 4.2 0.5
v 0.7 3.8 0.5
v 0.7 4.3 0.5
v -0.7 3.7 0.4
v -0.7 4.2 0.4
v -0.2 3.7 0.4
v -0.2 4.2 0.4
v 0 3.7 0.4
v 0 4.2 0.4
v 0.5 3.7 0.4
v 0.5 4.2 0.4
v -0.2 2.3 1.5
v 0 2.3 1.5
v -0.2 2.3 0.9
v 0 2.3 0.9
v -0.2 2.4 1.6
v 0 2.4 1.6
v -0.2 2.4 1.5
v 0 2.4 1.5
v -0.7 2.5 1.6
v -0.4 2.5 1.6
v 0.2 2.5 1.6
v 0.5 2.5 1.6
v -0.8 2.5 1.3
v -0.7 2.5 1.3
v 0.5 2.5 1.3
v 0.6 2.5 1.3
v -0.2 2.5 0.9
v 0 2.5 0.9
v -0.8 2.5 0.8
v -0.4 2.5 0.8
v -0.2 2.5 0.8
v 0 2.5 0.8
v 0.2 2.5 0.8
v 0.6 2.5 0.8
v -0.4 2.8 1.6
v -0.2 2.8 1.6
v 0 2.8 1.6
v 0.2 2.8 1.6
v -0.4 2.8 1.5
v -0.2 2.8 1.5
v 0 2.8 1.5
v 0.2 2.8 1.5
v -0.4 2.8 0.9
v -0.2 2.8 0.9
v 0 2.8 0.9
v 0.2 2.8 0.9
v -0.4 2.8 0.8
v -0.2 2.8 0.8
v 0 2.8 0.8
v 0.2 2.8 0.8
v -0.4 3.1 0.8
v 0.2 3.1 0.8
v -0.4 3.1 0.6
v 0.2 3.1 0.6
v -0.6 3.3 1.5
v -0.5 3.3 1.5
v 0.3 3.3 1.5
v 0.4 3.3 1.5
v -0.6 3.3 1.4
v -0.5 3.3 1.4
v 0.3 3.3 1.4
v 0.4 3.3 1.4
v -0.6 3.3 0.9
v -0.5 3.3 0.9
v 0.3 3.3 0.9
v 0.4 3.3 0.9
v -0.5 3.3 0.8
v -0.4 3.3 0.8
v 0.2 3.3 0.8
v 0.3 3.3 0.8
v -0.4 3.3 0.6
v 0.2 3.3 0.6
v -0.6 3.3 0.5
v 0.4 3.3 0.5
v -0.7 3.7 1.5
v -0.6 3.7 1.5
v 0.4 3.7 1.5
v 0.5 3.7 1.5
v -0.6 3.7 0.5
v -0.2 3.7 0.5
v 0 3.7 0.5
v 0.4 3.7 0.5
v -0.7 3.7 0.4
v -0.2 3.7 0.4
v 0 3.7 0.4
v 0.5 3.7 0.4
v -0.8 3.8 1.5
v -0.7 3.8 1.5
v 0.5 3.8 1.5
v 0.6 3.8 1.5
v -0.9 3.8 1.4
v -0.8 3.8 1.4
v 0.6 3.8 1.4
v 0.7 3.8 1.4
v -0.9 3.8 0.5
v -0.7 3.8 0.5
v 0.5 3.8 0.5
v 0.7 3.8 0.5
v -0.3 4.4 0.8
v 0.1 4.4 0.8
v -0.3 4.4 0.7
v -0.2 4.4 0.7
v 0 4.4 0.7
v 0.1 4.4 0.7
v -0.2 4.4 0.6
v 0 4.4 0.6
v -0.8 2.6 1
v -0.7 2.6 1
v 0.5 2.6 1
v 0.6 2.6 1
v -0.8 2.6 0.8
v -0.7 2.6 0.8
v 0.5 2.6 0.8
v 0.6 2.6 0.8
v -0.8 2.8 1.3
v -0.7 2.8 1.3
v 0.5 2.8 1.3
v 0.6 2.8 1.3
v -0.8 2.8 1.2
v -0.7 2.8 1.2
v 0.5 2.8 1.2
v 0.6 2.8 1.2
v -0.8 2.8 1.1
v -0.7 2.8 1.1
v 0.5 2.8 1.1
v 0.6 2.8 1.1
v -0.8 2.8 1
v -0.7 2.8 1
v 0.5 2.8 1
v 0.6 2.8 1
v -0.7 2.8 0.9
v -0.6 2.8 0.9
v 0.4 2.8 0.9
v 0.5 2.8 0.9
v -0.7 2.8 0.8
v -0.6 2.8 0.8
v 0.4 2.8 0.8
v 0.5 2.8 0.8
v -0.7 3 1.6
v 0.5 3 1.6
v -0.5 3 1.5
v 0.3 3 1.5
v -0.6 3 1.4
v -0.5 3 1.4
v 0.3 3 1.4
v 0.4 3 1.4
v -0.7 3 0.9
v -0.6 3 0.9
v -0.5 3 0.9
v 0.3 3 0.9
v 0.4 3 0.9
v 0.5 3 0.9
v -0.6 3 0.8
v -0.5 3 0.8
v 0.3 3 0.8
v 0.4 3 0.8
v -0.3 4.2 0.6
v 0.1 4.2 0.6
v -0.7 4.2 0.5
v -0.3 4.2 0.5
v -0.2 4.2 0.5
v 0 4.2 0.5
v 0.1 4.2 0.5
v 0.5 4.2 0.5
v -0.7 4.2 0.4
v -0.2 4.2 0.4
v 0 4.2 0.4
v 0.5 4.2 0.4
v -0.3 4.3 1.5
v 0.1 4.3 1.5
v -0.3 4.3 1.4
v 0.1 4.3 1.4
v -0.9 4.3 0.8
v 0.7 4.3 0.8
v -0.3 4.3 0.6
v 0.1 4.3 0.6
v -0.9 4.3 0.5
v -0.3 4.3 0.5
v 0.1 4.3 0.5
v 0.7 4.3 0.5
v -0.8 4.4 1.5
v -0.3 4.4 1.5
v 0.1 4.4 1.5
v 0.6 4.4 1.5
v -0.9 4.4 1.4
v -0.8 4.4 1.4
v -0.3 4.4 1.4
v 0.1 4.4 1.4
v 0.6 4.4 1.4
v 0.7 4.4 1.4
v -0.9 4.4 1.3
v 0.7 4.4 1.3
v -0.9 4.5 1.3
v 0.7 4.5 1.3
v -0.3 4.5 1.1
v 0.1 4.5 1.1
v -0.3 4.5 0.9
v -0.2 4.5 0.9
v 0 4.5 0.9
v 0.1 4.5 0.9
v -0.9 4.5 0.8
v -0.3 4.5 0.8
v -0.2 4.5 0.8
v 0 4.5 0.8
v 0.1 4.5 0.8
v 0.7 4.5 0.8
v -0.3 4.5 0.7
v -0.2 4.5 0.7
v 0 4.5 0.7
v 0.1 4.5 0.7
v -0.2 4.5 0.6
v 0 4.5 0.6

# faces
f 3/2/1 2/2/1 1/2/1
f 4/2/1 2/2/1 3/2/1
f 5/2/1 3/2/1 1/2/1
f 6/1/1 4/1/1 3/1/1
f 6/2/1 3/2/1 5/2/1
f 7/1/1 6/1/1 5/1/1
f 7/1/1 4/1/1 6/1/1
f 8/2/1 2/2/1 4/2/1
f 8/1/1 4/1/1 7/1/1
f 9/1/1 7/1/1 5/1/1
f 9/2/1 5/2/1 1/2/1
f 10/2/1 8/2/1 7/2/1
f 10/1/1 7/1/1 9/1/1
f 11/2/1 8/2/1 10/2/1
f 12/2/1 2/2/1 8/2/1
f 12/2/1 8/2/1 11/2/1
f 13/2/1 11/2/1 10/2/1
f 13/2/1 9/2/1 1/2/1
f 13/2/1 10/2/1 9/2/1
f 14/2/1 11/2/1 13/2/1
f 15/2/1 11/2/1 14/2/1
f 16/2/1 11/2/1 15/2/1
f 19/1/1 18/1/1 17/1/1
f 20/1/1 18/1/1 19/1/1
f 21/1/1 19/1/1 17/1/1
f 22/1/1 19/1/1 21/1/1
f 23/1/1 21/1/1 17/1/1
f 24/3/1 22/3/1 21/3/1
f 24/1/1 21/1/1 23/1/1
f 25/1/1 19/1/1 22/1/1
f 25/3/1 22/3/1 24/3/1
f 26/1/1 19/1/1 25/1/1
f 29/2/1 28/2/1 27/2/1
f 30/2/1 28/2/1 29/2/1
f 35/1/1 32/1/1 31/1/1
f 36/1/1 32/1/1 35/1/1
f 37/1/1 32/1/1 36/1/1
f 38/1/1 32/1/1 37/1/1
f 39/1/1 34/1/1 33/1/1
f 40/1/1 34/1/1 39/1/1
f 41/3/1 36/3/1 35/3/1
f 42/1/1 37/1/1 36/1/1
f 42/3/1 36/3/1 41/3/1
f 43/3/1 38/3/1 37/3/1
f 43/1/1 37/1/1 42/1/1
f 44/3/1 38/3/1 43/3/1
f 47/3/1 40/3/1 39/3/1
f 48/1/1 34/1/1 40/1/1
f 48/3/1 40/3/1 47/3/1
f 49/1/1 34/1/1 48/1/1
f 50/2/1 42/2/1 41/2/1
f 50/2/1 47/2/1 46/2/1
f 50/2/1 48/2/1 47/2/1
f 50/2/1 46/2/1 45/2/1
f 50/2/1 45/2/1 44/2/1
f 50/2/1 44/2/1 43/2/1
f 50/2/1 43/2/1 42/2/1
f 51/2/1 48/2/1 50/2/1
f 54/2/1 53/2/1 52/2/1
f 55/2/1 53/2/1 54/2/1
f 56/2/1 53/2/1 55/2/1
f 57/2/1 53/2/1 56/2/1
f 61/2/1 59/2/1 58/2/1
f 62/2/1 59/2/1 61/2/1
f 64/2/1 61/2/1 60/2/1
f 65/2/1 61/2/1 64/2/1
f 67/2/1 65/2/1 64/2/1
f 67/2/1 66/2/1 65/2/1
f 67/2/1 64/2/1 63/2/1
f 68/2/1 66/2/1 67/2/1
f 73/2/1 70/2/1 69/2/1
f 74/2/1 70/2/1 73/2/1
f 75/2/1 72/2/1 71/2/1
f 76/2/1 72/2/1 75/2/1
f 79/2/1 78/2/1 77/2/1
f 80/2/1 78/2/1 79/2/1
f 83/2/1 82/2/1 81/2/1
f 84/2/1 82/2/1 83/2/1
f 88/1/1 86/1/1 85/1/1
f 89/1/1 86/1/1 88/1/1
f 89/1/1 88/1/1 87/1/1
f 91/1/1 89/1/1 87/1/1
f 91/1/1 90/1/1 89/1/1
f 92/1/1 90/1/1 91/1/1
f 93/1/1 90/1/1 92/1/1
f 94/1/1 90/1/1 93/1/1
f 97/2/1 96/2/1 95/2/1
f 98/2/1 96/2/1 97/2/1
f 101/2/1 100/2/1 99/2/1
f 102/2/1 100/2/1 101/2/1
f 107/2/1 104/2/1 103/2/1
f 108/2/1 104/2/1 107/2/1
f 109/2/1 106/2/1 105/2/1
f 110/2/1 106/2/1 109/2/1
f 113/1/1 112/1/1 111/1/1
f 114/1/1 112/1/1 113/1/1
f 115/1/1 112/1/1 114/1/1
f 116/1/1 112/1/1 115/1/1
f 117/3/1 114/3/1 113/3/1
f 118/1/1 115/1/1 114/1/1
f 118/3/1 114/3/1 117/3/1
f 119/3/1 116/3/1 115/3/1
f 119/1/1 115/1/1 118/1/1
f 120/3/1 116/3/1 119/3/1
f 121/1/2 122/1/2 123/1/2
f 123/1/2 122/1/2 124/1/2
f 124/1/2 122/1/2 125/1/2
f 125/1/2 122/1/2 126/1/2
f 123/3/2 124/3/2 127/3/2
f 124/1/2 125/1/2 128/1/2
f 127/3/2 124/3/2 128/3/2
f 125/3/2 126/3/2 129/3/2
f 128/1/2 125/1/2 129/1/2
f 129/3/2 126/3/2 130/3/2
f 131/2/2 132/2/2 135/2/2
f 135/2/2 132/2/2 136/2/2
f 133/2/2 134/2/2 137/2/2
f 137/2/2 134/2/2 138/2/2
f 139/2/2 140/2/2 141/2/2
f 141/2/2 140/2/2 142/2/2
f 143/1/2 144/1/2 146/1/2
f 146/1/2 144/1/2 147/1/2
f 145/1/2 146/1/2 147/1/2
f 145/1/2 147/1/2 149/1/2
f 147/1/2 148/1/2 149/1/2
f 149/1/2 148/1/2 150/1/2
f 150/1/2 148/1/2 151/1/2
f 151/1/2 148/1/2 152/1/2
f 153/2/2 154/2/2 155/2/2
f 155/2/2 154/2/2 156/2/2
f 157/2/2 158/2/2 159/2/2
f 159/2/2 158/2/2 160/2/2
f 161/2/2 162/2/2 163/2/2
f 163/2/2 162/2/2 164/2/2
f 165/2/2 166/2/2 169/2/2
f 169/2/2 166/2/2 170/2/2
f 167/2/2 168/2/2 171/2/2
f 171/2/2 168/2/2 172/2/2
f 173/2/2 174/2/2 176/2/2
f 176/2/2 174/2/2 177/2/2
f 175/2/2 176/2/2 179/2/2
f 179/2/2 176/2/2 180/2/2
f 179/2/2 180/2/2 182/2/2
f 180/2/2 181/2/2 182/2/2
f 178/2/2 179/2/2 182/2/2
f 182/2/2 181/2/2 183/2/2
f 184/1/2 185/1/2 188/1/2
f 188/1/2 185/1/2 189/1/2
f 189/1/2 185/1/2 190/1/2
f 190/1/2 185/1/2 191/1/2
f 186/1/2 187/1/2 192/1/2
f 192/1/2 187/1/2 193/1/2
f 188/3/2 189/3/2 194/3/2
f 189/1/2 190/1/2 195/1/2
f 194/3/2 189/3/2 195/3/2
f 190/3/2 191/3/2 196/3/2
f 195/1/2 190/1/2 196/1/2
f 196/3/2 191/3/2 197/3/2
f 192/3/2 193/3/2 200/3/2
f 193/1/2 187/1/2 201/1/2
f 200/3/2 193/3/2 201/3/2
f 201/1/2 187/1/2 202/1/2
f 194/2/2 195/2/2 203/2/2
f 199/2/2 200/2/2 203/2/2
f 200/2/2 201/2/2 203/2/2
f 198/2/2 199/2/2 203/2/2
f 197/2/2 198/2/2 203/2/2
f 196/2/2 197/2/2 203/2/2
f 195/2/2 196/2/2 203/2/2
f 203/2/2 201/2/2 204/2/2
f 205/2/2 206/2/2 207/2/2
f 207/2/2 206/2/2 208/2/2
f 208/2/2 206/2/2 209/2/2
f 209/2/2 206/2/2 210/2/2
f 211/1/2 212/1/2 213/1/2
f 213/1/2 212/1/2 214/1/2
f 211/1/2 213/1/2 215/1/2
f 215/1/2 213/1/2 216/1/2
f 211/1/2 215/1/2 217/1/2
f 215/3/2 216/3/2 218/3/2
f 217/1/2 215/1/2 218/1/2
f 216/1/2 213/1/2 219/1/2
f 218/3/2 216/3/2 219/3/2
f 219/1/2 213/1/2 220/1/2
f 221/2/2 222/2/2 223/2/2
f 223/2/2 222/2/2 224/2/2
f 225/2/2 226/2/2 227/2/2
f 227/2/2 226/2/2 228/2/2
f 225/2/2 227/2/2 229/2/2
f 227/1/2 228/1/2 230/1/2
f 229/2/2 227/2/2 230/2/2
f 229/1/2 230/1/2 231/1/2
f 230/1/2 228/1/2 231/1/2
f 228/2/2 226/2/2 232/2/2
f 231/1/2 228/1/2 232/1/2
f 229/1/2 231/1/2 233/1/2
f 225/2/2 229/2/2 233/2/2
f 231/2/2 232/2/2 234/2/2
f 233/1/2 231/1/2 234/1/2
f 234/2/2 232/2/2 235/2/2
f 232/2/2 226/2/2 236/2/2
f 235/2/2 232/2/2 236/2/2
f 234/2/2 235/2/2 237/2/2
f 225/2/2 233/2/2 237/2/2
f 233/2/2 234/2/2 237/2/2
f 237/2/2 235/2/2 238/2/2
f 238/2/2 235/2/2 239/2/2
f 239/2/2 235/2/2 240/2/2
f 245/1/3 242/1/3 241/1/3
f 245/3/3 243/3/3 242/3/3
f 246/2/3 244/2/3 243/2/3
f 246/3/3 243/3/3 245/3/3
f 247/1/3 245/1/3 241/1/3
f 247/1/3 246/1/3 245/1/3
f 248/2/3 244/2/3 246/2/3
f 248/1/3 246/1/3 247/1/3
f 249/1/3 247/1/3 241/1/3
f 250/3/3 248/3/3 247/3/3
f 250/1/3 247/1/3 249/1/3
f 251/2/3 244/2/3 248/2/3
f 251/3/3 248/3/3 250/3/3
f 253/2/3 244/2/3 251/2/3
f 254/1/3 253/1/3 252/1/3
f 255/2/3 244/2/3 253/2/3
f 255/1/3 253/1/3 254/1/3
f 258/2/3 244/2/3 255/2/3
f 259/1/3 257/1/3 256/1/3
f 259/3/3 258/3/3 257/3/3
f 260/2/3 244/2/3 258/2/3
f 260/3/3 258/3/3 259/3/3
f 261/1/3 259/1/3 256/1/3
f 261/1/3 260/1/3 259/1/3
f 262/2/3 244/2/3 260/2/3
f 262/1/3 260/1/3 261/1/3
f 263/1/3 261/1/3 256/1/3
f 264/3/3 262/3/3 261/3/3
f 264/1/3 261/1/3 263/1/3
f 265/2/3 244/2/3 262/2/3
f 265/3/3 262/3/3 264/3/3
f 266/2/3 244/2/3 265/2/3
f 270/2/3 268/2/3 267/2/3
f 272/2/3 270/2/3 269/2/3
f 274/2/3 272/2/3 271/2/3
f 275/2/3 268/2/3 270/2/3
f 275/2/3 274/2/3 273/2/3
f 275/2/3 272/2/3 274/2/3
f 275/2/3 270/2/3 272/2/3
f 276/2/3 268/2/3 275/2/3
f 279/1/3 278/1/3 277/1/3
f 280/1/3 278/1/3 279/1/3
f 281/2/3 275/2/3 273/2/3
f 283/2/3 281/2/3 273/2/3
f 283/2/3 282/2/3 281/2/3
f 284/2/3 282/2/3 283/2/3
f 285/2/3 282/2/3 284/2/3
f 286/2/3 282/2/3 285/2/3
f 287/2/3 282/2/3 286/2/3
f 288/2/3 282/2/3 287/2/3
f 289/2/3 282/2/3 288/2/3
f 290/2/3 282/2/3 289/2/3
f 293/2/3 292/2/3 291/2/3
f 294/2/3 292/2/3 293/2/3
f 297/2/3 296/2/3 295/2/3
f 298/2/3 296/2/3 297/2/3
f 301/2/3 300/2/3 299/2/3
f 302/2/3 300/2/3 301/2/3
f 305/2/3 304/2/3 303/2/3
f 306/2/3 304/2/3 305/2/3
f 309/2/3 308/2/3 307/2/3
f 310/2/3 308/2/3 309/2/3
f 315/1/3 314/1/3 313/1/3
f 316/1/3 314/1/3 315/1/3
f 317/1/3 314/1/3 316/1/3
f 321/1/3 319/1/3 318/1/3
f 321/1/3 320/1/3 319/1/3
f 322/1/3 320/1/3 321/1/3
f 323/2/3 312/2/3 311/2/3
f 324/2/3 312/2/3 323/2/3
f 325/1/4 326/1/4 327/1/4
f 327/1/4 326/1/4 328/1/4
f 328/1/4 326/1/4 329/1/4
f 330/1/4 331/1/4 333/1/4
f 331/1/4 332/1/4 333/1/4
f 333/1/4 332/1/4 334/1/4
f 335/2/4 336/2/4 337/2/4
f 337/2/4 336/2/4 338/2/4
f 338/2/4 339/2/4 340/2/4
f 340/2/4 339/2/4 341/2/4
f 342/1/4 343/1/4 344/1/4
f 344/1/4 343/1/4 345/1/4
f 346/2/4 347/2/4 349/2/4
f 349/2/4 347/2/4 350/2/4
f 348/2/4 349/2/4 351/2/4
f 351/2/4 349/2/4 352/2/4
f 355/1/4 356/1/4 357/1/4
f 357/1/4 358/1/4 359/1/4
f 357/1/4 359/1/4 361/1/4
f 359/2/4 360/2/4 362/2/4
f 361/1/4 359/1/4 362/1/4
f 362/2/4 360/2/4 363/2/4
f 355/1/4 357/1/4 365/1/4
f 357/1/4 361/1/4 365/1/4
f 361/3/4 362/3/4 366/3/4
f 365/1/4 361/1/4 366/1/4
f 363/2/4 364/2/4 367/2/4
f 366/3/4 362/3/4 367/3/4
f 362/2/4 363/2/4 367/2/4
f 367/2/4 364/2/4 368/2/4
f 368/2/4 364/2/4 369/2/4
f 353/2/4 354/2/4 370/2/4
f 370/2/4 354/2/4 371/2/4
f 367/2/4 368/2/4 373/2/4
f 372/1/4 373/1/4 374/1/4
f 373/2/4 368/2/4 375/2/4
f 374/1/4 373/1/4 375/1/4
f 353/2/4 370/2/4 376/2/4
f 375/2/4 368/2/4 380/2/4
f 380/2/4 368/2/4 381/2/4
f 378/1/4 379/1/4 383/1/4
f 379/3/4 380/3/4 383/3/4
f 381/2/4 382/2/4 384/2/4
f 383/3/4 380/3/4 384/3/4
f 380/2/4 381/2/4 384/2/4
f 384/2/4 382/2/4 385/2/4
f 385/2/4 382/2/4 386/2/4
f 383/1/4 384/1/4 387/1/4
f 384/2/4 385/2/4 387/2/4
f 387/2/4 385/2/4 388/2/4
f 378/1/4 383/1/4 389/1/4
f 383/1/4 387/1/4 389/1/4
f 389/1/4 387/1/4 390/1/4
f 378/1/4 389/1/4 391/1/4
f 391/1/4 389/1/4 392/1/4
f 353/2/4 376/2/4 393/2/4
f 376/2/4 377/2/4 393/2/4
f 393/2/4 377/2/4 394/2/4
f 395/2/4 396/2/4 397/2/4
f 397/2/4 396/2/4 398/2/4
f 399/2/4 400/2/4 401/2/4
f 401/2/4 400/2/4 402/2/4
f 407/2/4 408/2/4 409/2/4
f 409/2/4 408/2/4 410/2/4
f 405/2/4 406/2/4 411/2/4
f 411/2/4 406/2/4 412/2/4
f 403/2/4 404/2/4 413/2/4
f 413/2/4 404/2/4 414/2/4
f 415/2/4 416/2/4 417/2/4
f 417/2/4 416/2/4 418/2/4
f 418/2/4 416/2/4 421/2/4
f 421/2/4 416/2/4 422/2/4
f 419/2/4 420/2/4 423/2/4
f 419/2/4 423/2/4 425/2/4
f 423/2/4 424/2/4 425/2/4
f 425/2/4 424/2/4 426/2/4
f 419/2/4 425/2/4 429/2/4
f 429/2/4 425/2/4 430/2/4
f 427/2/4 428/2/4 432/2/4
f 431/2/4 432/2/4 433/2/4
f 432/2/4 428/2/4 434/2/4
f 433/2/4 432/2/4 434/2/4
f 435/2/4 436/2/4 437/2/4
f 437/2/4 436/2/4 438/2/4
f 439/2/4 440/2/4 441/2/4
f 441/2/4 440/2/4 442/2/4
f 445/1/5 444/1/5 443/1/5
f 446/1/5 444/1/5 445/1/5
f 449/1/5 448/1/5 447/1/5
f 450/1/5 448/1/5 449/1/5
f 456/1/5 452/1/5 451/1/5
f 457/1/5 454/1/5 453/1/5
f 461/1/5 456/1/5 455/1/5
f 462/1/5 452/1/5 456/1/5
f 462/1/5 456/1/5 461/1/5
f 463/1/5 460/1/5 459/1/5
f 464/1/5 460/1/5 463/1/5
f 465/1/5 457/1/5 453/1/5
f 465/1/5 458/1/5 457/1/5
f 466/1/5 458/1/5 465/1/5
f 471/2/5 468/2/5 467/2/5
f 472/2/5 468/2/5 471/2/5
f 473/2/5 470/2/5 469/2/5
f 474/2/5 470/2/5 473/2/5
f 475/1/5 472/1/5 471/1/5
f 476/1/5 472/1/5 475/1/5
f 477/1/5 474/1/5 473/1/5
f 478/1/5 474/1/5 477/1/5
f 479/2/5 476/2/5 475/2/5
f 480/2/5 476/2/5 479/2/5
f 481/2/5 478/2/5 477/2/5
f 482/2/5 478/2/5 481/2/5
f 485/2/5 484/2/5 483/2/5
f 486/2/5 484/2/5 485/2/5
f 491/2/5 488/2/5 487/2/5
f 492/2/5 488/2/5 491/2/5
f 493/2/5 490/2/5 489/2/5
f 494/2/5 490/2/5 493/2/5
f 499/2/5 496/2/5 495/2/5
f 502/2/5 498/2/5 497/2/5
f 503/2/5 500/2/5 499/2/5
f 504/2/5 502/2/5 501/2/5
f 505/2/5 503/2/5 499/2/5
f 505/2/5 504/2/5 503/2/5
f 505/2/5 499/2/5 495/2/5
f 506/2/5 502/2/5 504/2/5
f 506/2/5 504/2/5 505/2/5
f 506/2/5 498/2/5 502/2/5
f 511/2/5 508/2/5 507/2/5
f 514/2/5 510/2/5 509/2/5
f 515/2/5 512/2/5 511/2/5
f 515/2/5 511/2/5 507/2/5
f 516/2/5 512/2/5 515/2/5
f 517/2/5 514/2/5 513/2/5
f 518/2/5 510/2/5 514/2/5
f 518/2/5 514/2/5 517/2/5
f 524/2/5 520/2/5 519/2/5
f 525/2/5 522/2/5 521/2/5
f 527/2/5 524/2/5 523/2/5
f 528/2/5 520/2/5 524/2/5
f 528/2/5 524/2/5 527/2/5
f 529/2/5 526/2/5 525/2/5
f 529/2/5 525/2/5 521/2/5
f 530/2/5 526/2/5 529/2/5
f 533/2/5 532/2/5 531/2/5
f 534/2/5 532/2/5 533/2/5
f 535/2/5 532/2/5 534/2/5
f 536/2/5 532/2/5 535/2/5
f 537/2/5 535/2/5 534/2/5
f 538/2/5 535/2/5 537/2/5
f 539/1/6 540/1/6 543/1/6
f 543/1/6 540/1/6 544/1/6
f 541/1/6 542/1/6 545/1/6
f 545/1/6 542/1/6 546/1/6
f 547/1/6 548/1/6 551/1/6
f 551/1/6 548/1/6 552/1/6
f 549/1/6 550/1/6 553/1/6
f 553/1/6 550/1/6 554/1/6
f 551/3/6 552/3/6 555/3/6
f 555/3/6 552/3/6 556/3/6
f 553/3/6 554/3/6 557/3/6
f 557/3/6 554/3/6 558/3/6
f 555/1/6 556/1/6 559/1/6
f 559/1/6 556/1/6 560/1/6
f 557/1/6 558/1/6 561/1/6
f 561/1/6 558/1/6 562/1/6
f 563/1/6 564/1/6 567/1/6
f 567/1/6 564/1/6 568/1/6
f 565/1/6 566/1/6 569/1/6
f 569/1/6 566/1/6 570/1/6
f 571/2/6 572/2/6 573/2/6
f 573/2/6 572/2/6 574/2/6
f 571/2/6 573/2/6 575/2/6
f 575/2/6 573/2/6 576/2/6
f 574/2/6 572/2/6 577/2/6
f 577/2/6 572/2/6 578/2/6
f 571/2/6 575/2/6 579/2/6
f 579/2/6 575/2/6 580/2/6
f 578/2/6 572/2/6 583/2/6
f 583/2/6 572/2/6 584/2/6
f 580/2/6 581/2/6 585/2/6
f 585/2/6 581/2/6 586/2/6
f 582/2/6 583/2/6 587/2/6
f 587/2/6 583/2/6 588/2/6
f 589/2/6 590/2/6 592/2/6
f 592/2/6 590/2/6 593/2/6
f 593/2/6 590/2/6 594/2/6
f 594/2/6 590/2/6 595/2/6
f 591/2/6 592/2/6 597/2/6
f 592/2/6 593/2/6 597/2/6
f 597/2/6 593/2/6 598/2/6
f 595/2/6 596/2/6 599/2/6
f 594/2/6 595/2/6 599/2/6
f 599/2/6 596/2/6 600/2/6
f 601/2/6 602/2/6 603/2/6
f 603/2/6 602/2/6 604/2/6
f 605/2/6 606/2/6 607/2/6
f 607/2/6 606/2/6 608/2/6
f 605/2/6 607/2/6 609/2/6
f 609/2/6 607/2/6 610/2/6
f 608/2/6 606/2/6 611/2/6
f 611/2/6 606/2/6 612/2/6
f 613/2/6 614/2/6 618/2/6
f 618/2/6 614/2/6 619/2/6
f 615/2/6 616/2/6 620/2/6
f 620/2/6 616/2/6 621/2/6
f 618/2/6 619/2/6 623/2/6
f 621/2/6 622/2/6 623/2/6
f 620/2/6 621/2/6 623/2/6
f 619/2/6 620/2/6 623/2/6
f 617/2/6 618/2/6 623/2/6
f 623/2/6 622/2/6 624/2/6
f 625/2/6 626/2/6 627/2/6
f 627/2/6 626/2/6 628/2/6
f 625/2/6 627/2/6 629/2/6
f 627/1/6 628/1/6 629/1/6
f 629/1/6 628/1/6 630/1/6
f 630/1/6 628/1/6 631/1/6
f 628/2/6 626/2/6 632/2/6
f 631/1/6 628/1/6 632/1/6
f 625/2/6 629/2/6 633/2/6
f 629/2/6 630/2/6 633/2/6
f 633/2/6 630/2/6 634/2/6
f 630/1/6 631/1/6 635/1/6
f 634/2/6 630/2/6 635/2/6
f 631/2/6 632/2/6 636/2/6
f 635/1/6 631/1/6 636/1/6
f 632/2/6 626/2/6 637/2/6
f 636/2/6 632/2/6 637/2/6
f 637/2/6 626/2/6 638/2/6
f 635/2/6 636/2/6 639/2/6
f 636/2/6 637/2/6 639/2/6
f 634/2/6 635/2/6 639/2/6
f 639/2/6 637/2/6 640/2/6
f 640/2/6 637/2/6 641/2/6
f 641/2/6 637/2/6 642/2/6
f 640/2/6 641/2/6 643/2/6
f 643/2/6 641/2/6 644/2/6
