# MagicaVoxel @ Ephtracy

# group
o 

# material
mtllib balanar-1.mtl
usemtl palette

# normals
vn -1 0 0
vn 1 0 0
vn 0 0 1
vn 0 0 -1
vn 0 -1 0
vn 0 1 0

# texcoords
vt 0.00195313 0.5
vt 0.0449219 0.5
vt 0.123047 0.5

# verts
v 0.9 2.3 0.8
v 0.9 2.3 0.6
v 0.9 2.5 0.8
v 0.9 2.5 0.6
v 0.9 2.6 0.8
v 0.9 2.6 0.6
v 1 2.6 0.8
v 1 2.6 0.6
v 1 2.7 0.8
v 1 2.7 0.6
v 1.1 3.1 1.2
v 1.1 3.1 0.8
v 1.1 3.2 1.3
v 1.1 3.2 1.2
v 1.1 3.4 1.3
v 1.1 3.4 0.8
v 1.2 1.9 0.8
v 1.2 1.9 0.6
v 1.2 2.2 0.8
v 1.2 2.2 0.6
v 1.2 2.5 1
v 1.2 2.5 0.8
v 1.2 2.5 0.6
v 1.2 2.7 1.1
v 1.2 2.7 1
v 1.2 2.7 0.8
v 1.2 2.7 0.7
v 1.2 2.8 1.2
v 1.2 2.8 1.1
v 1.2 2.9 1.3
v 1.2 2.9 1.2
v 1.2 2.9 0.8
v 1.2 2.9 0.7
v 1.2 3.1 1.2
v 1.2 3.1 0.8
v 1.2 3.2 1.4
v 1.2 3.2 1.3
v 1.2 3.2 1.2
v 1.2 3.4 1.4
v 1.2 3.4 1.3
v 1.3 2 1
v 1.3 2 0.8
v 1.3 2.1 1.1
v 1.3 2.1 1
v 1.3 2.1 0.8
v 1.3 2.2 1.1
v 1.3 2.2 1
v 1.3 2.2 0.8
v 1.3 2.5 1
v 1.3 2.5 0.8
v 1.3 2.7 1.1
v 1.3 2.7 1
v 1.4 3.4 1.4
v 1.4 3.4 1.3
v 1.4 3.4 0.9
v 1.4 3.5 1.4
v 1.4 3.5 0.9
v 1 2.3 0.8
v 1 2.3 0.6
v 1 2.5 0.8
v 1 2.5 0.6
v 1.3 1.9 0.8
v 1.3 1.9 0.6
v 1.3 2 0.8
v 1.3 2.1 0.8
v 1.3 2.1 0.6
v 1.4 2 1
v 1.4 2 0.8
v 1.4 2.1 1.1
v 1.4 2.1 1
v 1.4 2.1 0.8
v 1.4 2.1 0.6
v 1.4 2.2 1.1
v 1.4 2.2 1
v 1.4 2.2 0.8
v 1.4 2.2 0.6
v 1.4 2.7 0.7
v 1.4 2.7 0.6
v 1.4 2.8 1.2
v 1.4 2.8 1.1
v 1.4 2.9 1.3
v 1.4 2.9 1.2
v 1.4 2.9 0.8
v 1.4 2.9 0.7
v 1.4 3 1.3
v 1.4 3 0.9
v 1.4 3.4 0.9
v 1.4 3.4 0.8
v 1.5 3 1.3
v 1.5 3 0.9
v 1.5 3.2 1.4
v 1.5 3.2 1.3
v 1.5 3.5 1.4
v 1.5 3.5 0.9
v 1.2 3.2 1.4
v 1.2 3.4 1.4
v 1.4 3.4 1.4
v 1.4 3.5 1.4
v 1.5 3.2 1.4
v 1.5 3.5 1.4
v 1.1 3.2 1.3
v 1.1 3.4 1.3
v 1.2 2.9 1.3
v 1.2 3.2 1.3
v 1.2 3.4 1.3
v 1.4 2.9 1.3
v 1.4 3 1.3
v 1.5 3 1.3
v 1.5 3.2 1.3
v 1.1 3.1 1.2
v 1.1 3.2 1.2
v 1.2 2.8 1.2
v 1.2 2.9 1.2
v 1.2 3.1 1.2
v 1.2 3.2 1.2
v 1.4 2.8 1.2
v 1.4 2.9 1.2
v 1.2 2.7 1.1
v 1.2 2.8 1.1
v 1.3 2.1 1.1
v 1.3 2.2 1.1
v 1.3 2.7 1.1
v 1.4 2.1 1.1
v 1.4 2.2 1.1
v 1.4 2.8 1.1
v 1.2 2.5 1
v 1.2 2.7 1
v 1.3 2 1
v 1.3 2.1 1
v 1.3 2.5 1
v 1.3 2.7 1
v 1.4 2 1
v 1.4 2.1 1
v 0.9 2.3 0.8
v 0.9 2.5 0.8
v 0.9 2.6 0.8
v 1 2.3 0.8
v 1 2.5 0.8
v 1 2.6 0.8
v 1 2.7 0.8
v 1.2 1.9 0.8
v 1.2 2.2 0.8
v 1.2 2.5 0.8
v 1.2 2.7 0.8
v 1.3 1.9 0.8
v 1.3 2 0.8
v 1.3 2.1 0.8
v 1.3 2.2 0.8
v 1.3 2.5 0.8
v 1.4 3 0.9
v 1.4 3.4 0.9
v 1.4 3.5 0.9
v 1.5 3 0.9
v 1.5 3.5 0.9
v 1.1 3.1 0.8
v 1.1 3.4 0.8
v 1.2 2.9 0.8
v 1.2 3.1 0.8
v 1.3 2 0.8
v 1.3 2.1 0.8
v 1.4 2 0.8
v 1.4 2.1 0.8
v 1.4 2.9 0.8
v 1.4 3.4 0.8
v 1.2 2.7 0.7
v 1.2 2.9 0.7
v 1.4 2.7 0.7
v 1.4 2.9 0.7
v 0.9 2.3 0.6
v 0.9 2.5 0.6
v 0.9 2.6 0.6
v 1 2.3 0.6
v 1 2.5 0.6
v 1 2.6 0.6
v 1 2.7 0.6
v 1.2 1.9 0.6
v 1.2 2.2 0.6
v 1.2 2.5 0.6
v 1.3 1.9 0.6
v 1.3 2.1 0.6
v 1.4 2.1 0.6
v 1.4 2.2 0.6
v 1.4 2.7 0.6
v 1.2 1.9 0.8
v 1.3 1.9 0.8
v 1.2 1.9 0.6
v 1.3 1.9 0.6
v 1.3 2 1
v 1.4 2 1
v 1.3 2 0.8
v 1.4 2 0.8
v 1.3 2.1 1.1
v 1.4 2.1 1.1
v 1.3 2.1 1
v 1.4 2.1 1
v 1.3 2.1 0.8
v 1.4 2.1 0.8
v 1.3 2.1 0.6
v 1.4 2.1 0.6
v 0.9 2.3 0.8
v 1 2.3 0.8
v 0.9 2.3 0.6
v 1 2.3 0.6
v 1.2 2.5 1
v 1.3 2.5 1
v 1 2.5 0.8
v 1.2 2.5 0.8
v 1.3 2.5 0.8
v 1 2.5 0.6
v 1.2 2.5 0.6
v 1.2 2.7 1.1
v 1.3 2.7 1.1
v 1.2 2.7 1
v 1.3 2.7 1
v 1.2 2.8 1.2
v 1.4 2.8 1.2
v 1.2 2.8 1.1
v 1.4 2.8 1.1
v 1.2 2.9 1.3
v 1.4 2.9 1.3
v 1.2 2.9 1.2
v 1.4 2.9 1.2
v 1.4 3 1.3
v 1.5 3 1.3
v 1.4 3 0.9
v 1.5 3 0.9
v 1.1 3.1 1.2
v 1.2 3.1 1.2
v 1.1 3.1 0.8
v 1.2 3.1 0.8
v 1.2 3.2 1.4
v 1.5 3.2 1.4
v 1.1 3.2 1.3
v 1.2 3.2 1.3
v 1.5 3.2 1.3
v 1.1 3.2 1.2
v 1.2 3.2 1.2
v 0.9 2.6 0.8
v 1 2.6 0.8
v 0.9 2.6 0.6
v 1 2.6 0.6
v 1 2.7 0.8
v 1.2 2.7 0.8
v 1.2 2.7 0.7
v 1.4 2.7 0.7
v 1 2.7 0.6
v 1.4 2.7 0.6
v 1.2 2.9 0.8
v 1.4 2.9 0.8
v 1.2 2.9 0.7
v 1.4 2.9 0.7
v 1.2 3.4 1.4
v 1.4 3.4 1.4
v 1.1 3.4 1.3
v 1.2 3.4 1.3
v 1.4 3.4 1.3
v 1.2 3.4 0.9
v 1.4 3.4 0.9
v 1.1 3.4 0.8
v 1.4 3.4 0.8
v 1.4 3.5 1.4
v 1.5 3.5 1.4
v 1.4 3.5 0.9
v 1.5 3.5 0.9

# faces
f 3/2/1 2/2/1 1/2/1
f 4/2/1 2/2/1 3/2/1
f 5/3/1 4/3/1 3/3/1
f 6/3/1 4/3/1 5/3/1
f 9/3/1 8/3/1 7/3/1
f 10/3/1 8/3/1 9/3/1
f 14/3/1 12/3/1 11/3/1
f 15/3/1 14/3/1 13/3/1
f 16/3/1 12/3/1 14/3/1
f 16/3/1 14/3/1 15/3/1
f 19/2/1 18/2/1 17/2/1
f 20/2/1 18/2/1 19/2/1
f 22/3/1 20/3/1 19/3/1
f 23/3/1 20/3/1 22/3/1
f 25/3/1 22/3/1 21/3/1
f 26/3/1 22/3/1 25/3/1
f 29/3/1 25/3/1 24/3/1
f 29/3/1 27/3/1 26/3/1
f 29/3/1 26/3/1 25/3/1
f 31/3/1 29/3/1 28/3/1
f 32/3/1 27/3/1 29/3/1
f 32/3/1 29/3/1 31/3/1
f 33/3/1 27/3/1 32/3/1
f 34/3/1 31/3/1 30/3/1
f 34/3/1 32/3/1 31/3/1
f 35/3/1 32/3/1 34/3/1
f 37/3/1 34/3/1 30/3/1
f 38/3/1 34/3/1 37/3/1
f 39/3/1 37/3/1 36/3/1
f 40/3/1 37/3/1 39/3/1
f 44/2/1 42/2/1 41/2/1
f 45/2/1 42/2/1 44/2/1
f 46/2/1 44/2/1 43/2/1
f 47/3/1 45/3/1 44/3/1
f 47/2/1 44/2/1 46/2/1
f 48/3/1 45/3/1 47/3/1
f 49/3/1 47/3/1 46/3/1
f 49/3/1 48/3/1 47/3/1
f 50/3/1 48/3/1 49/3/1
f 51/3/1 49/3/1 46/3/1
f 52/3/1 49/3/1 51/3/1
f 56/3/1 54/3/1 53/3/1
f 56/3/1 55/3/1 54/3/1
f 57/3/1 55/3/1 56/3/1
f 58/2/2 59/2/2 60/2/2
f 60/2/2 59/2/2 61/2/2
f 62/2/2 63/2/2 64/2/2
f 64/2/2 63/2/2 65/2/2
f 65/2/2 63/2/2 66/2/2
f 67/2/2 68/2/2 70/2/2
f 70/2/2 68/2/2 71/2/2
f 69/2/2 70/2/2 73/2/2
f 70/3/2 71/3/2 74/3/2
f 73/2/2 70/2/2 74/2/2
f 71/2/2 72/2/2 75/2/2
f 74/3/2 71/3/2 75/3/2
f 75/2/2 72/2/2 76/2/2
f 73/3/2 74/3/2 77/3/2
f 74/3/2 75/3/2 77/3/2
f 75/3/2 76/3/2 77/3/2
f 77/3/2 76/3/2 78/3/2
f 73/3/2 77/3/2 80/3/2
f 79/3/2 80/3/2 82/3/2
f 80/3/2 77/3/2 83/3/2
f 82/3/2 80/3/2 83/3/2
f 83/3/2 77/3/2 84/3/2
f 81/3/2 82/3/2 85/3/2
f 82/3/2 83/3/2 85/3/2
f 85/3/2 83/3/2 86/3/2
f 86/3/2 83/3/2 87/3/2
f 87/3/2 83/3/2 88/3/2
f 89/3/2 90/3/2 92/3/2
f 91/3/2 92/3/2 93/3/2
f 92/3/2 90/3/2 94/3/2
f 93/3/2 92/3/2 94/3/2
f 97/3/3 96/3/3 95/3/3
f 99/3/3 97/3/3 95/3/3
f 99/3/3 98/3/3 97/3/3
f 100/3/3 98/3/3 99/3/3
f 104/3/3 102/3/3 101/3/3
f 105/3/3 102/3/3 104/3/3
f 106/3/3 104/3/3 103/3/3
f 107/3/3 104/3/3 106/3/3
f 108/3/3 104/3/3 107/3/3
f 109/3/3 104/3/3 108/3/3
f 114/3/3 111/3/3 110/3/3
f 115/3/3 111/3/3 114/3/3
f 116/3/3 113/3/3 112/3/3
f 117/3/3 113/3/3 116/3/3
f 122/3/3 119/3/3 118/3/3
f 123/2/3 121/2/3 120/2/3
f 124/3/3 122/3/3 121/3/3
f 124/2/3 121/2/3 123/2/3
f 125/3/3 119/3/3 122/3/3
f 125/3/3 122/3/3 124/3/3
f 130/3/3 127/3/3 126/3/3
f 131/3/3 127/3/3 130/3/3
f 132/2/3 129/2/3 128/2/3
f 133/2/3 129/2/3 132/2/3
f 137/2/3 135/2/3 134/2/3
f 138/3/3 136/3/3 135/3/3
f 138/2/3 135/2/3 137/2/3
f 139/3/3 136/3/3 138/3/3
f 143/3/3 140/3/3 139/3/3
f 143/3/3 139/3/3 138/3/3
f 144/3/3 140/3/3 143/3/3
f 145/2/3 142/2/3 141/2/3
f 146/2/3 142/2/3 145/2/3
f 147/2/3 142/2/3 146/2/3
f 148/3/3 143/3/3 142/3/3
f 148/2/3 142/2/3 147/2/3
f 149/3/3 143/3/3 148/3/3
f 150/3/4 151/3/4 153/3/4
f 151/3/4 152/3/4 153/3/4
f 153/3/4 152/3/4 154/3/4
f 155/3/4 156/3/4 158/3/4
f 159/2/4 160/2/4 161/2/4
f 161/2/4 160/2/4 162/2/4
f 157/3/4 158/3/4 163/3/4
f 158/3/4 156/3/4 164/3/4
f 163/3/4 158/3/4 164/3/4
f 165/3/4 166/3/4 167/3/4
f 167/3/4 166/3/4 168/3/4
f 169/2/4 170/2/4 172/2/4
f 170/3/4 171/3/4 173/3/4
f 172/2/4 170/2/4 173/2/4
f 173/3/4 171/3/4 174/3/4
f 174/3/4 175/3/4 178/3/4
f 173/3/4 174/3/4 178/3/4
f 176/2/4 177/2/4 179/2/4
f 179/2/4 177/2/4 180/2/4
f 180/2/4 177/2/4 181/2/4
f 177/3/4 178/3/4 182/3/4
f 181/2/4 177/2/4 182/2/4
f 178/3/4 175/3/4 183/3/4
f 182/3/4 178/3/4 183/3/4
f 186/2/5 185/2/5 184/2/5
f 187/2/5 185/2/5 186/2/5
f 190/2/5 189/2/5 188/2/5
f 191/2/5 189/2/5 190/2/5
f 194/2/5 193/2/5 192/2/5
f 195/2/5 193/2/5 194/2/5
f 198/2/5 197/2/5 196/2/5
f 199/2/5 197/2/5 198/2/5
f 202/2/5 201/2/5 200/2/5
f 203/2/5 201/2/5 202/2/5
f 207/3/5 205/3/5 204/3/5
f 208/3/5 205/3/5 207/3/5
f 209/3/5 207/3/5 206/3/5
f 210/3/5 207/3/5 209/3/5
f 213/3/5 212/3/5 211/3/5
f 214/3/5 212/3/5 213/3/5
f 217/3/5 216/3/5 215/3/5
f 218/3/5 216/3/5 217/3/5
f 221/3/5 220/3/5 219/3/5
f 222/3/5 220/3/5 221/3/5
f 225/3/5 224/3/5 223/3/5
f 226/3/5 224/3/5 225/3/5
f 229/3/5 228/3/5 227/3/5
f 230/3/5 228/3/5 229/3/5
f 234/3/5 232/3/5 231/3/5
f 235/3/5 232/3/5 234/3/5
f 236/3/5 234/3/5 233/3/5
f 237/3/5 234/3/5 236/3/5
f 238/3/6 239/3/6 240/3/6
f 240/3/6 239/3/6 241/3/6
f 242/3/6 243/3/6 244/3/6
f 242/3/6 244/3/6 246/3/6
f 244/3/6 245/3/6 246/3/6
f 246/3/6 245/3/6 247/3/6
f 248/3/6 249/3/6 250/3/6
f 250/3/6 249/3/6 251/3/6
f 252/3/6 253/3/6 255/3/6
f 255/3/6 253/3/6 256/3/6
f 254/3/6 255/3/6 257/3/6
f 255/1/6 256/1/6 257/1/6
f 257/1/6 256/1/6 258/1/6
f 254/3/6 257/3/6 259/3/6
f 257/3/6 258/3/6 259/3/6
f 259/3/6 258/3/6 260/3/6
f 261/3/6 262/3/6 263/3/6
f 263/3/6 262/3/6 264/3/6
